G04 Layer_Color=128*
%FSLAX43Y43*%
%MOMM*%
G71*
G01*
G75*
%ADD24C,0.051*%
D24*
X101825Y164000D02*
X108175D01*
X105000Y160825D02*
Y167175D01*
X91825Y164000D02*
X98175D01*
X95000Y160825D02*
Y167175D01*
X106900Y152000D02*
X113100D01*
X110000Y148900D02*
Y155100D01*
X86900Y152000D02*
X93100D01*
X90000Y148900D02*
Y155100D01*
X110950Y178000D02*
X113050D01*
X112000Y176950D02*
Y179050D01*
X108350Y184000D02*
X115650D01*
X112000Y180350D02*
Y187650D01*
X86950Y178000D02*
X89050D01*
X88000Y176950D02*
Y179050D01*
X84350Y184000D02*
X91650D01*
X88000Y180350D02*
Y187650D01*
X110950Y202000D02*
X113050D01*
X112000Y200950D02*
Y203050D01*
X108350Y208000D02*
X115650D01*
X112000Y204350D02*
Y211650D01*
X86900Y113000D02*
X93100D01*
X90000Y109900D02*
Y116100D01*
X106900Y113000D02*
X113100D01*
X110000Y109900D02*
Y116100D01*
X86900Y126000D02*
X93100D01*
X90000Y122900D02*
Y129100D01*
X106900Y126000D02*
X113100D01*
X110000Y122900D02*
Y129100D01*
X86900Y139000D02*
X93100D01*
X90000Y135900D02*
Y142100D01*
X106900Y139000D02*
X113100D01*
X110000Y135900D02*
Y142100D01*
X84350Y208000D02*
X91650D01*
X88000Y204350D02*
Y211650D01*
X86950Y202000D02*
X89050D01*
X88000Y200950D02*
Y203050D01*
X118720Y225500D02*
X121920D01*
X120320Y223900D02*
Y227100D01*
X78080Y225500D02*
X81280D01*
X79680Y223900D02*
Y227100D01*
X78080Y103000D02*
X81280D01*
X79680Y101400D02*
Y104600D01*
X118720Y103000D02*
X121920D01*
X120320Y101400D02*
Y104600D01*
M02*
