G04 Layer_Color=32896*
%FSLAX43Y43*%
%MOMM*%
G71*
G01*
G75*
%ADD10C,0.254*%
%ADD22C,0.200*%
D10*
X109395Y220261D02*
Y218737D01*
X108633D01*
X108379Y218991D01*
Y220007D01*
X108633Y220261D01*
X109395D01*
X106856Y220007D02*
X107110Y220261D01*
X107618D01*
X107871Y220007D01*
Y218991D01*
X107618Y218737D01*
X107110D01*
X106856Y218991D01*
X103809Y220007D02*
X104063Y220261D01*
X104571D01*
X104824Y220007D01*
Y218991D01*
X104571Y218737D01*
X104063D01*
X103809Y218991D01*
X103301Y220261D02*
Y219245D01*
X102793Y218737D01*
X102285Y219245D01*
Y220261D01*
X99238D02*
X100254D01*
Y219499D01*
X99746D01*
X100254D01*
Y218737D01*
X98730D02*
Y220261D01*
X97969D01*
X97715Y220007D01*
Y219499D01*
X97969Y219245D01*
X98730D01*
X95683Y219753D02*
X95176Y218737D01*
X94668Y219753D01*
X94160Y218737D02*
X93652D01*
X93906D01*
Y220261D01*
X94160Y220007D01*
X92890Y218737D02*
Y218991D01*
X92636D01*
Y218737D01*
X92890D01*
X91621Y220007D02*
X91367Y220261D01*
X90859D01*
X90605Y220007D01*
Y218991D01*
X90859Y218737D01*
X91367D01*
X91621Y218991D01*
Y220007D01*
X104571Y216300D02*
X105586D01*
X104571Y217315D01*
Y217569D01*
X104824Y217823D01*
X105332D01*
X105586Y217569D01*
X104063D02*
X103809Y217823D01*
X103301D01*
X103047Y217569D01*
Y216554D01*
X103301Y216300D01*
X103809D01*
X104063Y216554D01*
Y217569D01*
X101524Y216300D02*
X102539D01*
X101524Y217315D01*
Y217569D01*
X101777Y217823D01*
X102285D01*
X102539Y217569D01*
X101016Y216300D02*
X100508D01*
X100762D01*
Y217823D01*
X101016Y217569D01*
X99746Y216300D02*
X99238D01*
X99492D01*
Y217823D01*
X99746Y217569D01*
X98476D02*
X98223Y217823D01*
X97715D01*
X97461Y217569D01*
Y216554D01*
X97715Y216300D01*
X98223D01*
X98476Y216554D01*
Y217569D01*
X96953D02*
X96699Y217823D01*
X96191D01*
X95937Y217569D01*
Y216554D01*
X96191Y216300D01*
X96699D01*
X96953Y216554D01*
Y217569D01*
X94414Y216300D02*
X95429D01*
X94414Y217315D01*
Y217569D01*
X94668Y217823D01*
X95176D01*
X95429Y217569D01*
X109141Y214878D02*
X108633D01*
X108379Y214624D01*
Y213862D01*
X109141D01*
X109395Y214116D01*
X109141Y214370D01*
X108379D01*
X106856Y215385D02*
Y213862D01*
X107618D01*
X107871Y214116D01*
Y214624D01*
X107618Y214878D01*
X106856D01*
X106094D02*
X105586D01*
X105332Y214624D01*
Y213862D01*
X106094D01*
X106348Y214116D01*
X106094Y214370D01*
X105332D01*
X104824Y213862D02*
Y214878D01*
X104571D01*
X104317Y214624D01*
Y213862D01*
Y214624D01*
X104063Y214878D01*
X103809Y214624D01*
Y213862D01*
X102793Y213354D02*
X102539D01*
X102285Y213608D01*
Y214878D01*
X103047D01*
X103301Y214624D01*
Y214116D01*
X103047Y213862D01*
X102285D01*
X101777Y214878D02*
Y214116D01*
X101524Y213862D01*
X100762D01*
Y214878D01*
X100254Y213862D02*
X99746D01*
X100000D01*
Y215385D01*
X100254D01*
X98984Y214878D02*
Y214116D01*
X98730Y213862D01*
X97969D01*
Y213608D01*
X98223Y213354D01*
X98476D01*
X97969Y213862D02*
Y214878D01*
X97207D02*
X96699D01*
X96445Y214624D01*
Y213862D01*
X97207D01*
X97461Y214116D01*
X97207Y214370D01*
X96445D01*
X95937Y213862D02*
X95176D01*
X94922Y214116D01*
X95176Y214370D01*
X95683D01*
X95937Y214624D01*
X95683Y214878D01*
X94922D01*
X94414Y213862D02*
Y214116D01*
X94160D01*
Y213862D01*
X94414D01*
X92129Y214878D02*
X92890D01*
X93144Y214624D01*
Y214116D01*
X92890Y213862D01*
X92129D01*
X91367Y214878D02*
X90859D01*
X90605Y214624D01*
Y213862D01*
X91367D01*
X91621Y214116D01*
X91367Y214370D01*
X90605D01*
D22*
X122800Y215849D02*
G03*
X122800Y215849I-1000J0D01*
G01*
Y215849D02*
G03*
X122800Y215849I-1000J0D01*
G01*
X121375Y215874D02*
Y216699D01*
X122225Y215849D02*
Y216699D01*
X121800Y214849D02*
Y215849D01*
X120800D02*
X122800D01*
X122225Y215874D02*
Y216699D01*
X120800Y215849D02*
X122800D01*
X121800Y214849D02*
Y215849D01*
X121375D02*
Y216699D01*
M02*
