G04 Layer_Color=8388736*
%FSLAX43Y43*%
%MOMM*%
G71*
G01*
G75*
%ADD10C,0.254*%
%ADD23C,0.152*%
D10*
X69246Y113000D02*
X86596D01*
X69246Y100000D02*
X74219D01*
X69500Y109801D02*
Y113000D01*
Y100000D02*
Y102386D01*
X68992Y111476D02*
X69500Y113000D01*
X70008Y111476D01*
X69500Y100000D02*
X70008Y101524D01*
X68992D02*
X69500Y100000D01*
X66246Y126000D02*
X86596D01*
X66246Y100000D02*
X74219D01*
X66500Y116428D02*
Y126000D01*
Y100000D02*
Y108759D01*
X65992Y124476D02*
X66500Y126000D01*
X67008Y124476D01*
X66500Y100000D02*
X67008Y101524D01*
X65992D02*
X66500Y100000D01*
X63246Y139000D02*
X86596D01*
X63246Y100000D02*
X74219D01*
X63500Y122928D02*
Y139000D01*
Y100000D02*
Y115259D01*
X62992Y137476D02*
X63500Y139000D01*
X64008Y137476D01*
X63500Y100000D02*
X64008Y101524D01*
X62992D02*
X63500Y100000D01*
X60246Y152000D02*
X86596D01*
X60246Y100000D02*
X74219D01*
X60500Y129428D02*
Y152000D01*
Y100000D02*
Y121759D01*
X59992Y150476D02*
X60500Y152000D01*
X61008Y150476D01*
X60500Y100000D02*
X61008Y101524D01*
X59992D02*
X60500Y100000D01*
X57246Y164000D02*
X91571D01*
X57246Y100000D02*
X74219D01*
X57500Y135428D02*
Y164000D01*
Y100000D02*
Y127759D01*
X56992Y162476D02*
X57500Y164000D01*
X58008Y162476D01*
X57500Y100000D02*
X58008Y101524D01*
X56992D02*
X57500Y100000D01*
X54246Y178000D02*
X86646D01*
X54246Y100000D02*
X74219D01*
X54500Y142428D02*
Y178000D01*
Y100000D02*
Y134759D01*
X53992Y176476D02*
X54500Y178000D01*
X55008Y176476D01*
X54500Y100000D02*
X55008Y101524D01*
X53992D02*
X54500Y100000D01*
X51246Y184000D02*
X84046D01*
X51246Y100000D02*
X74219D01*
X51500Y145428D02*
Y184000D01*
Y100000D02*
Y137759D01*
X50992Y182476D02*
X51500Y184000D01*
X52008Y182476D01*
X51500Y100000D02*
X52008Y101524D01*
X50992D02*
X51500Y100000D01*
X48246Y202000D02*
X86646D01*
X48246Y100000D02*
X74219D01*
X48500Y155063D02*
Y202000D01*
Y100000D02*
Y146125D01*
X47992Y200476D02*
X48500Y202000D01*
X49008Y200476D01*
X48500Y100000D02*
X49008Y101524D01*
X47992D02*
X48500Y100000D01*
X45246Y208000D02*
X84046D01*
X45246Y100000D02*
X74219D01*
X45500Y158063D02*
Y208000D01*
Y100000D02*
Y149125D01*
X44992Y206476D02*
X45500Y208000D01*
X46008Y206476D01*
X45500Y100000D02*
X46008Y101524D01*
X44992D02*
X45500Y100000D01*
X42246Y225500D02*
X76226D01*
X42246Y100000D02*
X74219D01*
X42500Y166813D02*
Y225500D01*
Y100000D02*
Y157875D01*
X41992Y223976D02*
X42500Y225500D01*
X43008Y223976D01*
X42500Y100000D02*
X43008Y101524D01*
X41992D02*
X42500Y100000D01*
X79680Y96246D02*
Y99546D01*
X74600Y96246D02*
Y99619D01*
X77140Y96500D02*
X79680D01*
X74600D02*
X77140D01*
X78156Y97008D02*
X79680Y96500D01*
X78156Y95992D02*
X79680Y96500D01*
X74600D02*
X76124Y95992D01*
X74600Y96500D02*
X76124Y97008D01*
X90000Y93246D02*
Y109596D01*
X74600Y93246D02*
Y99619D01*
X85601Y93500D02*
X90000D01*
X74600D02*
X78186D01*
X88476Y94008D02*
X90000Y93500D01*
X88476Y92992D02*
X90000Y93500D01*
X74600D02*
X76124Y92992D01*
X74600Y93500D02*
X76124Y94008D01*
X95000Y90246D02*
Y160571D01*
X74600Y90246D02*
Y99619D01*
X88228Y90500D02*
X95000D01*
X74600D02*
X80559D01*
X93476Y91008D02*
X95000Y90500D01*
X93476Y89992D02*
X95000Y90500D01*
X74600D02*
X76124Y89992D01*
X74600Y90500D02*
X76124Y91008D01*
X105000Y87246D02*
Y160571D01*
X74600Y87246D02*
Y99619D01*
X93228Y87500D02*
X105000D01*
X74600D02*
X85559D01*
X103476Y88008D02*
X105000Y87500D01*
X103476Y86992D02*
X105000Y87500D01*
X74600D02*
X76124Y86992D01*
X74600Y87500D02*
X76124Y88008D01*
X110000Y84246D02*
Y109596D01*
X74600Y84246D02*
Y99619D01*
X95728Y84500D02*
X110000D01*
X74600D02*
X88059D01*
X108476Y85008D02*
X110000Y84500D01*
X108476Y83992D02*
X110000Y84500D01*
X74600D02*
X76124Y83992D01*
X74600Y84500D02*
X76124Y85008D01*
X120320Y81246D02*
Y99546D01*
X74600Y81246D02*
Y99619D01*
X100888Y81500D02*
X120320D01*
X74600D02*
X93219D01*
X118796Y82008D02*
X120320Y81500D01*
X118796Y80992D02*
X120320Y81500D01*
X74600D02*
X76124Y80992D01*
X74600Y81500D02*
X76124Y82008D01*
X88000Y211954D02*
Y231754D01*
X74600Y228881D02*
Y231754D01*
X84601Y231500D02*
X88000D01*
X74600D02*
X77186D01*
X86476Y232008D02*
X88000Y231500D01*
X86476Y230992D02*
X88000Y231500D01*
X74600D02*
X76124Y230992D01*
X74600Y231500D02*
X76124Y232008D01*
X112000Y211954D02*
Y234754D01*
X74600Y228881D02*
Y234754D01*
X96728Y234500D02*
X112000D01*
X74600D02*
X89059D01*
X110476Y235008D02*
X112000Y234500D01*
X110476Y233992D02*
X112000Y234500D01*
X74600D02*
X76124Y233992D01*
X74600Y234500D02*
X76124Y235008D01*
X72246Y103000D02*
X76226D01*
X72246Y100000D02*
X74219D01*
X72500Y101500D02*
Y103000D01*
Y100000D02*
Y101500D01*
X71992Y101476D02*
X72500Y103000D01*
X73008Y101476D01*
X72500Y100000D02*
X73008Y101524D01*
X71992D02*
X72500Y100000D01*
D23*
X70414Y102793D02*
Y103300D01*
Y103047D01*
X68891D01*
X69145Y102793D01*
Y104062D02*
X68891Y104316D01*
Y104824D01*
X69145Y105078D01*
X69398D01*
X69652Y104824D01*
Y104570D01*
Y104824D01*
X69906Y105078D01*
X70160D01*
X70414Y104824D01*
Y104316D01*
X70160Y104062D01*
X70414Y105586D02*
X70160D01*
Y105840D01*
X70414D01*
Y105586D01*
X69145Y106855D02*
X68891Y107109D01*
Y107617D01*
X69145Y107871D01*
X70160D01*
X70414Y107617D01*
Y107109D01*
X70160Y106855D01*
X69145D01*
Y108379D02*
X68891Y108633D01*
Y109141D01*
X69145Y109395D01*
X70160D01*
X70414Y109141D01*
Y108633D01*
X70160Y108379D01*
X69145D01*
X67414Y110181D02*
Y109166D01*
X66398Y110181D01*
X66145D01*
X65891Y109927D01*
Y109420D01*
X66145Y109166D01*
X65891Y111705D02*
X66145Y111197D01*
X66652Y110689D01*
X67160D01*
X67414Y110943D01*
Y111451D01*
X67160Y111705D01*
X66906D01*
X66652Y111451D01*
Y110689D01*
X67414Y112213D02*
X67160D01*
Y112467D01*
X67414D01*
Y112213D01*
X66145Y113482D02*
X65891Y113736D01*
Y114244D01*
X66145Y114498D01*
X67160D01*
X67414Y114244D01*
Y113736D01*
X67160Y113482D01*
X66145D01*
Y115006D02*
X65891Y115260D01*
Y115768D01*
X66145Y116021D01*
X67160D01*
X67414Y115768D01*
Y115260D01*
X67160Y115006D01*
X66145D01*
X63145Y115666D02*
X62891Y115920D01*
Y116427D01*
X63145Y116681D01*
X63398D01*
X63652Y116427D01*
Y116174D01*
Y116427D01*
X63906Y116681D01*
X64160D01*
X64414Y116427D01*
Y115920D01*
X64160Y115666D01*
Y117189D02*
X64414Y117443D01*
Y117951D01*
X64160Y118205D01*
X63145D01*
X62891Y117951D01*
Y117443D01*
X63145Y117189D01*
X63398D01*
X63652Y117443D01*
Y118205D01*
X64414Y118713D02*
X64160D01*
Y118967D01*
X64414D01*
Y118713D01*
X63145Y119982D02*
X62891Y120236D01*
Y120744D01*
X63145Y120998D01*
X64160D01*
X64414Y120744D01*
Y120236D01*
X64160Y119982D01*
X63145D01*
Y121506D02*
X62891Y121760D01*
Y122268D01*
X63145Y122521D01*
X64160D01*
X64414Y122268D01*
Y121760D01*
X64160Y121506D01*
X63145D01*
X59891Y123181D02*
Y122166D01*
X60652D01*
X60398Y122674D01*
Y122927D01*
X60652Y123181D01*
X61160D01*
X61414Y122927D01*
Y122420D01*
X61160Y122166D01*
X61414Y124705D02*
Y123689D01*
X60398Y124705D01*
X60145D01*
X59891Y124451D01*
Y123943D01*
X60145Y123689D01*
X61414Y125213D02*
X61160D01*
Y125467D01*
X61414D01*
Y125213D01*
X60145Y126482D02*
X59891Y126736D01*
Y127244D01*
X60145Y127498D01*
X61160D01*
X61414Y127244D01*
Y126736D01*
X61160Y126482D01*
X60145D01*
Y128006D02*
X59891Y128260D01*
Y128768D01*
X60145Y129021D01*
X61160D01*
X61414Y128768D01*
Y128260D01*
X61160Y128006D01*
X60145D01*
X56891Y129181D02*
X57145Y128674D01*
X57652Y128166D01*
X58160D01*
X58414Y128420D01*
Y128927D01*
X58160Y129181D01*
X57906D01*
X57652Y128927D01*
Y128166D01*
X58414Y130451D02*
X56891D01*
X57652Y129689D01*
Y130705D01*
X58414Y131213D02*
X58160D01*
Y131467D01*
X58414D01*
Y131213D01*
X57145Y132482D02*
X56891Y132736D01*
Y133244D01*
X57145Y133498D01*
X58160D01*
X58414Y133244D01*
Y132736D01*
X58160Y132482D01*
X57145D01*
Y134006D02*
X56891Y134260D01*
Y134768D01*
X57145Y135021D01*
X58160D01*
X58414Y134768D01*
Y134260D01*
X58160Y134006D01*
X57145D01*
X53891Y135166D02*
Y136181D01*
X54145D01*
X55160Y135166D01*
X55414D01*
X54145Y136689D02*
X53891Y136943D01*
Y137451D01*
X54145Y137705D01*
X54398D01*
X54652Y137451D01*
X54906Y137705D01*
X55160D01*
X55414Y137451D01*
Y136943D01*
X55160Y136689D01*
X54906D01*
X54652Y136943D01*
X54398Y136689D01*
X54145D01*
X54652Y136943D02*
Y137451D01*
X55414Y138213D02*
X55160D01*
Y138467D01*
X55414D01*
Y138213D01*
X54145Y139482D02*
X53891Y139736D01*
Y140244D01*
X54145Y140498D01*
X55160D01*
X55414Y140244D01*
Y139736D01*
X55160Y139482D01*
X54145D01*
Y141006D02*
X53891Y141260D01*
Y141768D01*
X54145Y142021D01*
X55160D01*
X55414Y141768D01*
Y141260D01*
X55160Y141006D01*
X54145D01*
X51145Y138166D02*
X50891Y138420D01*
Y138927D01*
X51145Y139181D01*
X51398D01*
X51652Y138927D01*
X51906Y139181D01*
X52160D01*
X52414Y138927D01*
Y138420D01*
X52160Y138166D01*
X51906D01*
X51652Y138420D01*
X51398Y138166D01*
X51145D01*
X51652Y138420D02*
Y138927D01*
X52414Y140451D02*
X50891D01*
X51652Y139689D01*
Y140705D01*
X52414Y141213D02*
X52160D01*
Y141467D01*
X52414D01*
Y141213D01*
X51145Y142482D02*
X50891Y142736D01*
Y143244D01*
X51145Y143498D01*
X52160D01*
X52414Y143244D01*
Y142736D01*
X52160Y142482D01*
X51145D01*
Y144006D02*
X50891Y144260D01*
Y144768D01*
X51145Y145021D01*
X52160D01*
X52414Y144768D01*
Y144260D01*
X52160Y144006D01*
X51145D01*
X49414Y146531D02*
Y147039D01*
Y146785D01*
X47891D01*
X48145Y146531D01*
Y147801D02*
X47891Y148054D01*
Y148562D01*
X48145Y148816D01*
X49160D01*
X49414Y148562D01*
Y148054D01*
X49160Y147801D01*
X48145D01*
X49414Y150340D02*
Y149324D01*
X48398Y150340D01*
X48145D01*
X47891Y150086D01*
Y149578D01*
X48145Y149324D01*
X49414Y150848D02*
X49160D01*
Y151101D01*
X49414D01*
Y150848D01*
X48145Y152117D02*
X47891Y152371D01*
Y152879D01*
X48145Y153133D01*
X49160D01*
X49414Y152879D01*
Y152371D01*
X49160Y152117D01*
X48145D01*
Y153641D02*
X47891Y153895D01*
Y154402D01*
X48145Y154656D01*
X49160D01*
X49414Y154402D01*
Y153895D01*
X49160Y153641D01*
X48145D01*
X46414Y149531D02*
Y150039D01*
Y149785D01*
X44891D01*
X45145Y149531D01*
Y150801D02*
X44891Y151054D01*
Y151562D01*
X45145Y151816D01*
X46160D01*
X46414Y151562D01*
Y151054D01*
X46160Y150801D01*
X45145D01*
Y152324D02*
X44891Y152578D01*
Y153086D01*
X45145Y153340D01*
X45398D01*
X45652Y153086D01*
X45906Y153340D01*
X46160D01*
X46414Y153086D01*
Y152578D01*
X46160Y152324D01*
X45906D01*
X45652Y152578D01*
X45398Y152324D01*
X45145D01*
X45652Y152578D02*
Y153086D01*
X46414Y153848D02*
X46160D01*
Y154101D01*
X46414D01*
Y153848D01*
X45145Y155117D02*
X44891Y155371D01*
Y155879D01*
X45145Y156133D01*
X46160D01*
X46414Y155879D01*
Y155371D01*
X46160Y155117D01*
X45145D01*
Y156641D02*
X44891Y156895D01*
Y157402D01*
X45145Y157656D01*
X46160D01*
X46414Y157402D01*
Y156895D01*
X46160Y156641D01*
X45145D01*
X43414Y158281D02*
Y158789D01*
Y158535D01*
X41891D01*
X42145Y158281D01*
X43414Y160566D02*
Y159551D01*
X42398Y160566D01*
X42145D01*
X41891Y160312D01*
Y159804D01*
X42145Y159551D01*
X41891Y162090D02*
Y161074D01*
X42652D01*
X42398Y161582D01*
Y161836D01*
X42652Y162090D01*
X43160D01*
X43414Y161836D01*
Y161328D01*
X43160Y161074D01*
X43414Y162598D02*
X43160D01*
Y162851D01*
X43414D01*
Y162598D01*
X41891Y164883D02*
Y163867D01*
X42652D01*
X42398Y164375D01*
Y164629D01*
X42652Y164883D01*
X43160D01*
X43414Y164629D01*
Y164121D01*
X43160Y163867D01*
X42145Y165391D02*
X41891Y165645D01*
Y166152D01*
X42145Y166406D01*
X43160D01*
X43414Y166152D01*
Y165645D01*
X43160Y165391D01*
X42145D01*
X81516Y97024D02*
X80500D01*
Y96262D01*
X81008Y96516D01*
X81262D01*
X81516Y96262D01*
Y95754D01*
X81262Y95500D01*
X80754D01*
X80500Y95754D01*
X82024Y95500D02*
Y95754D01*
X82277D01*
Y95500D01*
X82024D01*
X83293Y96770D02*
X83547Y97024D01*
X84055D01*
X84309Y96770D01*
Y95754D01*
X84055Y95500D01*
X83547D01*
X83293Y95754D01*
Y96770D01*
X84817D02*
X85071Y97024D01*
X85578D01*
X85832Y96770D01*
Y96516D01*
X85578Y96262D01*
X85832Y96008D01*
Y95754D01*
X85578Y95500D01*
X85071D01*
X84817Y95754D01*
Y96008D01*
X85071Y96262D01*
X84817Y96516D01*
Y96770D01*
X85071Y96262D02*
X85578D01*
X78593Y92586D02*
X79101D01*
X78847D01*
Y94109D01*
X78593Y93855D01*
X80878Y94109D02*
X79862D01*
Y93348D01*
X80370Y93602D01*
X80624D01*
X80878Y93348D01*
Y92840D01*
X80624Y92586D01*
X80116D01*
X79862Y92840D01*
X81386Y92586D02*
Y92840D01*
X81640D01*
Y92586D01*
X81386D01*
X83417D02*
Y94109D01*
X82655Y93348D01*
X83671D01*
X84179Y93855D02*
X84433Y94109D01*
X84941D01*
X85195Y93855D01*
Y92840D01*
X84941Y92586D01*
X84433D01*
X84179Y92840D01*
Y93855D01*
X81981Y89586D02*
X80966D01*
X81981Y90602D01*
Y90855D01*
X81727Y91109D01*
X81220D01*
X80966Y90855D01*
X82489D02*
X82743Y91109D01*
X83251D01*
X83505Y90855D01*
Y89840D01*
X83251Y89586D01*
X82743D01*
X82489Y89840D01*
Y90855D01*
X84013Y89586D02*
Y89840D01*
X84267D01*
Y89586D01*
X84013D01*
X86044D02*
Y91109D01*
X85282Y90348D01*
X86298D01*
X86806Y90855D02*
X87060Y91109D01*
X87568D01*
X87821Y90855D01*
Y89840D01*
X87568Y89586D01*
X87060D01*
X86806Y89840D01*
Y90855D01*
X85966Y87855D02*
X86220Y88109D01*
X86727D01*
X86981Y87855D01*
Y87602D01*
X86727Y87348D01*
X86474D01*
X86727D01*
X86981Y87094D01*
Y86840D01*
X86727Y86586D01*
X86220D01*
X85966Y86840D01*
X87489Y87855D02*
X87743Y88109D01*
X88251D01*
X88505Y87855D01*
Y86840D01*
X88251Y86586D01*
X87743D01*
X87489Y86840D01*
Y87855D01*
X89013Y86586D02*
Y86840D01*
X89267D01*
Y86586D01*
X89013D01*
X91044D02*
Y88109D01*
X90282Y87348D01*
X91298D01*
X91806Y87855D02*
X92060Y88109D01*
X92568D01*
X92821Y87855D01*
Y86840D01*
X92568Y86586D01*
X92060D01*
X91806Y86840D01*
Y87855D01*
X88466Y84855D02*
X88720Y85109D01*
X89227D01*
X89481Y84855D01*
Y84602D01*
X89227Y84348D01*
X88974D01*
X89227D01*
X89481Y84094D01*
Y83840D01*
X89227Y83586D01*
X88720D01*
X88466Y83840D01*
X91005Y85109D02*
X89989D01*
Y84348D01*
X90497Y84602D01*
X90751D01*
X91005Y84348D01*
Y83840D01*
X90751Y83586D01*
X90243D01*
X89989Y83840D01*
X91513Y83586D02*
Y83840D01*
X91767D01*
Y83586D01*
X91513D01*
X93544D02*
Y85109D01*
X92782Y84348D01*
X93798D01*
X94306Y84855D02*
X94560Y85109D01*
X95068D01*
X95321Y84855D01*
Y83840D01*
X95068Y83586D01*
X94560D01*
X94306Y83840D01*
Y84855D01*
X94387Y80586D02*
Y82109D01*
X93626Y81348D01*
X94641D01*
X96165Y82109D02*
X95149D01*
Y81348D01*
X95657Y81602D01*
X95911D01*
X96165Y81348D01*
Y80840D01*
X95911Y80586D01*
X95403D01*
X95149Y80840D01*
X96673Y80586D02*
Y80840D01*
X96927D01*
Y80586D01*
X96673D01*
X97942Y82109D02*
X98958D01*
Y81855D01*
X97942Y80840D01*
Y80586D01*
X100481D02*
X99466D01*
X100481Y81602D01*
Y81855D01*
X100228Y82109D01*
X99720D01*
X99466Y81855D01*
X77593Y230586D02*
X78101D01*
X77847D01*
Y232109D01*
X77593Y231855D01*
X78862D02*
X79116Y232109D01*
X79624D01*
X79878Y231855D01*
Y231602D01*
X79624Y231348D01*
X79370D01*
X79624D01*
X79878Y231094D01*
Y230840D01*
X79624Y230586D01*
X79116D01*
X78862Y230840D01*
X80386Y230586D02*
Y230840D01*
X80640D01*
Y230586D01*
X80386D01*
X82417D02*
Y232109D01*
X81655Y231348D01*
X82671D01*
X83179Y231855D02*
X83433Y232109D01*
X83941D01*
X84195Y231855D01*
Y230840D01*
X83941Y230586D01*
X83433D01*
X83179Y230840D01*
Y231855D01*
X89466Y234855D02*
X89720Y235109D01*
X90227D01*
X90481Y234855D01*
Y234602D01*
X90227Y234348D01*
X89974D01*
X90227D01*
X90481Y234094D01*
Y233840D01*
X90227Y233586D01*
X89720D01*
X89466Y233840D01*
X90989Y235109D02*
X92005D01*
Y234855D01*
X90989Y233840D01*
Y233586D01*
X92513D02*
Y233840D01*
X92767D01*
Y233586D01*
X92513D01*
X94544D02*
Y235109D01*
X93782Y234348D01*
X94798D01*
X95306Y234855D02*
X95560Y235109D01*
X96068D01*
X96321Y234855D01*
Y233840D01*
X96068Y233586D01*
X95560D01*
X95306Y233840D01*
Y234855D01*
X71730Y104000D02*
X71476Y104254D01*
Y104762D01*
X71730Y105016D01*
X71984D01*
X72238Y104762D01*
Y104508D01*
Y104762D01*
X72492Y105016D01*
X72746D01*
X73000Y104762D01*
Y104254D01*
X72746Y104000D01*
X73000Y105524D02*
X72746D01*
Y105777D01*
X73000D01*
Y105524D01*
X71730Y106793D02*
X71476Y107047D01*
Y107555D01*
X71730Y107809D01*
X72746D01*
X73000Y107555D01*
Y107047D01*
X72746Y106793D01*
X71730D01*
Y108317D02*
X71476Y108571D01*
Y109078D01*
X71730Y109332D01*
X72746D01*
X73000Y109078D01*
Y108571D01*
X72746Y108317D01*
X71730D01*
M02*
