G04 Layer_Physical_Order=3*
G04 Layer_Color=16440176*
%FSLAX43Y43*%
%MOMM*%
G71*
G01*
G75*
%ADD11R,2.300X2.300*%
%ADD12R,2.300X2.300*%
%ADD13C,2.000*%
%ADD14O,1.800X2.800*%
%ADD17R,3.700X2.000*%
%ADD18C,0.800*%
%ADD19C,0.600*%
G36*
X119750Y108500D02*
X80250D01*
Y220000D01*
X119750D01*
Y108500D01*
D02*
G37*
%LPC*%
G36*
X104200Y138800D02*
X103190D01*
Y138500D01*
X103231Y138187D01*
X103352Y137895D01*
X103544Y137644D01*
X103795Y137452D01*
X104087Y137331D01*
X104200Y137316D01*
Y138800D01*
D02*
G37*
G36*
X96810Y138800D02*
X95800D01*
Y137316D01*
X95913Y137331D01*
X96205Y137452D01*
X96456Y137644D01*
X96648Y137895D01*
X96769Y138187D01*
X96810Y138500D01*
Y138800D01*
D02*
G37*
G36*
X85100Y140609D02*
X84813Y140572D01*
X84545Y140461D01*
X84315Y140285D01*
X84139Y140055D01*
X84028Y139787D01*
X83991Y139500D01*
Y138500D01*
X84028Y138213D01*
X84139Y137945D01*
X84315Y137715D01*
X84545Y137539D01*
X84813Y137428D01*
X85100Y137391D01*
X85387Y137428D01*
X85655Y137539D01*
X85885Y137715D01*
X86061Y137945D01*
X86172Y138213D01*
X86209Y138500D01*
Y139500D01*
X86172Y139787D01*
X86061Y140055D01*
X85885Y140285D01*
X85655Y140461D01*
X85387Y140572D01*
X85100Y140609D01*
D02*
G37*
G36*
X104200Y127684D02*
X104087Y127669D01*
X103795Y127548D01*
X103544Y127356D01*
X103352Y127105D01*
X103231Y126813D01*
X103190Y126500D01*
Y126200D01*
X104200D01*
Y127684D01*
D02*
G37*
G36*
X95800D02*
Y126200D01*
X96810D01*
Y126500D01*
X96769Y126813D01*
X96648Y127105D01*
X96456Y127356D01*
X96205Y127548D01*
X95913Y127669D01*
X95800Y127684D01*
D02*
G37*
G36*
X95400D02*
X95287Y127669D01*
X94995Y127548D01*
X94744Y127356D01*
X94552Y127105D01*
X94509Y127003D01*
X94382D01*
X94361Y127055D01*
X94185Y127285D01*
X93955Y127461D01*
X93687Y127572D01*
X93400Y127609D01*
X93113Y127572D01*
X92845Y127461D01*
X92615Y127285D01*
X92439Y127055D01*
X92328Y126787D01*
X92291Y126500D01*
Y125500D01*
X92328Y125213D01*
X92439Y124945D01*
X92615Y124715D01*
X92845Y124539D01*
X93113Y124428D01*
X93400Y124391D01*
X93687Y124428D01*
X93955Y124539D01*
X94185Y124715D01*
X94361Y124945D01*
X94382Y124997D01*
X94509D01*
X94552Y124895D01*
X94744Y124644D01*
X94995Y124452D01*
X95287Y124331D01*
X95400Y124316D01*
Y126000D01*
Y127684D01*
D02*
G37*
G36*
X104600Y140684D02*
Y139000D01*
Y137316D01*
X104713Y137331D01*
X105005Y137452D01*
X105256Y137644D01*
X105448Y137895D01*
X105491Y137997D01*
X105618D01*
X105639Y137945D01*
X105815Y137715D01*
X106045Y137539D01*
X106313Y137428D01*
X106600Y137391D01*
X106887Y137428D01*
X107155Y137539D01*
X107385Y137715D01*
X107561Y137945D01*
X107672Y138213D01*
X107709Y138500D01*
Y139500D01*
X107672Y139787D01*
X107561Y140055D01*
X107385Y140285D01*
X107155Y140461D01*
X106887Y140572D01*
X106600Y140609D01*
X106313Y140572D01*
X106045Y140461D01*
X105815Y140285D01*
X105639Y140055D01*
X105618Y140003D01*
X105491D01*
X105448Y140105D01*
X105256Y140356D01*
X105005Y140548D01*
X104713Y140669D01*
X104600Y140684D01*
D02*
G37*
G36*
X95400D02*
X95287Y140669D01*
X94995Y140548D01*
X94744Y140356D01*
X94552Y140105D01*
X94509Y140003D01*
X94382D01*
X94361Y140055D01*
X94185Y140285D01*
X93955Y140461D01*
X93687Y140572D01*
X93400Y140609D01*
X93113Y140572D01*
X92845Y140461D01*
X92615Y140285D01*
X92439Y140055D01*
X92328Y139787D01*
X92291Y139500D01*
Y138500D01*
X92328Y138213D01*
X92439Y137945D01*
X92615Y137715D01*
X92845Y137539D01*
X93113Y137428D01*
X93400Y137391D01*
X93687Y137428D01*
X93955Y137539D01*
X94185Y137715D01*
X94361Y137945D01*
X94382Y137997D01*
X94509D01*
X94552Y137895D01*
X94744Y137644D01*
X94995Y137452D01*
X95287Y137331D01*
X95400Y137316D01*
Y139000D01*
Y140684D01*
D02*
G37*
G36*
X104200Y151800D02*
X103190D01*
Y151500D01*
X103231Y151187D01*
X103352Y150895D01*
X103544Y150644D01*
X103795Y150452D01*
X104087Y150331D01*
X104200Y150316D01*
Y151800D01*
D02*
G37*
G36*
X96810Y151800D02*
X95800D01*
Y150316D01*
X95913Y150331D01*
X96205Y150452D01*
X96456Y150644D01*
X96648Y150895D01*
X96769Y151187D01*
X96810Y151500D01*
Y151800D01*
D02*
G37*
G36*
X114900Y140609D02*
X114613Y140572D01*
X114345Y140461D01*
X114115Y140285D01*
X113939Y140055D01*
X113828Y139787D01*
X113791Y139500D01*
Y138500D01*
X113828Y138213D01*
X113939Y137945D01*
X114115Y137715D01*
X114345Y137539D01*
X114613Y137428D01*
X114900Y137391D01*
X115187Y137428D01*
X115455Y137539D01*
X115685Y137715D01*
X115861Y137945D01*
X115972Y138213D01*
X116009Y138500D01*
Y139500D01*
X115972Y139787D01*
X115861Y140055D01*
X115685Y140285D01*
X115455Y140461D01*
X115187Y140572D01*
X114900Y140609D01*
D02*
G37*
G36*
X104200Y140684D02*
X104087Y140669D01*
X103795Y140548D01*
X103544Y140356D01*
X103352Y140105D01*
X103231Y139813D01*
X103190Y139500D01*
Y139200D01*
X104200D01*
Y140684D01*
D02*
G37*
G36*
X95800Y140684D02*
Y139200D01*
X96810D01*
Y139500D01*
X96769Y139813D01*
X96648Y140105D01*
X96456Y140356D01*
X96205Y140548D01*
X95913Y140669D01*
X95800Y140684D01*
D02*
G37*
G36*
X114900Y127609D02*
X114613Y127572D01*
X114345Y127461D01*
X114115Y127285D01*
X113939Y127055D01*
X113828Y126787D01*
X113791Y126500D01*
Y125500D01*
X113828Y125213D01*
X113939Y124945D01*
X114115Y124715D01*
X114345Y124539D01*
X114613Y124428D01*
X114900Y124391D01*
X115187Y124428D01*
X115455Y124539D01*
X115685Y124715D01*
X115861Y124945D01*
X115972Y125213D01*
X116009Y125500D01*
Y126500D01*
X115972Y126787D01*
X115861Y127055D01*
X115685Y127285D01*
X115455Y127461D01*
X115187Y127572D01*
X114900Y127609D01*
D02*
G37*
G36*
X104600Y114684D02*
Y113000D01*
Y111316D01*
X104713Y111331D01*
X105005Y111452D01*
X105256Y111644D01*
X105448Y111895D01*
X105491Y111997D01*
X105618D01*
X105639Y111945D01*
X105815Y111715D01*
X106045Y111539D01*
X106313Y111428D01*
X106600Y111391D01*
X106887Y111428D01*
X107155Y111539D01*
X107385Y111715D01*
X107561Y111945D01*
X107672Y112213D01*
X107709Y112500D01*
Y113500D01*
X107672Y113787D01*
X107561Y114055D01*
X107385Y114285D01*
X107155Y114461D01*
X106887Y114572D01*
X106600Y114609D01*
X106313Y114572D01*
X106045Y114461D01*
X105815Y114285D01*
X105639Y114055D01*
X105618Y114003D01*
X105491D01*
X105448Y114105D01*
X105256Y114356D01*
X105005Y114548D01*
X104713Y114669D01*
X104600Y114684D01*
D02*
G37*
G36*
X114900Y114609D02*
X114613Y114572D01*
X114345Y114461D01*
X114115Y114285D01*
X113939Y114055D01*
X113828Y113787D01*
X113791Y113500D01*
Y112500D01*
X113828Y112213D01*
X113939Y111945D01*
X114115Y111715D01*
X114345Y111539D01*
X114613Y111428D01*
X114900Y111391D01*
X115187Y111428D01*
X115455Y111539D01*
X115685Y111715D01*
X115861Y111945D01*
X115972Y112213D01*
X116009Y112500D01*
Y113500D01*
X115972Y113787D01*
X115861Y114055D01*
X115685Y114285D01*
X115455Y114461D01*
X115187Y114572D01*
X114900Y114609D01*
D02*
G37*
G36*
X104200Y114684D02*
X104087Y114669D01*
X103795Y114548D01*
X103544Y114356D01*
X103352Y114105D01*
X103231Y113813D01*
X103190Y113500D01*
Y113200D01*
X104200D01*
Y114684D01*
D02*
G37*
G36*
Y112800D02*
X103190D01*
Y112500D01*
X103231Y112187D01*
X103352Y111895D01*
X103544Y111644D01*
X103795Y111452D01*
X104087Y111331D01*
X104200Y111316D01*
Y112800D01*
D02*
G37*
G36*
X96810Y112800D02*
X95800D01*
Y111316D01*
X95913Y111331D01*
X96205Y111452D01*
X96456Y111644D01*
X96648Y111895D01*
X96769Y112187D01*
X96810Y112500D01*
Y112800D01*
D02*
G37*
G36*
X85100Y114609D02*
X84813Y114572D01*
X84545Y114461D01*
X84315Y114285D01*
X84139Y114055D01*
X84028Y113787D01*
X83991Y113500D01*
Y112500D01*
X84028Y112213D01*
X84139Y111945D01*
X84315Y111715D01*
X84545Y111539D01*
X84813Y111428D01*
X85100Y111391D01*
X85387Y111428D01*
X85655Y111539D01*
X85885Y111715D01*
X86061Y111945D01*
X86172Y112213D01*
X86209Y112500D01*
Y113500D01*
X86172Y113787D01*
X86061Y114055D01*
X85885Y114285D01*
X85655Y114461D01*
X85387Y114572D01*
X85100Y114609D01*
D02*
G37*
G36*
X95800Y114684D02*
Y113200D01*
X96810D01*
Y113500D01*
X96769Y113813D01*
X96648Y114105D01*
X96456Y114356D01*
X96205Y114548D01*
X95913Y114669D01*
X95800Y114684D01*
D02*
G37*
G36*
X96810Y125800D02*
X95800D01*
Y124316D01*
X95913Y124331D01*
X96205Y124452D01*
X96456Y124644D01*
X96648Y124895D01*
X96769Y125187D01*
X96810Y125500D01*
Y125800D01*
D02*
G37*
G36*
X85100Y127609D02*
X84813Y127572D01*
X84545Y127461D01*
X84315Y127285D01*
X84139Y127055D01*
X84028Y126787D01*
X83991Y126500D01*
Y125500D01*
X84028Y125213D01*
X84139Y124945D01*
X84315Y124715D01*
X84545Y124539D01*
X84813Y124428D01*
X85100Y124391D01*
X85387Y124428D01*
X85655Y124539D01*
X85885Y124715D01*
X86061Y124945D01*
X86172Y125213D01*
X86209Y125500D01*
Y126500D01*
X86172Y126787D01*
X86061Y127055D01*
X85885Y127285D01*
X85655Y127461D01*
X85387Y127572D01*
X85100Y127609D01*
D02*
G37*
G36*
X104600Y127684D02*
Y126000D01*
Y124316D01*
X104713Y124331D01*
X105005Y124452D01*
X105256Y124644D01*
X105448Y124895D01*
X105491Y124997D01*
X105618D01*
X105639Y124945D01*
X105815Y124715D01*
X106045Y124539D01*
X106313Y124428D01*
X106600Y124391D01*
X106887Y124428D01*
X107155Y124539D01*
X107385Y124715D01*
X107561Y124945D01*
X107672Y125213D01*
X107709Y125500D01*
Y126500D01*
X107672Y126787D01*
X107561Y127055D01*
X107385Y127285D01*
X107155Y127461D01*
X106887Y127572D01*
X106600Y127609D01*
X106313Y127572D01*
X106045Y127461D01*
X105815Y127285D01*
X105639Y127055D01*
X105618Y127003D01*
X105491D01*
X105448Y127105D01*
X105256Y127356D01*
X105005Y127548D01*
X104713Y127669D01*
X104600Y127684D01*
D02*
G37*
G36*
X95400Y114684D02*
X95287Y114669D01*
X94995Y114548D01*
X94744Y114356D01*
X94552Y114105D01*
X94509Y114003D01*
X94382D01*
X94361Y114055D01*
X94185Y114285D01*
X93955Y114461D01*
X93687Y114572D01*
X93400Y114609D01*
X93113Y114572D01*
X92845Y114461D01*
X92615Y114285D01*
X92439Y114055D01*
X92328Y113787D01*
X92291Y113500D01*
Y112500D01*
X92328Y112213D01*
X92439Y111945D01*
X92615Y111715D01*
X92845Y111539D01*
X93113Y111428D01*
X93400Y111391D01*
X93687Y111428D01*
X93955Y111539D01*
X94185Y111715D01*
X94361Y111945D01*
X94382Y111997D01*
X94509D01*
X94552Y111895D01*
X94744Y111644D01*
X94995Y111452D01*
X95287Y111331D01*
X95400Y111316D01*
Y113000D01*
Y114684D01*
D02*
G37*
G36*
X110250Y121112D02*
X110211Y121104D01*
X109539D01*
X109500Y121112D01*
X109461Y121104D01*
X108789D01*
X108750Y121112D01*
X108711Y121104D01*
X108350D01*
X108272Y121088D01*
X108206Y121044D01*
X108162Y120978D01*
X108146Y120900D01*
Y120539D01*
X108138Y120500D01*
X108146Y120461D01*
Y119789D01*
X108138Y119750D01*
X108146Y119711D01*
Y119039D01*
X108138Y119000D01*
X108146Y118961D01*
Y118600D01*
X108162Y118522D01*
X108206Y118456D01*
X108272Y118412D01*
X108350Y118396D01*
X108711D01*
X108750Y118388D01*
X108789Y118396D01*
X109461D01*
X109500Y118388D01*
X109539Y118396D01*
X110211D01*
X110250Y118388D01*
X110289Y118396D01*
X110650D01*
X110728Y118412D01*
X110794Y118456D01*
X110838Y118522D01*
X110854Y118600D01*
Y118961D01*
X110862Y119000D01*
X110854Y119039D01*
Y119711D01*
X110862Y119750D01*
X110854Y119789D01*
Y120461D01*
X110862Y120500D01*
X110854Y120539D01*
Y120900D01*
X110838Y120978D01*
X110794Y121044D01*
X110728Y121088D01*
X110650Y121104D01*
X110289D01*
X110250Y121112D01*
D02*
G37*
G36*
X104200Y125800D02*
X103190D01*
Y125500D01*
X103231Y125187D01*
X103352Y124895D01*
X103544Y124644D01*
X103795Y124452D01*
X104087Y124331D01*
X104200Y124316D01*
Y125800D01*
D02*
G37*
G36*
X85100Y153609D02*
X84813Y153572D01*
X84545Y153461D01*
X84315Y153285D01*
X84139Y153055D01*
X84028Y152787D01*
X83991Y152500D01*
Y151500D01*
X84028Y151213D01*
X84139Y150945D01*
X84315Y150715D01*
X84545Y150539D01*
X84813Y150428D01*
X85100Y150391D01*
X85387Y150428D01*
X85655Y150539D01*
X85885Y150715D01*
X86061Y150945D01*
X86172Y151213D01*
X86209Y151500D01*
Y152500D01*
X86172Y152787D01*
X86061Y153055D01*
X85885Y153285D01*
X85655Y153461D01*
X85387Y153572D01*
X85100Y153609D01*
D02*
G37*
G36*
X107250Y186412D02*
X106780Y186365D01*
X106327Y186228D01*
X105910Y186005D01*
X105545Y185705D01*
X105245Y185340D01*
X105022Y184923D01*
X104885Y184470D01*
X104838Y184000D01*
X104885Y183530D01*
X105022Y183077D01*
X105245Y182660D01*
X105545Y182295D01*
X105910Y181995D01*
X106327Y181772D01*
X106780Y181635D01*
X107250Y181588D01*
X107720Y181635D01*
X108173Y181772D01*
X108590Y181995D01*
X108955Y182295D01*
X109255Y182660D01*
X109478Y183077D01*
X109615Y183530D01*
X109662Y184000D01*
X109615Y184470D01*
X109478Y184923D01*
X109255Y185340D01*
X108955Y185705D01*
X108590Y186005D01*
X108173Y186228D01*
X107720Y186365D01*
X107250Y186412D01*
D02*
G37*
G36*
X116750D02*
X116280Y186365D01*
X115827Y186228D01*
X115410Y186005D01*
X115045Y185705D01*
X114745Y185340D01*
X114522Y184923D01*
X114385Y184470D01*
X114338Y184000D01*
X114385Y183530D01*
X114522Y183077D01*
X114745Y182660D01*
X115045Y182295D01*
X115410Y181995D01*
X115827Y181772D01*
X116280Y181635D01*
X116750Y181588D01*
X117220Y181635D01*
X117673Y181772D01*
X118090Y181995D01*
X118455Y182295D01*
X118755Y182660D01*
X118978Y183077D01*
X119115Y183530D01*
X119162Y184000D01*
X119115Y184470D01*
X118978Y184923D01*
X118755Y185340D01*
X118455Y185705D01*
X118090Y186005D01*
X117673Y186228D01*
X117220Y186365D01*
X116750Y186412D01*
D02*
G37*
G36*
X101270Y190040D02*
X100957Y189999D01*
X100665Y189878D01*
X100414Y189686D01*
X100222Y189435D01*
X100101Y189143D01*
X100072Y188920D01*
X100064Y188863D01*
X99936D01*
X99928Y188920D01*
X99899Y189143D01*
X99778Y189435D01*
X99586Y189686D01*
X99335Y189878D01*
X99043Y189999D01*
X98730Y190040D01*
X98417Y189999D01*
X98125Y189878D01*
X97874Y189686D01*
X97682Y189435D01*
X97561Y189143D01*
X97520Y188830D01*
X97561Y188517D01*
X97682Y188225D01*
X97874Y187974D01*
X98125Y187782D01*
X98370Y187680D01*
X98378Y187631D01*
X98364Y187545D01*
X98074Y187426D01*
X97803Y187217D01*
X97594Y186946D01*
X97463Y186629D01*
X97445Y186490D01*
X98730D01*
Y186090D01*
X97445D01*
X97463Y185951D01*
X97594Y185634D01*
X97803Y185363D01*
X98074Y185154D01*
X98233Y185089D01*
Y184951D01*
X98074Y184886D01*
X97803Y184677D01*
X97594Y184406D01*
X97463Y184089D01*
X97445Y183950D01*
X98730D01*
Y183550D01*
X97445D01*
X97463Y183411D01*
X97594Y183094D01*
X97803Y182823D01*
X98074Y182614D01*
X98233Y182549D01*
Y182411D01*
X98074Y182346D01*
X97803Y182137D01*
X97594Y181866D01*
X97463Y181549D01*
X97445Y181410D01*
X98730D01*
Y181010D01*
X97445D01*
X97463Y180871D01*
X97594Y180554D01*
X97803Y180283D01*
X98074Y180074D01*
X98364Y179955D01*
X98378Y179869D01*
X98370Y179820D01*
X98125Y179718D01*
X97874Y179526D01*
X97682Y179275D01*
X97561Y178983D01*
X97520Y178670D01*
X97561Y178357D01*
X97682Y178065D01*
X97874Y177814D01*
X98125Y177622D01*
X98417Y177501D01*
X98730Y177460D01*
X99043Y177501D01*
X99335Y177622D01*
X99586Y177814D01*
X99778Y178065D01*
X99899Y178357D01*
X99928Y178580D01*
X99936Y178637D01*
X100064D01*
X100072Y178580D01*
X100101Y178357D01*
X100222Y178065D01*
X100414Y177814D01*
X100665Y177622D01*
X100957Y177501D01*
X101270Y177460D01*
X101583Y177501D01*
X101875Y177622D01*
X102126Y177814D01*
X102318Y178065D01*
X102439Y178357D01*
X102480Y178670D01*
X102439Y178983D01*
X102318Y179275D01*
X102126Y179526D01*
X101875Y179718D01*
X101630Y179820D01*
X101622Y179869D01*
X101636Y179955D01*
X101926Y180074D01*
X102197Y180283D01*
X102406Y180554D01*
X102537Y180871D01*
X102555Y181010D01*
X101270D01*
Y181410D01*
X102555D01*
X102537Y181549D01*
X102406Y181866D01*
X102197Y182137D01*
X101926Y182346D01*
X101767Y182411D01*
Y182549D01*
X101926Y182614D01*
X102197Y182823D01*
X102406Y183094D01*
X102537Y183411D01*
X102555Y183550D01*
X101270D01*
Y183950D01*
X102555D01*
X102537Y184089D01*
X102406Y184406D01*
X102197Y184677D01*
X101926Y184886D01*
X101767Y184951D01*
Y185089D01*
X101926Y185154D01*
X102197Y185363D01*
X102406Y185634D01*
X102537Y185951D01*
X102555Y186090D01*
X101270D01*
Y186490D01*
X102555D01*
X102537Y186629D01*
X102406Y186946D01*
X102197Y187217D01*
X101926Y187426D01*
X101636Y187545D01*
X101622Y187631D01*
X101630Y187680D01*
X101875Y187782D01*
X102126Y187974D01*
X102318Y188225D01*
X102439Y188517D01*
X102480Y188830D01*
X102439Y189143D01*
X102318Y189435D01*
X102126Y189686D01*
X101875Y189878D01*
X101583Y189999D01*
X101270Y190040D01*
D02*
G37*
G36*
X92750Y186412D02*
X92280Y186365D01*
X91827Y186228D01*
X91410Y186005D01*
X91045Y185705D01*
X90745Y185340D01*
X90522Y184923D01*
X90385Y184470D01*
X90338Y184000D01*
X90385Y183530D01*
X90522Y183077D01*
X90745Y182660D01*
X91045Y182295D01*
X91410Y181995D01*
X91827Y181772D01*
X92280Y181635D01*
X92750Y181588D01*
X93220Y181635D01*
X93673Y181772D01*
X94090Y181995D01*
X94455Y182295D01*
X94755Y182660D01*
X94978Y183077D01*
X95115Y183530D01*
X95162Y184000D01*
X95115Y184470D01*
X94978Y184923D01*
X94755Y185340D01*
X94455Y185705D01*
X94090Y186005D01*
X93673Y186228D01*
X93220Y186365D01*
X92750Y186412D01*
D02*
G37*
G36*
X90500Y177710D02*
X90187Y177669D01*
X89895Y177548D01*
X89644Y177356D01*
X89452Y177105D01*
X89331Y176813D01*
X89314Y176685D01*
X89186D01*
X89169Y176813D01*
X89048Y177105D01*
X88856Y177356D01*
X88605Y177548D01*
X88313Y177669D01*
X88000Y177710D01*
X87687Y177669D01*
X87395Y177548D01*
X87144Y177356D01*
X86952Y177105D01*
X86831Y176813D01*
X86814Y176685D01*
X86686D01*
X86669Y176813D01*
X86548Y177105D01*
X86356Y177356D01*
X86105Y177548D01*
X85813Y177669D01*
X85500Y177710D01*
X85187Y177669D01*
X84895Y177548D01*
X84644Y177356D01*
X84452Y177105D01*
X84331Y176813D01*
X84290Y176500D01*
X84331Y176187D01*
X84452Y175895D01*
X84644Y175644D01*
X84895Y175452D01*
X85187Y175331D01*
X85500Y175290D01*
X85813Y175331D01*
X86105Y175452D01*
X86356Y175644D01*
X86548Y175895D01*
X86669Y176187D01*
X86686Y176315D01*
X86814D01*
X86831Y176187D01*
X86952Y175895D01*
X87144Y175644D01*
X87395Y175452D01*
X87687Y175331D01*
X88000Y175290D01*
X88313Y175331D01*
X88605Y175452D01*
X88856Y175644D01*
X89048Y175895D01*
X89169Y176187D01*
X89186Y176315D01*
X89314D01*
X89331Y176187D01*
X89452Y175895D01*
X89644Y175644D01*
X89895Y175452D01*
X90187Y175331D01*
X90500Y175290D01*
X90813Y175331D01*
X91105Y175452D01*
X91356Y175644D01*
X91548Y175895D01*
X91669Y176187D01*
X91710Y176500D01*
X91669Y176813D01*
X91548Y177105D01*
X91356Y177356D01*
X91105Y177548D01*
X90813Y177669D01*
X90500Y177710D01*
D02*
G37*
G36*
X114500D02*
X114187Y177669D01*
X113895Y177548D01*
X113644Y177356D01*
X113452Y177105D01*
X113331Y176813D01*
X113314Y176685D01*
X113186D01*
X113169Y176813D01*
X113048Y177105D01*
X112856Y177356D01*
X112605Y177548D01*
X112313Y177669D01*
X112000Y177710D01*
X111687Y177669D01*
X111395Y177548D01*
X111144Y177356D01*
X110952Y177105D01*
X110831Y176813D01*
X110814Y176685D01*
X110686D01*
X110669Y176813D01*
X110548Y177105D01*
X110356Y177356D01*
X110105Y177548D01*
X109813Y177669D01*
X109500Y177710D01*
X109187Y177669D01*
X108895Y177548D01*
X108644Y177356D01*
X108452Y177105D01*
X108331Y176813D01*
X108290Y176500D01*
X108331Y176187D01*
X108452Y175895D01*
X108644Y175644D01*
X108895Y175452D01*
X109187Y175331D01*
X109500Y175290D01*
X109813Y175331D01*
X110105Y175452D01*
X110356Y175644D01*
X110548Y175895D01*
X110669Y176187D01*
X110686Y176315D01*
X110814D01*
X110831Y176187D01*
X110952Y175895D01*
X111144Y175644D01*
X111395Y175452D01*
X111687Y175331D01*
X112000Y175290D01*
X112313Y175331D01*
X112605Y175452D01*
X112856Y175644D01*
X113048Y175895D01*
X113169Y176187D01*
X113186Y176315D01*
X113314D01*
X113331Y176187D01*
X113452Y175895D01*
X113644Y175644D01*
X113895Y175452D01*
X114187Y175331D01*
X114500Y175290D01*
X114813Y175331D01*
X115105Y175452D01*
X115356Y175644D01*
X115548Y175895D01*
X115669Y176187D01*
X115710Y176500D01*
X115669Y176813D01*
X115548Y177105D01*
X115356Y177356D01*
X115105Y177548D01*
X114813Y177669D01*
X114500Y177710D01*
D02*
G37*
G36*
X83250Y186412D02*
X82780Y186365D01*
X82327Y186228D01*
X81910Y186005D01*
X81545Y185705D01*
X81245Y185340D01*
X81022Y184923D01*
X80885Y184470D01*
X80838Y184000D01*
X80885Y183530D01*
X81022Y183077D01*
X81245Y182660D01*
X81545Y182295D01*
X81910Y181995D01*
X82327Y181772D01*
X82780Y181635D01*
X83250Y181588D01*
X83720Y181635D01*
X84173Y181772D01*
X84590Y181995D01*
X84955Y182295D01*
X85255Y182660D01*
X85478Y183077D01*
X85615Y183530D01*
X85662Y184000D01*
X85615Y184470D01*
X85478Y184923D01*
X85255Y185340D01*
X84955Y185705D01*
X84590Y186005D01*
X84173Y186228D01*
X83720Y186365D01*
X83250Y186412D01*
D02*
G37*
G36*
X92750Y210412D02*
X92280Y210365D01*
X91827Y210228D01*
X91410Y210005D01*
X91045Y209705D01*
X90745Y209340D01*
X90522Y208923D01*
X90385Y208470D01*
X90338Y208000D01*
X90385Y207530D01*
X90522Y207077D01*
X90745Y206660D01*
X91045Y206295D01*
X91410Y205995D01*
X91827Y205772D01*
X92280Y205635D01*
X92750Y205588D01*
X93220Y205635D01*
X93673Y205772D01*
X94090Y205995D01*
X94455Y206295D01*
X94755Y206660D01*
X94978Y207077D01*
X95115Y207530D01*
X95162Y208000D01*
X95115Y208470D01*
X94978Y208923D01*
X94755Y209340D01*
X94455Y209705D01*
X94090Y210005D01*
X93673Y210228D01*
X93220Y210365D01*
X92750Y210412D01*
D02*
G37*
G36*
X107250D02*
X106780Y210365D01*
X106327Y210228D01*
X105910Y210005D01*
X105545Y209705D01*
X105245Y209340D01*
X105022Y208923D01*
X104885Y208470D01*
X104838Y208000D01*
X104885Y207530D01*
X105022Y207077D01*
X105245Y206660D01*
X105545Y206295D01*
X105910Y205995D01*
X106327Y205772D01*
X106780Y205635D01*
X107250Y205588D01*
X107720Y205635D01*
X108173Y205772D01*
X108590Y205995D01*
X108955Y206295D01*
X109255Y206660D01*
X109478Y207077D01*
X109615Y207530D01*
X109662Y208000D01*
X109615Y208470D01*
X109478Y208923D01*
X109255Y209340D01*
X108955Y209705D01*
X108590Y210005D01*
X108173Y210228D01*
X107720Y210365D01*
X107250Y210412D01*
D02*
G37*
G36*
X116750D02*
X116280Y210365D01*
X115827Y210228D01*
X115410Y210005D01*
X115045Y209705D01*
X114745Y209340D01*
X114522Y208923D01*
X114385Y208470D01*
X114338Y208000D01*
X114385Y207530D01*
X114522Y207077D01*
X114745Y206660D01*
X115045Y206295D01*
X115410Y205995D01*
X115827Y205772D01*
X116280Y205635D01*
X116750Y205588D01*
X117220Y205635D01*
X117673Y205772D01*
X118090Y205995D01*
X118455Y206295D01*
X118755Y206660D01*
X118978Y207077D01*
X119115Y207530D01*
X119162Y208000D01*
X119115Y208470D01*
X118978Y208923D01*
X118755Y209340D01*
X118455Y209705D01*
X118090Y210005D01*
X117673Y210228D01*
X117220Y210365D01*
X116750Y210412D01*
D02*
G37*
G36*
X83250D02*
X82780Y210365D01*
X82327Y210228D01*
X81910Y210005D01*
X81545Y209705D01*
X81245Y209340D01*
X81022Y208923D01*
X80885Y208470D01*
X80838Y208000D01*
X80885Y207530D01*
X81022Y207077D01*
X81245Y206660D01*
X81545Y206295D01*
X81910Y205995D01*
X82327Y205772D01*
X82780Y205635D01*
X83250Y205588D01*
X83720Y205635D01*
X84173Y205772D01*
X84590Y205995D01*
X84955Y206295D01*
X85255Y206660D01*
X85478Y207077D01*
X85615Y207530D01*
X85662Y208000D01*
X85615Y208470D01*
X85478Y208923D01*
X85255Y209340D01*
X84955Y209705D01*
X84590Y210005D01*
X84173Y210228D01*
X83720Y210365D01*
X83250Y210412D01*
D02*
G37*
G36*
X107250Y197862D02*
X107211Y197854D01*
X106539D01*
X106500Y197862D01*
X106461Y197854D01*
X105789D01*
X105750Y197862D01*
X105711Y197854D01*
X105350D01*
X105272Y197838D01*
X105206Y197794D01*
X105162Y197728D01*
X105146Y197650D01*
Y197289D01*
X105138Y197250D01*
X105146Y197211D01*
Y196539D01*
X105138Y196500D01*
X105146Y196461D01*
Y195789D01*
X105138Y195750D01*
X105146Y195711D01*
Y195350D01*
X105162Y195272D01*
X105206Y195206D01*
X105272Y195162D01*
X105350Y195146D01*
X105711D01*
X105750Y195138D01*
X105789Y195146D01*
X106461D01*
X106500Y195138D01*
X106539Y195146D01*
X107211D01*
X107250Y195138D01*
X107289Y195146D01*
X107650D01*
X107728Y195162D01*
X107794Y195206D01*
X107838Y195272D01*
X107854Y195350D01*
Y195711D01*
X107862Y195750D01*
X107854Y195789D01*
Y196461D01*
X107862Y196500D01*
X107854Y196539D01*
Y197211D01*
X107862Y197250D01*
X107854Y197289D01*
Y197650D01*
X107838Y197728D01*
X107794Y197794D01*
X107728Y197838D01*
X107650Y197854D01*
X107289D01*
X107250Y197862D01*
D02*
G37*
G36*
X90500Y201710D02*
X90187Y201669D01*
X89895Y201548D01*
X89644Y201356D01*
X89452Y201105D01*
X89331Y200813D01*
X89314Y200685D01*
X89186D01*
X89169Y200813D01*
X89048Y201105D01*
X88856Y201356D01*
X88605Y201548D01*
X88313Y201669D01*
X88000Y201710D01*
X87687Y201669D01*
X87395Y201548D01*
X87144Y201356D01*
X86952Y201105D01*
X86831Y200813D01*
X86814Y200685D01*
X86686D01*
X86669Y200813D01*
X86548Y201105D01*
X86356Y201356D01*
X86105Y201548D01*
X85813Y201669D01*
X85500Y201710D01*
X85187Y201669D01*
X84895Y201548D01*
X84644Y201356D01*
X84452Y201105D01*
X84331Y200813D01*
X84290Y200500D01*
X84331Y200187D01*
X84452Y199895D01*
X84644Y199644D01*
X84895Y199452D01*
X85187Y199331D01*
X85500Y199290D01*
X85813Y199331D01*
X86105Y199452D01*
X86356Y199644D01*
X86548Y199895D01*
X86669Y200187D01*
X86686Y200315D01*
X86814D01*
X86831Y200187D01*
X86952Y199895D01*
X87144Y199644D01*
X87395Y199452D01*
X87687Y199331D01*
X88000Y199290D01*
X88313Y199331D01*
X88605Y199452D01*
X88856Y199644D01*
X89048Y199895D01*
X89169Y200187D01*
X89186Y200315D01*
X89314D01*
X89331Y200187D01*
X89452Y199895D01*
X89644Y199644D01*
X89895Y199452D01*
X90187Y199331D01*
X90500Y199290D01*
X90813Y199331D01*
X91105Y199452D01*
X91356Y199644D01*
X91548Y199895D01*
X91669Y200187D01*
X91710Y200500D01*
X91669Y200813D01*
X91548Y201105D01*
X91356Y201356D01*
X91105Y201548D01*
X90813Y201669D01*
X90500Y201710D01*
D02*
G37*
G36*
X114500D02*
X114187Y201669D01*
X113895Y201548D01*
X113644Y201356D01*
X113452Y201105D01*
X113331Y200813D01*
X113314Y200685D01*
X113186D01*
X113169Y200813D01*
X113048Y201105D01*
X112856Y201356D01*
X112605Y201548D01*
X112313Y201669D01*
X112000Y201710D01*
X111687Y201669D01*
X111395Y201548D01*
X111144Y201356D01*
X110952Y201105D01*
X110831Y200813D01*
X110814Y200685D01*
X110686D01*
X110669Y200813D01*
X110548Y201105D01*
X110356Y201356D01*
X110105Y201548D01*
X109813Y201669D01*
X109500Y201710D01*
X109187Y201669D01*
X108895Y201548D01*
X108644Y201356D01*
X108452Y201105D01*
X108331Y200813D01*
X108290Y200500D01*
X108331Y200187D01*
X108452Y199895D01*
X108644Y199644D01*
X108895Y199452D01*
X109187Y199331D01*
X109500Y199290D01*
X109813Y199331D01*
X110105Y199452D01*
X110356Y199644D01*
X110548Y199895D01*
X110669Y200187D01*
X110686Y200315D01*
X110814D01*
X110831Y200187D01*
X110952Y199895D01*
X111144Y199644D01*
X111395Y199452D01*
X111687Y199331D01*
X112000Y199290D01*
X112313Y199331D01*
X112605Y199452D01*
X112856Y199644D01*
X113048Y199895D01*
X113169Y200187D01*
X113186Y200315D01*
X113314D01*
X113331Y200187D01*
X113452Y199895D01*
X113644Y199644D01*
X113895Y199452D01*
X114187Y199331D01*
X114500Y199290D01*
X114813Y199331D01*
X115105Y199452D01*
X115356Y199644D01*
X115548Y199895D01*
X115669Y200187D01*
X115710Y200500D01*
X115669Y200813D01*
X115548Y201105D01*
X115356Y201356D01*
X115105Y201548D01*
X114813Y201669D01*
X114500Y201710D01*
D02*
G37*
G36*
X95400Y153684D02*
X95287Y153669D01*
X94995Y153548D01*
X94744Y153356D01*
X94552Y153105D01*
X94509Y153003D01*
X94382D01*
X94361Y153055D01*
X94185Y153285D01*
X93955Y153461D01*
X93687Y153572D01*
X93400Y153609D01*
X93113Y153572D01*
X92845Y153461D01*
X92615Y153285D01*
X92439Y153055D01*
X92328Y152787D01*
X92291Y152500D01*
Y151500D01*
X92328Y151213D01*
X92439Y150945D01*
X92615Y150715D01*
X92845Y150539D01*
X93113Y150428D01*
X93400Y150391D01*
X93687Y150428D01*
X93955Y150539D01*
X94185Y150715D01*
X94361Y150945D01*
X94382Y150997D01*
X94509D01*
X94552Y150895D01*
X94744Y150644D01*
X94995Y150452D01*
X95287Y150331D01*
X95400Y150316D01*
Y152000D01*
Y153684D01*
D02*
G37*
G36*
X104800Y159100D02*
X102850D01*
Y158000D01*
X104800D01*
Y159100D01*
D02*
G37*
G36*
X107150D02*
X105200D01*
Y158000D01*
X107150D01*
Y159100D01*
D02*
G37*
G36*
X95800Y153684D02*
Y152200D01*
X96810D01*
Y152500D01*
X96769Y152813D01*
X96648Y153105D01*
X96456Y153356D01*
X96205Y153548D01*
X95913Y153669D01*
X95800Y153684D01*
D02*
G37*
G36*
X104600D02*
Y152000D01*
Y150316D01*
X104713Y150331D01*
X105005Y150452D01*
X105256Y150644D01*
X105448Y150895D01*
X105491Y150997D01*
X105618D01*
X105639Y150945D01*
X105815Y150715D01*
X106045Y150539D01*
X106313Y150428D01*
X106600Y150391D01*
X106887Y150428D01*
X107155Y150539D01*
X107385Y150715D01*
X107561Y150945D01*
X107672Y151213D01*
X107709Y151500D01*
Y152500D01*
X107672Y152787D01*
X107561Y153055D01*
X107385Y153285D01*
X107155Y153461D01*
X106887Y153572D01*
X106600Y153609D01*
X106313Y153572D01*
X106045Y153461D01*
X105815Y153285D01*
X105639Y153055D01*
X105618Y153003D01*
X105491D01*
X105448Y153105D01*
X105256Y153356D01*
X105005Y153548D01*
X104713Y153669D01*
X104600Y153684D01*
D02*
G37*
G36*
X114900Y153609D02*
X114613Y153572D01*
X114345Y153461D01*
X114115Y153285D01*
X113939Y153055D01*
X113828Y152787D01*
X113791Y152500D01*
Y151500D01*
X113828Y151213D01*
X113939Y150945D01*
X114115Y150715D01*
X114345Y150539D01*
X114613Y150428D01*
X114900Y150391D01*
X115187Y150428D01*
X115455Y150539D01*
X115685Y150715D01*
X115861Y150945D01*
X115972Y151213D01*
X116009Y151500D01*
Y152500D01*
X115972Y152787D01*
X115861Y153055D01*
X115685Y153285D01*
X115455Y153461D01*
X115187Y153572D01*
X114900Y153609D01*
D02*
G37*
G36*
X104200Y153684D02*
X104087Y153669D01*
X103795Y153548D01*
X103544Y153356D01*
X103352Y153105D01*
X103231Y152813D01*
X103190Y152500D01*
Y152200D01*
X104200D01*
Y153684D01*
D02*
G37*
G36*
X105850Y165210D02*
X104150D01*
X103837Y165169D01*
X103545Y165048D01*
X103294Y164856D01*
X103102Y164605D01*
X102981Y164313D01*
X102940Y164000D01*
X102981Y163687D01*
X103102Y163395D01*
X103294Y163144D01*
X103545Y162952D01*
X103837Y162831D01*
X104150Y162790D01*
X105850D01*
X106163Y162831D01*
X106455Y162952D01*
X106706Y163144D01*
X106898Y163395D01*
X107019Y163687D01*
X107060Y164000D01*
X107019Y164313D01*
X106898Y164605D01*
X106706Y164856D01*
X106455Y165048D01*
X106163Y165169D01*
X105850Y165210D01*
D02*
G37*
G36*
X95850Y169910D02*
X94150D01*
X93837Y169869D01*
X93545Y169748D01*
X93294Y169556D01*
X93102Y169305D01*
X92981Y169013D01*
X92940Y168700D01*
X92981Y168387D01*
X93102Y168095D01*
X93294Y167844D01*
X93545Y167652D01*
X93837Y167531D01*
X94150Y167490D01*
X95850D01*
X96163Y167531D01*
X96455Y167652D01*
X96706Y167844D01*
X96898Y168095D01*
X97019Y168387D01*
X97060Y168700D01*
X97019Y169013D01*
X96898Y169305D01*
X96706Y169556D01*
X96455Y169748D01*
X96163Y169869D01*
X95850Y169910D01*
D02*
G37*
G36*
X105850D02*
X104150D01*
X103837Y169869D01*
X103545Y169748D01*
X103294Y169556D01*
X103102Y169305D01*
X102981Y169013D01*
X102940Y168700D01*
X102981Y168387D01*
X103102Y168095D01*
X103294Y167844D01*
X103545Y167652D01*
X103837Y167531D01*
X104150Y167490D01*
X105850D01*
X106163Y167531D01*
X106455Y167652D01*
X106706Y167844D01*
X106898Y168095D01*
X107019Y168387D01*
X107060Y168700D01*
X107019Y169013D01*
X106898Y169305D01*
X106706Y169556D01*
X106455Y169748D01*
X106163Y169869D01*
X105850Y169910D01*
D02*
G37*
G36*
X95850Y165210D02*
X94150D01*
X93837Y165169D01*
X93545Y165048D01*
X93294Y164856D01*
X93102Y164605D01*
X92981Y164313D01*
X92940Y164000D01*
X92981Y163687D01*
X93102Y163395D01*
X93294Y163144D01*
X93545Y162952D01*
X93837Y162831D01*
X94150Y162790D01*
X95850D01*
X96163Y162831D01*
X96455Y162952D01*
X96706Y163144D01*
X96898Y163395D01*
X97019Y163687D01*
X97060Y164000D01*
X97019Y164313D01*
X96898Y164605D01*
X96706Y164856D01*
X96455Y165048D01*
X96163Y165169D01*
X95850Y165210D01*
D02*
G37*
G36*
X97050Y160500D02*
X92950D01*
Y158100D01*
X97050D01*
Y160500D01*
D02*
G37*
G36*
X104800Y160600D02*
X102850D01*
Y159500D01*
X104800D01*
Y160600D01*
D02*
G37*
G36*
X107150D02*
X105200D01*
Y159500D01*
X107150D01*
Y160600D01*
D02*
G37*
%LPD*%
D11*
X109500Y119750D02*
D03*
D12*
X106500Y196500D02*
D03*
D13*
X101270Y186290D02*
D03*
X98730D02*
D03*
Y183750D02*
D03*
X101270D02*
D03*
Y181210D02*
D03*
X98730D02*
D03*
D14*
X104400Y152000D02*
D03*
Y139000D02*
D03*
Y126000D02*
D03*
Y113000D02*
D03*
X95600Y152000D02*
D03*
Y139000D02*
D03*
Y126000D02*
D03*
Y113000D02*
D03*
D17*
X105000Y159300D02*
D03*
D18*
X97500Y197750D02*
D03*
X98000Y195250D02*
D03*
X98500Y199750D02*
D03*
X97500D02*
D03*
X102500Y194500D02*
D03*
X103500Y177500D02*
D03*
Y178500D02*
D03*
Y179500D02*
D03*
Y180500D02*
D03*
Y181500D02*
D03*
Y182500D02*
D03*
Y183500D02*
D03*
Y184500D02*
D03*
Y185500D02*
D03*
Y186500D02*
D03*
Y187500D02*
D03*
Y188500D02*
D03*
Y189500D02*
D03*
X99000Y173529D02*
D03*
X98750Y176750D02*
D03*
X97500Y171000D02*
D03*
X88000Y208000D02*
D03*
X92400Y203250D02*
D03*
X111750Y146750D02*
D03*
X109500Y119750D02*
D03*
Y120500D02*
D03*
X110250Y119750D02*
D03*
X109500Y119000D02*
D03*
X108750Y119750D02*
D03*
Y120500D02*
D03*
X110250D02*
D03*
Y119000D02*
D03*
X108750D02*
D03*
X105750Y195750D02*
D03*
X107250D02*
D03*
Y197250D02*
D03*
X105750D02*
D03*
Y196500D02*
D03*
X106500Y195750D02*
D03*
X107250Y196500D02*
D03*
X106500Y197250D02*
D03*
Y196500D02*
D03*
X89750Y160000D02*
D03*
X92000Y157750D02*
D03*
X97750D02*
D03*
X102250Y158250D02*
D03*
X107750D02*
D03*
Y159250D02*
D03*
X102250D02*
D03*
X102500Y152000D02*
D03*
X104400Y154250D02*
D03*
Y149750D02*
D03*
X97500Y152000D02*
D03*
X95600Y154250D02*
D03*
Y149750D02*
D03*
Y136750D02*
D03*
Y141250D02*
D03*
X97500Y139000D02*
D03*
X104400Y136750D02*
D03*
Y141250D02*
D03*
X102500Y139000D02*
D03*
X95600Y123750D02*
D03*
Y128250D02*
D03*
X97500Y126000D02*
D03*
X104400Y123750D02*
D03*
Y128250D02*
D03*
X102500Y126000D02*
D03*
X95600Y110750D02*
D03*
Y115250D02*
D03*
X97500Y113000D02*
D03*
X104400Y110750D02*
D03*
Y115250D02*
D03*
X102500Y113000D02*
D03*
X119250Y119750D02*
D03*
X119000Y109250D02*
D03*
X115200D02*
D03*
X111400D02*
D03*
X107600D02*
D03*
X103800D02*
D03*
X100000D02*
D03*
X96200D02*
D03*
X92400D02*
D03*
X88600D02*
D03*
X84800D02*
D03*
X81000D02*
D03*
X115200Y219250D02*
D03*
X107600D02*
D03*
X111400D02*
D03*
X100000D02*
D03*
X103800D02*
D03*
X92400D02*
D03*
X96200D02*
D03*
X88600D02*
D03*
X84800D02*
D03*
X81000D02*
D03*
X119000D02*
D03*
X119250Y114000D02*
D03*
X113750Y115500D02*
D03*
Y128500D02*
D03*
Y141500D02*
D03*
X86250D02*
D03*
Y128500D02*
D03*
Y115500D02*
D03*
X97750Y160000D02*
D03*
X100750Y164250D02*
D03*
X100500Y168500D02*
D03*
X92750Y167500D02*
D03*
X91000Y197250D02*
D03*
X84750D02*
D03*
X109000D02*
D03*
X115000Y197500D02*
D03*
X105500Y198750D02*
D03*
X104000Y200000D02*
D03*
X102500Y198750D02*
D03*
X94250D02*
D03*
X96000Y200000D02*
D03*
X97500Y198750D02*
D03*
X94500Y175250D02*
D03*
X88500Y173500D02*
D03*
X84250Y165000D02*
D03*
X86250Y154500D02*
D03*
X113750D02*
D03*
X114000Y149750D02*
D03*
X108000Y145000D02*
D03*
X108500Y141000D02*
D03*
X110250Y137500D02*
D03*
X108750Y139000D02*
D03*
X91500Y141000D02*
D03*
X91250Y139000D02*
D03*
X89750Y137500D02*
D03*
X91500Y128000D02*
D03*
X91250Y126000D02*
D03*
X89750Y124500D02*
D03*
X108750Y126000D02*
D03*
X108500Y128000D02*
D03*
X110250Y124750D02*
D03*
X108500Y115000D02*
D03*
X108750Y113000D02*
D03*
X110500Y111750D02*
D03*
X91250Y113000D02*
D03*
X91500Y115000D02*
D03*
X89750Y111750D02*
D03*
X100000Y115000D02*
D03*
Y119000D02*
D03*
X107250D02*
D03*
X113500Y118000D02*
D03*
X89000Y118500D02*
D03*
X110250Y150500D02*
D03*
X108750Y152000D02*
D03*
X108500Y154000D02*
D03*
X91500D02*
D03*
X91250Y152000D02*
D03*
X89750Y150500D02*
D03*
X108750Y159250D02*
D03*
X101250D02*
D03*
X108750Y158250D02*
D03*
X101250D02*
D03*
X107000Y167000D02*
D03*
X103500Y171000D02*
D03*
X105750Y174500D02*
D03*
X107500Y170250D02*
D03*
X105500Y181250D02*
D03*
X109000D02*
D03*
X105500Y186750D02*
D03*
X109000D02*
D03*
X105500Y192750D02*
D03*
X108500Y194250D02*
D03*
X100500Y190750D02*
D03*
X91000Y186750D02*
D03*
X94500Y186500D02*
D03*
Y181500D02*
D03*
X92500Y181000D02*
D03*
X94500Y178750D02*
D03*
X83750Y174000D02*
D03*
X84750Y181250D02*
D03*
X81250D02*
D03*
X81500Y177250D02*
D03*
X81000Y171500D02*
D03*
X87500Y157250D02*
D03*
X85250Y159500D02*
D03*
X84500Y149500D02*
D03*
X84750Y136500D02*
D03*
X81000Y134500D02*
D03*
X80750Y150250D02*
D03*
Y143250D02*
D03*
Y164750D02*
D03*
Y158000D02*
D03*
X107750Y178250D02*
D03*
X115500Y166250D02*
D03*
X111750Y162500D02*
D03*
X115250Y159250D02*
D03*
X111750Y158500D02*
D03*
X115500Y154500D02*
D03*
X108000Y148250D02*
D03*
X100000Y149750D02*
D03*
Y153750D02*
D03*
Y145000D02*
D03*
Y140500D02*
D03*
Y132000D02*
D03*
Y128000D02*
D03*
X95000Y145000D02*
D03*
X104250D02*
D03*
X89500D02*
D03*
X95000Y132000D02*
D03*
X104500D02*
D03*
X110250D02*
D03*
X91750D02*
D03*
X88250Y135250D02*
D03*
X92500Y136000D02*
D03*
X100000Y136250D02*
D03*
X115500Y144500D02*
D03*
X117000Y117000D02*
D03*
X117500Y111500D02*
D03*
X81000Y129750D02*
D03*
Y124500D02*
D03*
Y118250D02*
D03*
Y113500D02*
D03*
X83250Y123250D02*
D03*
X83500Y130750D02*
D03*
X84750Y118750D02*
D03*
X87750Y122000D02*
D03*
X92500Y121250D02*
D03*
X100000Y122500D02*
D03*
X104000Y120750D02*
D03*
X109000Y123000D02*
D03*
X112750D02*
D03*
X115250Y131750D02*
D03*
X113250Y136250D02*
D03*
X84250Y154500D02*
D03*
X96250Y166250D02*
D03*
X104000D02*
D03*
X93750Y194250D02*
D03*
X91000Y191500D02*
D03*
X85000Y186750D02*
D03*
X81000Y187000D02*
D03*
Y193500D02*
D03*
Y199000D02*
D03*
X82750Y215500D02*
D03*
X86550D02*
D03*
X90350D02*
D03*
X97950D02*
D03*
X94150D02*
D03*
X105550D02*
D03*
X101750D02*
D03*
X113150D02*
D03*
X109350D02*
D03*
X116000Y214250D02*
D03*
X119000Y211250D02*
D03*
X81000D02*
D03*
X84800D02*
D03*
X88600D02*
D03*
X96200D02*
D03*
X92400D02*
D03*
X103800D02*
D03*
X100000D02*
D03*
X111400D02*
D03*
X107600D02*
D03*
X115200D02*
D03*
X101750Y207500D02*
D03*
X97950D02*
D03*
X100000Y203250D02*
D03*
X103800D02*
D03*
X96200D02*
D03*
X88600D02*
D03*
X84800D02*
D03*
X115200D02*
D03*
X107600D02*
D03*
X111400D02*
D03*
X119000D02*
D03*
X81000D02*
D03*
X112000Y208000D02*
D03*
X119000Y199000D02*
D03*
Y193500D02*
D03*
Y187000D02*
D03*
X115250Y192750D02*
D03*
X114950Y186450D02*
D03*
X107250Y190250D02*
D03*
X94000D02*
D03*
X84750Y190750D02*
D03*
X100000Y199750D02*
D03*
X119275Y182100D02*
D03*
X116875Y180750D02*
D03*
X119075Y178200D02*
D03*
X119150Y171900D02*
D03*
X119175Y166775D02*
D03*
Y161325D02*
D03*
X119225Y156375D02*
D03*
X119175Y150400D02*
D03*
Y144700D02*
D03*
Y138350D02*
D03*
X119150Y132475D02*
D03*
Y126350D02*
D03*
X94500Y118775D02*
D03*
X88600Y168475D02*
D03*
X89000Y165200D02*
D03*
X111225Y173625D02*
D03*
X112750Y168800D02*
D03*
X111225Y167375D02*
D03*
D19*
X101270Y181210D02*
X103000D01*
X97000D02*
X98730D01*
X101270D01*
Y183750D02*
X103000D01*
X97000D02*
X98730D01*
X101270D01*
X98730Y186290D02*
X101270D01*
X97000D02*
X98730D01*
X101270D02*
X103000D01*
M02*
