G04 Layer_Color=2752767*
%FSLAX43Y43*%
%MOMM*%
G71*
G01*
G75*
%ADD32C,0.254*%
%ADD47C,0.381*%
%ADD50C,0.051*%
%ADD51C,0.406*%
%ADD52C,0.356*%
D32*
X83903Y81312D02*
G03*
X83903Y81312I-847J0D01*
G01*
X82209Y88085D02*
X83056Y88508D01*
X83903Y88085D01*
X83479Y88932D02*
X83903Y88085D01*
X83479Y88932D02*
X83903Y89778D01*
X83056Y89355D02*
X83903Y89778D01*
X82209D02*
X83056Y89355D01*
X82209Y89778D02*
X82633Y88932D01*
X82209Y88085D02*
X82633Y88932D01*
X83056Y84275D02*
X83903Y85968D01*
X82209D02*
X83903D01*
X82209D02*
X83056Y84275D01*
X82209Y76655D02*
X83903D01*
Y78348D01*
X82209D02*
X83903D01*
X82209Y76655D02*
Y78348D01*
X82633Y73268D02*
X83056Y72845D01*
X82209Y73268D02*
X82633D01*
X82209D02*
X82633Y73692D01*
X82209Y74115D02*
X82633Y73692D01*
X82209Y74115D02*
X82633D01*
X83056Y74538D01*
X83479Y74115D01*
X83903D01*
X83479Y73692D02*
X83903Y74115D01*
X83479Y73692D02*
X83903Y73268D01*
X83479D02*
X83903D01*
X83056Y72845D02*
X83479Y73268D01*
X242241Y89101D02*
X242749Y88085D01*
X243257Y89101D01*
X243765Y89355D02*
X244019Y89609D01*
X244527D01*
X244781Y89355D01*
Y89101D01*
X244527Y88847D01*
X244781Y88593D01*
Y88339D01*
X244527Y88085D01*
X244019D01*
X243765Y88339D01*
Y88593D01*
X244019Y88847D01*
X243765Y89101D01*
Y89355D01*
X244019Y88847D02*
X244527D01*
X245288Y89355D02*
X245542Y89609D01*
X246050D01*
X246304Y89355D01*
Y88339D01*
X246050Y88085D01*
X245542D01*
X245288Y88339D01*
Y89355D01*
X246812Y89609D02*
Y88085D01*
Y88847D01*
X247066Y89101D01*
X247574D01*
X247828Y88847D01*
Y88085D01*
X249097D02*
Y89609D01*
X248336Y88847D01*
X249351D01*
X249859Y89355D02*
X250113Y89609D01*
X250621D01*
X250875Y89355D01*
Y88339D01*
X250621Y88085D01*
X250113D01*
X249859Y88339D01*
Y89355D01*
X251383Y88085D02*
Y89101D01*
X251636D01*
X251890Y88847D01*
Y88085D01*
Y88847D01*
X252144Y89101D01*
X252398Y88847D01*
Y88085D01*
X252906Y89355D02*
X253160Y89609D01*
X253668D01*
X253922Y89355D01*
Y88339D01*
X253668Y88085D01*
X253160D01*
X252906Y88339D01*
Y89355D01*
X254430Y88085D02*
Y89101D01*
X254683D01*
X254937Y88847D01*
Y88085D01*
Y88847D01*
X255191Y89101D01*
X255445Y88847D01*
Y88085D01*
X255953Y89101D02*
X256969Y88085D01*
X256461Y88593D01*
X256969Y89101D01*
X255953Y88085D01*
X257477Y89355D02*
X257730Y89609D01*
X258238D01*
X258492Y89355D01*
Y88339D01*
X258238Y88085D01*
X257730D01*
X257477Y88339D01*
Y89355D01*
X242241Y85291D02*
Y84275D01*
Y84783D01*
X242495Y85037D01*
X242749Y85291D01*
X243003D01*
X244781Y84275D02*
X243765D01*
X244781Y85291D01*
Y85545D01*
X244527Y85799D01*
X244019D01*
X243765Y85545D01*
X245288D02*
X245542Y85799D01*
X246050D01*
X246304Y85545D01*
Y85291D01*
X246050Y85037D01*
X246304Y84783D01*
Y84529D01*
X246050Y84275D01*
X245542D01*
X245288Y84529D01*
Y84783D01*
X245542Y85037D01*
X245288Y85291D01*
Y85545D01*
X245542Y85037D02*
X246050D01*
X246812Y85545D02*
X247066Y85799D01*
X247574D01*
X247828Y85545D01*
Y84529D01*
X247574Y84275D01*
X247066D01*
X246812Y84529D01*
Y85545D01*
X248336Y84021D02*
X249351D01*
X249859Y84275D02*
X250367D01*
X250113D01*
Y85799D01*
X249859Y85545D01*
X251129D02*
X251383Y85799D01*
X251890D01*
X252144Y85545D01*
Y85291D01*
X251890Y85037D01*
X252144Y84783D01*
Y84529D01*
X251890Y84275D01*
X251383D01*
X251129Y84529D01*
Y84783D01*
X251383Y85037D01*
X251129Y85291D01*
Y85545D01*
X251383Y85037D02*
X251890D01*
X252652Y85545D02*
X252906Y85799D01*
X253414D01*
X253668Y85545D01*
Y84529D01*
X253414Y84275D01*
X252906D01*
X252652Y84529D01*
Y85545D01*
X254176Y85799D02*
Y84275D01*
Y85037D01*
X254430Y85291D01*
X254937D01*
X255191Y85037D01*
Y84275D01*
X255699Y85545D02*
X255953Y85799D01*
X256461D01*
X256715Y85545D01*
Y85291D01*
X256461Y85037D01*
X256715Y84783D01*
Y84529D01*
X256461Y84275D01*
X255953D01*
X255699Y84529D01*
Y84783D01*
X255953Y85037D01*
X255699Y85291D01*
Y85545D01*
X255953Y85037D02*
X256461D01*
X257223Y85545D02*
X257477Y85799D01*
X257984D01*
X258238Y85545D01*
Y84529D01*
X257984Y84275D01*
X257477D01*
X257223Y84529D01*
Y85545D01*
X258746Y84021D02*
X259762D01*
X260270Y84275D02*
X260777D01*
X260524D01*
Y85799D01*
X260270Y85545D01*
X262555Y85799D02*
X261539D01*
Y85037D01*
X262047Y85291D01*
X262301D01*
X262555Y85037D01*
Y84529D01*
X262301Y84275D01*
X261793D01*
X261539Y84529D01*
X263063Y85545D02*
X263317Y85799D01*
X263825D01*
X264078Y85545D01*
Y84529D01*
X263825Y84275D01*
X263317D01*
X263063Y84529D01*
Y85545D01*
X264586Y85291D02*
Y84275D01*
Y84783D01*
X264840Y85037D01*
X265094Y85291D01*
X265348D01*
X266110Y84275D02*
X266618D01*
X266364D01*
Y85799D01*
X266110Y85545D01*
X267379D02*
X267633Y85799D01*
X268141D01*
X268395Y85545D01*
Y84529D01*
X268141Y84275D01*
X267633D01*
X267379Y84529D01*
Y85545D01*
X268903D02*
X269157Y85799D01*
X269665D01*
X269919Y85545D01*
Y84529D01*
X269665Y84275D01*
X269157D01*
X268903Y84529D01*
Y85545D01*
X270426Y84275D02*
Y85291D01*
X270680D01*
X270934Y85037D01*
Y84275D01*
Y85037D01*
X271188Y85291D01*
X271442Y85037D01*
Y84275D01*
X272966D02*
X271950D01*
X272966Y85291D01*
Y85545D01*
X272712Y85799D01*
X272204D01*
X271950Y85545D01*
X273473D02*
X273727Y85799D01*
X274235D01*
X274489Y85545D01*
Y85291D01*
X274235Y85037D01*
X274489Y84783D01*
Y84529D01*
X274235Y84275D01*
X273727D01*
X273473Y84529D01*
Y84783D01*
X273727Y85037D01*
X273473Y85291D01*
Y85545D01*
X273727Y85037D02*
X274235D01*
X276013Y85799D02*
X274997D01*
Y85037D01*
X275505Y85291D01*
X275759D01*
X276013Y85037D01*
Y84529D01*
X275759Y84275D01*
X275251D01*
X274997Y84529D01*
X276520Y84021D02*
X277536D01*
X278044Y84275D02*
X278552D01*
X278298D01*
Y85799D01*
X278044Y85545D01*
X279314D02*
X279567Y85799D01*
X280075D01*
X280329Y85545D01*
Y85291D01*
X280075Y85037D01*
X280329Y84783D01*
Y84529D01*
X280075Y84275D01*
X279567D01*
X279314Y84529D01*
Y84783D01*
X279567Y85037D01*
X279314Y85291D01*
Y85545D01*
X279567Y85037D02*
X280075D01*
X281853Y85799D02*
X280837D01*
Y85037D01*
X281345Y85291D01*
X281599D01*
X281853Y85037D01*
Y84529D01*
X281599Y84275D01*
X281091D01*
X280837Y84529D01*
X243257Y81481D02*
X242495D01*
X242241Y81227D01*
Y80719D01*
X242495Y80465D01*
X243257D01*
X244781D02*
X243765D01*
X244781Y81481D01*
Y81735D01*
X244527Y81989D01*
X244019D01*
X243765Y81735D01*
X245288D02*
X245542Y81989D01*
X246050D01*
X246304Y81735D01*
Y80719D01*
X246050Y80465D01*
X245542D01*
X245288Y80719D01*
Y81735D01*
X246812D02*
X247066Y81989D01*
X247574D01*
X247828Y81735D01*
Y80719D01*
X247574Y80465D01*
X247066D01*
X246812Y80719D01*
Y81735D01*
X248336Y81989D02*
Y80465D01*
Y81227D01*
X248589Y81481D01*
X249097D01*
X249351Y81227D01*
Y80465D01*
X249859D02*
X250367D01*
X250113D01*
Y81989D01*
X249859Y81735D01*
X251129D02*
X251383Y81989D01*
X251890D01*
X252144Y81735D01*
Y80719D01*
X251890Y80465D01*
X251383D01*
X251129Y80719D01*
Y81735D01*
X252652D02*
X252906Y81989D01*
X253414D01*
X253668Y81735D01*
Y80719D01*
X253414Y80465D01*
X252906D01*
X252652Y80719D01*
Y81735D01*
X254176Y80465D02*
Y81481D01*
X254430D01*
X254683Y81227D01*
Y80465D01*
Y81227D01*
X254937Y81481D01*
X255191Y81227D01*
Y80465D01*
X256715D02*
X255699D01*
X256715Y81481D01*
Y81735D01*
X256461Y81989D01*
X255953D01*
X255699Y81735D01*
X257223D02*
X257477Y81989D01*
X257984D01*
X258238Y81735D01*
Y80719D01*
X257984Y80465D01*
X257477D01*
X257223Y80719D01*
Y81735D01*
X259762Y81989D02*
X258746D01*
Y81227D01*
X259254Y81481D01*
X259508D01*
X259762Y81227D01*
Y80719D01*
X259508Y80465D01*
X259000D01*
X258746Y80719D01*
X242749Y76655D02*
X242241Y77163D01*
Y77671D01*
X242749Y78179D01*
X243511Y76655D02*
Y78179D01*
X244019Y77671D01*
X244527Y78179D01*
Y76655D01*
X245035D02*
X245542D01*
X245288D01*
Y77671D01*
X245035D01*
X246304D02*
X247320Y76655D01*
X246812Y77163D01*
X247320Y77671D01*
X246304Y76655D01*
X248589D02*
X248082D01*
X247828Y76909D01*
Y77417D01*
X248082Y77671D01*
X248589D01*
X248843Y77417D01*
Y77163D01*
X247828D01*
X250367Y78179D02*
Y76655D01*
X249605D01*
X249351Y76909D01*
Y77417D01*
X249605Y77671D01*
X250367D01*
X250875Y76655D02*
X251383Y77163D01*
Y77671D01*
X250875Y78179D01*
X243257Y73861D02*
X242495D01*
X242241Y73607D01*
Y73099D01*
X242495Y72845D01*
X243257D01*
X244527D02*
Y74369D01*
X243765Y73607D01*
X244781D01*
X246050Y72845D02*
Y74369D01*
X245288Y73607D01*
X246304D01*
X246812Y74115D02*
X247066Y74369D01*
X247574D01*
X247828Y74115D01*
Y73099D01*
X247574Y72845D01*
X247066D01*
X246812Y73099D01*
Y74115D01*
X248336Y74369D02*
Y72845D01*
Y73607D01*
X248589Y73861D01*
X249097D01*
X249351Y73607D01*
Y72845D01*
X250875D02*
X249859D01*
X250875Y73861D01*
Y74115D01*
X250621Y74369D01*
X250113D01*
X249859Y74115D01*
X252398Y72845D02*
X251383D01*
X252398Y73861D01*
Y74115D01*
X252144Y74369D01*
X251636D01*
X251383Y74115D01*
X252906D02*
X253160Y74369D01*
X253668D01*
X253922Y74115D01*
Y73099D01*
X253668Y72845D01*
X253160D01*
X252906Y73099D01*
Y74115D01*
X254430Y72845D02*
Y73861D01*
X254683D01*
X254937Y73607D01*
Y72845D01*
Y73607D01*
X255191Y73861D01*
X255445Y73607D01*
Y72845D01*
X256715D02*
Y74369D01*
X255953Y73607D01*
X256969D01*
X258238Y72845D02*
Y74369D01*
X257477Y73607D01*
X258492D01*
X260016Y74369D02*
X259000D01*
Y73607D01*
X259508Y73861D01*
X259762D01*
X260016Y73607D01*
Y73099D01*
X259762Y72845D01*
X259254D01*
X259000Y73099D01*
X223298Y88085D02*
Y89609D01*
X224060D01*
X224314Y89355D01*
Y88847D01*
X224060Y88593D01*
X223298D01*
X223806D02*
X224314Y88085D01*
X225076D02*
X225583D01*
X225837Y88339D01*
Y88847D01*
X225583Y89101D01*
X225076D01*
X224822Y88847D01*
Y88339D01*
X225076Y88085D01*
X226345Y89101D02*
Y88339D01*
X226599Y88085D01*
X227361D01*
Y89101D01*
X227869Y88085D02*
Y89101D01*
X228630D01*
X228884Y88847D01*
Y88085D01*
X230408Y89609D02*
Y88085D01*
X229646D01*
X229392Y88339D01*
Y88847D01*
X229646Y89101D01*
X230408D01*
X231678Y88085D02*
X231170D01*
X230916Y88339D01*
Y88847D01*
X231170Y89101D01*
X231678D01*
X231931Y88847D01*
Y88593D01*
X230916D01*
X233455Y89609D02*
Y88085D01*
X232693D01*
X232439Y88339D01*
Y88847D01*
X232693Y89101D01*
X233455D01*
X223298Y84275D02*
Y85799D01*
X224060D01*
X224314Y85545D01*
Y85037D01*
X224060Y84783D01*
X223298D01*
X223806D02*
X224314Y84275D01*
X225076D02*
X225583D01*
X225837Y84529D01*
Y85037D01*
X225583Y85291D01*
X225076D01*
X224822Y85037D01*
Y84529D01*
X225076Y84275D01*
X226345Y85291D02*
Y84529D01*
X226599Y84275D01*
X227361D01*
Y85291D01*
X227869Y84275D02*
Y85291D01*
X228630D01*
X228884Y85037D01*
Y84275D01*
X230408Y85799D02*
Y84275D01*
X229646D01*
X229392Y84529D01*
Y85037D01*
X229646Y85291D01*
X230408D01*
X231678Y84275D02*
X231170D01*
X230916Y84529D01*
Y85037D01*
X231170Y85291D01*
X231678D01*
X231931Y85037D01*
Y84783D01*
X230916D01*
X233455Y85799D02*
Y84275D01*
X232693D01*
X232439Y84529D01*
Y85037D01*
X232693Y85291D01*
X233455D01*
X223298Y80465D02*
Y81989D01*
X224060D01*
X224314Y81735D01*
Y81227D01*
X224060Y80973D01*
X223298D01*
X223806D02*
X224314Y80465D01*
X225076D02*
X225583D01*
X225837Y80719D01*
Y81227D01*
X225583Y81481D01*
X225076D01*
X224822Y81227D01*
Y80719D01*
X225076Y80465D01*
X226345Y81481D02*
Y80719D01*
X226599Y80465D01*
X227361D01*
Y81481D01*
X227869Y80465D02*
Y81481D01*
X228630D01*
X228884Y81227D01*
Y80465D01*
X230408Y81989D02*
Y80465D01*
X229646D01*
X229392Y80719D01*
Y81227D01*
X229646Y81481D01*
X230408D01*
X231678Y80465D02*
X231170D01*
X230916Y80719D01*
Y81227D01*
X231170Y81481D01*
X231678D01*
X231931Y81227D01*
Y80973D01*
X230916D01*
X233455Y81989D02*
Y80465D01*
X232693D01*
X232439Y80719D01*
Y81227D01*
X232693Y81481D01*
X233455D01*
X223806Y76655D02*
X223298Y77163D01*
Y77671D01*
X223806Y78179D01*
X224568Y76655D02*
Y78179D01*
X225076Y77671D01*
X225583Y78179D01*
Y76655D01*
X226091D02*
X226599D01*
X226345D01*
Y77671D01*
X226091D01*
X227361D02*
X228377Y76655D01*
X227869Y77163D01*
X228377Y77671D01*
X227361Y76655D01*
X229646D02*
X229138D01*
X228884Y76909D01*
Y77417D01*
X229138Y77671D01*
X229646D01*
X229900Y77417D01*
Y77163D01*
X228884D01*
X231424Y78179D02*
Y76655D01*
X230662D01*
X230408Y76909D01*
Y77417D01*
X230662Y77671D01*
X231424D01*
X231931Y76655D02*
X232439Y77163D01*
Y77671D01*
X231931Y78179D01*
X223298Y72845D02*
Y74369D01*
X224060D01*
X224314Y74115D01*
Y73607D01*
X224060Y73353D01*
X223298D01*
X223806D02*
X224314Y72845D01*
X225076D02*
X225583D01*
X225837Y73099D01*
Y73607D01*
X225583Y73861D01*
X225076D01*
X224822Y73607D01*
Y73099D01*
X225076Y72845D01*
X226345Y73861D02*
Y73099D01*
X226599Y72845D01*
X227361D01*
Y73861D01*
X227869Y72845D02*
Y73861D01*
X228630D01*
X228884Y73607D01*
Y72845D01*
X230408Y74369D02*
Y72845D01*
X229646D01*
X229392Y73099D01*
Y73607D01*
X229646Y73861D01*
X230408D01*
X231678Y72845D02*
X231170D01*
X230916Y73099D01*
Y73607D01*
X231170Y73861D01*
X231678D01*
X231931Y73607D01*
Y73353D01*
X230916D01*
X233455Y74369D02*
Y72845D01*
X232693D01*
X232439Y73099D01*
Y73607D01*
X232693Y73861D01*
X233455D01*
X208316Y89609D02*
Y88593D01*
X208824Y88085D01*
X209332Y88593D01*
Y89609D01*
X209840Y88085D02*
X210347D01*
X210093D01*
Y89101D01*
X209840D01*
X211363D02*
X211871D01*
X212125Y88847D01*
Y88085D01*
X211363D01*
X211109Y88339D01*
X211363Y88593D01*
X212125D01*
X208316Y84275D02*
Y85799D01*
X209078D01*
X209332Y85545D01*
Y85037D01*
X209078Y84783D01*
X208316D01*
X210093Y85291D02*
X210601D01*
X210855Y85037D01*
Y84275D01*
X210093D01*
X209840Y84529D01*
X210093Y84783D01*
X210855D01*
X212379Y85799D02*
Y84275D01*
X211617D01*
X211363Y84529D01*
Y85037D01*
X211617Y85291D01*
X212379D01*
X208316Y80465D02*
Y81989D01*
X209078D01*
X209332Y81735D01*
Y81227D01*
X209078Y80973D01*
X208316D01*
X210093Y81481D02*
X210601D01*
X210855Y81227D01*
Y80465D01*
X210093D01*
X209840Y80719D01*
X210093Y80973D01*
X210855D01*
X212379Y81989D02*
Y80465D01*
X211617D01*
X211363Y80719D01*
Y81227D01*
X211617Y81481D01*
X212379D01*
X208316Y76655D02*
Y78179D01*
X209078D01*
X209332Y77925D01*
Y77417D01*
X209078Y77163D01*
X208316D01*
X210093Y77671D02*
X210601D01*
X210855Y77417D01*
Y76655D01*
X210093D01*
X209840Y76909D01*
X210093Y77163D01*
X210855D01*
X212379Y78179D02*
Y76655D01*
X211617D01*
X211363Y76909D01*
Y77417D01*
X211617Y77671D01*
X212379D01*
X208316Y72845D02*
Y74369D01*
X209078D01*
X209332Y74115D01*
Y73607D01*
X209078Y73353D01*
X208316D01*
X210093Y73861D02*
X210601D01*
X210855Y73607D01*
Y72845D01*
X210093D01*
X209840Y73099D01*
X210093Y73353D01*
X210855D01*
X212379Y74369D02*
Y72845D01*
X211617D01*
X211363Y73099D01*
Y73607D01*
X211617Y73861D01*
X212379D01*
X170227Y89609D02*
X171243D01*
X170735D01*
Y88085D01*
X172005D02*
X172513D01*
X172767Y88339D01*
Y88847D01*
X172513Y89101D01*
X172005D01*
X171751Y88847D01*
Y88339D01*
X172005Y88085D01*
X173274Y87577D02*
Y89101D01*
X174036D01*
X174290Y88847D01*
Y88339D01*
X174036Y88085D01*
X173274D01*
X176322Y89609D02*
Y88085D01*
X177337D01*
X178099Y89101D02*
X178607D01*
X178861Y88847D01*
Y88085D01*
X178099D01*
X177845Y88339D01*
X178099Y88593D01*
X178861D01*
X179369Y89101D02*
Y88339D01*
X179622Y88085D01*
X180384D01*
Y87831D01*
X180130Y87577D01*
X179876D01*
X180384Y88085D02*
Y89101D01*
X181654Y88085D02*
X181146D01*
X180892Y88339D01*
Y88847D01*
X181146Y89101D01*
X181654D01*
X181908Y88847D01*
Y88593D01*
X180892D01*
X182416Y89101D02*
Y88085D01*
Y88593D01*
X182669Y88847D01*
X182923Y89101D01*
X183177D01*
X185463Y88847D02*
X186478D01*
X188510Y89609D02*
Y88085D01*
X189271D01*
X189525Y88339D01*
Y88593D01*
X189271Y88847D01*
X188510D01*
X189271D01*
X189525Y89101D01*
Y89355D01*
X189271Y89609D01*
X188510D01*
X190287Y88085D02*
X190795D01*
X191049Y88339D01*
Y88847D01*
X190795Y89101D01*
X190287D01*
X190033Y88847D01*
Y88339D01*
X190287Y88085D01*
X191811Y89355D02*
Y89101D01*
X191557D01*
X192064D01*
X191811D01*
Y88339D01*
X192064Y88085D01*
X193080Y89355D02*
Y89101D01*
X192826D01*
X193334D01*
X193080D01*
Y88339D01*
X193334Y88085D01*
X194350D02*
X194858D01*
X195111Y88339D01*
Y88847D01*
X194858Y89101D01*
X194350D01*
X194096Y88847D01*
Y88339D01*
X194350Y88085D01*
X195619D02*
Y89101D01*
X195873D01*
X196127Y88847D01*
Y88085D01*
Y88847D01*
X196381Y89101D01*
X196635Y88847D01*
Y88085D01*
X198666Y89609D02*
Y88085D01*
X199682D01*
X200444Y89101D02*
X200952D01*
X201205Y88847D01*
Y88085D01*
X200444D01*
X200190Y88339D01*
X200444Y88593D01*
X201205D01*
X201713Y89101D02*
Y88339D01*
X201967Y88085D01*
X202729D01*
Y87831D01*
X202475Y87577D01*
X202221D01*
X202729Y88085D02*
Y89101D01*
X203999Y88085D02*
X203491D01*
X203237Y88339D01*
Y88847D01*
X203491Y89101D01*
X203999D01*
X204252Y88847D01*
Y88593D01*
X203237D01*
X204760Y89101D02*
Y88085D01*
Y88593D01*
X205014Y88847D01*
X205268Y89101D01*
X205522D01*
X170227Y85799D02*
X171243D01*
X170735D01*
Y84275D01*
X172005D02*
X172513D01*
X172767Y84529D01*
Y85037D01*
X172513Y85291D01*
X172005D01*
X171751Y85037D01*
Y84529D01*
X172005Y84275D01*
X173274Y83767D02*
Y85291D01*
X174036D01*
X174290Y85037D01*
Y84529D01*
X174036Y84275D01*
X173274D01*
X176322Y85799D02*
Y84275D01*
X177337D01*
X178099Y85291D02*
X178607D01*
X178861Y85037D01*
Y84275D01*
X178099D01*
X177845Y84529D01*
X178099Y84783D01*
X178861D01*
X179369Y85291D02*
Y84529D01*
X179622Y84275D01*
X180384D01*
Y84021D01*
X180130Y83767D01*
X179876D01*
X180384Y84275D02*
Y85291D01*
X181654Y84275D02*
X181146D01*
X180892Y84529D01*
Y85037D01*
X181146Y85291D01*
X181654D01*
X181908Y85037D01*
Y84783D01*
X180892D01*
X182416Y85291D02*
Y84275D01*
Y84783D01*
X182669Y85037D01*
X182923Y85291D01*
X183177D01*
X185463Y85037D02*
X186478D01*
X188510Y85799D02*
Y84275D01*
X189271D01*
X189525Y84529D01*
Y84783D01*
X189271Y85037D01*
X188510D01*
X189271D01*
X189525Y85291D01*
Y85545D01*
X189271Y85799D01*
X188510D01*
X190287Y84275D02*
X190795D01*
X191049Y84529D01*
Y85037D01*
X190795Y85291D01*
X190287D01*
X190033Y85037D01*
Y84529D01*
X190287Y84275D01*
X191811Y85545D02*
Y85291D01*
X191557D01*
X192064D01*
X191811D01*
Y84529D01*
X192064Y84275D01*
X193080Y85545D02*
Y85291D01*
X192826D01*
X193334D01*
X193080D01*
Y84529D01*
X193334Y84275D01*
X194350D02*
X194858D01*
X195111Y84529D01*
Y85037D01*
X194858Y85291D01*
X194350D01*
X194096Y85037D01*
Y84529D01*
X194350Y84275D01*
X195619D02*
Y85291D01*
X195873D01*
X196127Y85037D01*
Y84275D01*
Y85037D01*
X196381Y85291D01*
X196635Y85037D01*
Y84275D01*
X198666Y85799D02*
Y84275D01*
X199682D01*
X200444Y85291D02*
X200952D01*
X201205Y85037D01*
Y84275D01*
X200444D01*
X200190Y84529D01*
X200444Y84783D01*
X201205D01*
X201713Y85291D02*
Y84529D01*
X201967Y84275D01*
X202729D01*
Y84021D01*
X202475Y83767D01*
X202221D01*
X202729Y84275D02*
Y85291D01*
X203999Y84275D02*
X203491D01*
X203237Y84529D01*
Y85037D01*
X203491Y85291D01*
X203999D01*
X204252Y85037D01*
Y84783D01*
X203237D01*
X204760Y85291D02*
Y84275D01*
Y84783D01*
X205014Y85037D01*
X205268Y85291D01*
X205522D01*
X170227Y81989D02*
X171243D01*
X170735D01*
Y80465D01*
X172005D02*
X172513D01*
X172767Y80719D01*
Y81227D01*
X172513Y81481D01*
X172005D01*
X171751Y81227D01*
Y80719D01*
X172005Y80465D01*
X173274Y79957D02*
Y81481D01*
X174036D01*
X174290Y81227D01*
Y80719D01*
X174036Y80465D01*
X173274D01*
X176322Y81989D02*
Y80465D01*
X177337D01*
X178099Y81481D02*
X178607D01*
X178861Y81227D01*
Y80465D01*
X178099D01*
X177845Y80719D01*
X178099Y80973D01*
X178861D01*
X179369Y81481D02*
Y80719D01*
X179622Y80465D01*
X180384D01*
Y80211D01*
X180130Y79957D01*
X179876D01*
X180384Y80465D02*
Y81481D01*
X181654Y80465D02*
X181146D01*
X180892Y80719D01*
Y81227D01*
X181146Y81481D01*
X181654D01*
X181908Y81227D01*
Y80973D01*
X180892D01*
X182416Y81481D02*
Y80465D01*
Y80973D01*
X182669Y81227D01*
X182923Y81481D01*
X183177D01*
X185463Y81227D02*
X186478D01*
X188510Y81989D02*
Y80465D01*
X189271D01*
X189525Y80719D01*
Y80973D01*
X189271Y81227D01*
X188510D01*
X189271D01*
X189525Y81481D01*
Y81735D01*
X189271Y81989D01*
X188510D01*
X190287Y80465D02*
X190795D01*
X191049Y80719D01*
Y81227D01*
X190795Y81481D01*
X190287D01*
X190033Y81227D01*
Y80719D01*
X190287Y80465D01*
X191811Y81735D02*
Y81481D01*
X191557D01*
X192064D01*
X191811D01*
Y80719D01*
X192064Y80465D01*
X193080Y81735D02*
Y81481D01*
X192826D01*
X193334D01*
X193080D01*
Y80719D01*
X193334Y80465D01*
X194350D02*
X194858D01*
X195111Y80719D01*
Y81227D01*
X194858Y81481D01*
X194350D01*
X194096Y81227D01*
Y80719D01*
X194350Y80465D01*
X195619D02*
Y81481D01*
X195873D01*
X196127Y81227D01*
Y80465D01*
Y81227D01*
X196381Y81481D01*
X196635Y81227D01*
Y80465D01*
X198666Y81989D02*
Y80465D01*
X199682D01*
X200444Y81481D02*
X200952D01*
X201205Y81227D01*
Y80465D01*
X200444D01*
X200190Y80719D01*
X200444Y80973D01*
X201205D01*
X201713Y81481D02*
Y80719D01*
X201967Y80465D01*
X202729D01*
Y80211D01*
X202475Y79957D01*
X202221D01*
X202729Y80465D02*
Y81481D01*
X203999Y80465D02*
X203491D01*
X203237Y80719D01*
Y81227D01*
X203491Y81481D01*
X203999D01*
X204252Y81227D01*
Y80973D01*
X203237D01*
X204760Y81481D02*
Y80465D01*
Y80973D01*
X205014Y81227D01*
X205268Y81481D01*
X205522D01*
X170227Y78179D02*
X171243D01*
X170735D01*
Y76655D01*
X172005D02*
X172513D01*
X172767Y76909D01*
Y77417D01*
X172513Y77671D01*
X172005D01*
X171751Y77417D01*
Y76909D01*
X172005Y76655D01*
X173274Y76147D02*
Y77671D01*
X174036D01*
X174290Y77417D01*
Y76909D01*
X174036Y76655D01*
X173274D01*
X176322Y78179D02*
Y76655D01*
X177337D01*
X178099Y77671D02*
X178607D01*
X178861Y77417D01*
Y76655D01*
X178099D01*
X177845Y76909D01*
X178099Y77163D01*
X178861D01*
X179369Y77671D02*
Y76909D01*
X179622Y76655D01*
X180384D01*
Y76401D01*
X180130Y76147D01*
X179876D01*
X180384Y76655D02*
Y77671D01*
X181654Y76655D02*
X181146D01*
X180892Y76909D01*
Y77417D01*
X181146Y77671D01*
X181654D01*
X181908Y77417D01*
Y77163D01*
X180892D01*
X182416Y77671D02*
Y76655D01*
Y77163D01*
X182669Y77417D01*
X182923Y77671D01*
X183177D01*
X185463Y77417D02*
X186478D01*
X188510Y78179D02*
Y76655D01*
X189271D01*
X189525Y76909D01*
Y77163D01*
X189271Y77417D01*
X188510D01*
X189271D01*
X189525Y77671D01*
Y77925D01*
X189271Y78179D01*
X188510D01*
X190287Y76655D02*
X190795D01*
X191049Y76909D01*
Y77417D01*
X190795Y77671D01*
X190287D01*
X190033Y77417D01*
Y76909D01*
X190287Y76655D01*
X191811Y77925D02*
Y77671D01*
X191557D01*
X192064D01*
X191811D01*
Y76909D01*
X192064Y76655D01*
X193080Y77925D02*
Y77671D01*
X192826D01*
X193334D01*
X193080D01*
Y76909D01*
X193334Y76655D01*
X194350D02*
X194858D01*
X195111Y76909D01*
Y77417D01*
X194858Y77671D01*
X194350D01*
X194096Y77417D01*
Y76909D01*
X194350Y76655D01*
X195619D02*
Y77671D01*
X195873D01*
X196127Y77417D01*
Y76655D01*
Y77417D01*
X196381Y77671D01*
X196635Y77417D01*
Y76655D01*
X198666Y78179D02*
Y76655D01*
X199682D01*
X200444Y77671D02*
X200952D01*
X201205Y77417D01*
Y76655D01*
X200444D01*
X200190Y76909D01*
X200444Y77163D01*
X201205D01*
X201713Y77671D02*
Y76909D01*
X201967Y76655D01*
X202729D01*
Y76401D01*
X202475Y76147D01*
X202221D01*
X202729Y76655D02*
Y77671D01*
X203999Y76655D02*
X203491D01*
X203237Y76909D01*
Y77417D01*
X203491Y77671D01*
X203999D01*
X204252Y77417D01*
Y77163D01*
X203237D01*
X204760Y77671D02*
Y76655D01*
Y77163D01*
X205014Y77417D01*
X205268Y77671D01*
X205522D01*
X170227Y74369D02*
X171243D01*
X170735D01*
Y72845D01*
X172005D02*
X172513D01*
X172767Y73099D01*
Y73607D01*
X172513Y73861D01*
X172005D01*
X171751Y73607D01*
Y73099D01*
X172005Y72845D01*
X173274Y72337D02*
Y73861D01*
X174036D01*
X174290Y73607D01*
Y73099D01*
X174036Y72845D01*
X173274D01*
X176322Y74369D02*
Y72845D01*
X177337D01*
X178099Y73861D02*
X178607D01*
X178861Y73607D01*
Y72845D01*
X178099D01*
X177845Y73099D01*
X178099Y73353D01*
X178861D01*
X179369Y73861D02*
Y73099D01*
X179622Y72845D01*
X180384D01*
Y72591D01*
X180130Y72337D01*
X179876D01*
X180384Y72845D02*
Y73861D01*
X181654Y72845D02*
X181146D01*
X180892Y73099D01*
Y73607D01*
X181146Y73861D01*
X181654D01*
X181908Y73607D01*
Y73353D01*
X180892D01*
X182416Y73861D02*
Y72845D01*
Y73353D01*
X182669Y73607D01*
X182923Y73861D01*
X183177D01*
X185463Y73607D02*
X186478D01*
X188510Y74369D02*
Y72845D01*
X189271D01*
X189525Y73099D01*
Y73353D01*
X189271Y73607D01*
X188510D01*
X189271D01*
X189525Y73861D01*
Y74115D01*
X189271Y74369D01*
X188510D01*
X190287Y72845D02*
X190795D01*
X191049Y73099D01*
Y73607D01*
X190795Y73861D01*
X190287D01*
X190033Y73607D01*
Y73099D01*
X190287Y72845D01*
X191811Y74115D02*
Y73861D01*
X191557D01*
X192064D01*
X191811D01*
Y73099D01*
X192064Y72845D01*
X193080Y74115D02*
Y73861D01*
X192826D01*
X193334D01*
X193080D01*
Y73099D01*
X193334Y72845D01*
X194350D02*
X194858D01*
X195111Y73099D01*
Y73607D01*
X194858Y73861D01*
X194350D01*
X194096Y73607D01*
Y73099D01*
X194350Y72845D01*
X195619D02*
Y73861D01*
X195873D01*
X196127Y73607D01*
Y72845D01*
Y73607D01*
X196381Y73861D01*
X196635Y73607D01*
Y72845D01*
X198666Y74369D02*
Y72845D01*
X199682D01*
X200444Y73861D02*
X200952D01*
X201205Y73607D01*
Y72845D01*
X200444D01*
X200190Y73099D01*
X200444Y73353D01*
X201205D01*
X201713Y73861D02*
Y73099D01*
X201967Y72845D01*
X202729D01*
Y72591D01*
X202475Y72337D01*
X202221D01*
X202729Y72845D02*
Y73861D01*
X203999Y72845D02*
X203491D01*
X203237Y73099D01*
Y73607D01*
X203491Y73861D01*
X203999D01*
X204252Y73607D01*
Y73353D01*
X203237D01*
X204760Y73861D02*
Y72845D01*
Y73353D01*
X205014Y73607D01*
X205268Y73861D01*
X205522D01*
X151589Y88085D02*
Y89609D01*
X152351D01*
X152605Y89355D01*
Y88847D01*
X152351Y88593D01*
X151589D01*
X152097D02*
X152605Y88085D01*
X153366D02*
X153874D01*
X154128Y88339D01*
Y88847D01*
X153874Y89101D01*
X153366D01*
X153112Y88847D01*
Y88339D01*
X153366Y88085D01*
X154636Y89101D02*
Y88339D01*
X154890Y88085D01*
X155652D01*
Y89101D01*
X156159Y88085D02*
Y89101D01*
X156921D01*
X157175Y88847D01*
Y88085D01*
X158699Y89609D02*
Y88085D01*
X157937D01*
X157683Y88339D01*
Y88847D01*
X157937Y89101D01*
X158699D01*
X152605Y85545D02*
X152351Y85799D01*
X151843D01*
X151589Y85545D01*
Y85291D01*
X151843Y85037D01*
X152351D01*
X152605Y84783D01*
Y84529D01*
X152351Y84275D01*
X151843D01*
X151589Y84529D01*
X153112Y84275D02*
X153620D01*
X153366D01*
Y85799D01*
X153112D01*
X154636Y84275D02*
X155144D01*
X155398Y84529D01*
Y85037D01*
X155144Y85291D01*
X154636D01*
X154382Y85037D01*
Y84529D01*
X154636Y84275D01*
X156159Y85545D02*
Y85291D01*
X155906D01*
X156413D01*
X156159D01*
Y84529D01*
X156413Y84275D01*
X151589Y80465D02*
Y81989D01*
X152351D01*
X152605Y81735D01*
Y81227D01*
X152351Y80973D01*
X151589D01*
X152097D02*
X152605Y80465D01*
X153366D02*
X153874D01*
X154128Y80719D01*
Y81227D01*
X153874Y81481D01*
X153366D01*
X153112Y81227D01*
Y80719D01*
X153366Y80465D01*
X154636Y81481D02*
Y80719D01*
X154890Y80465D01*
X155652D01*
Y81481D01*
X156159Y80465D02*
Y81481D01*
X156921D01*
X157175Y81227D01*
Y80465D01*
X158699Y81989D02*
Y80465D01*
X157937D01*
X157683Y80719D01*
Y81227D01*
X157937Y81481D01*
X158699D01*
X152605Y77925D02*
X152351Y78179D01*
X151843D01*
X151589Y77925D01*
Y77671D01*
X151843Y77417D01*
X152351D01*
X152605Y77163D01*
Y76909D01*
X152351Y76655D01*
X151843D01*
X151589Y76909D01*
X153112Y76655D02*
X153620D01*
X153366D01*
Y78179D01*
X153112D01*
X154636Y76655D02*
X155144D01*
X155398Y76909D01*
Y77417D01*
X155144Y77671D01*
X154636D01*
X154382Y77417D01*
Y76909D01*
X154636Y76655D01*
X156159Y77925D02*
Y77671D01*
X155906D01*
X156413D01*
X156159D01*
Y76909D01*
X156413Y76655D01*
X151589Y72845D02*
Y74369D01*
X152351D01*
X152605Y74115D01*
Y73607D01*
X152351Y73353D01*
X151589D01*
X152097D02*
X152605Y72845D01*
X153366D02*
X153874D01*
X154128Y73099D01*
Y73607D01*
X153874Y73861D01*
X153366D01*
X153112Y73607D01*
Y73099D01*
X153366Y72845D01*
X154636Y73861D02*
Y73099D01*
X154890Y72845D01*
X155652D01*
Y73861D01*
X156159Y72845D02*
Y73861D01*
X156921D01*
X157175Y73607D01*
Y72845D01*
X158699Y74369D02*
Y72845D01*
X157937D01*
X157683Y73099D01*
Y73607D01*
X157937Y73861D01*
X158699D01*
X138740Y88085D02*
Y89609D01*
X139501D01*
X139755Y89355D01*
Y88847D01*
X139501Y88593D01*
X138740D01*
X140263Y89609D02*
X141279D01*
X140771D01*
Y88085D01*
X141787Y89609D02*
Y88085D01*
Y88847D01*
X142802D01*
Y89609D01*
Y88085D01*
X138740Y84275D02*
Y85799D01*
X139501D01*
X139755Y85545D01*
Y85037D01*
X139501Y84783D01*
X138740D01*
X140263Y85799D02*
X141279D01*
X140771D01*
Y84275D01*
X141787Y85799D02*
Y84275D01*
Y85037D01*
X142802D01*
Y85799D01*
Y84275D01*
X138740Y80465D02*
Y81989D01*
X139501D01*
X139755Y81735D01*
Y81227D01*
X139501Y80973D01*
X138740D01*
X140263Y81989D02*
X141279D01*
X140771D01*
Y80465D01*
X141787Y81989D02*
Y80465D01*
Y81227D01*
X142802D01*
Y81989D01*
Y80465D01*
X138740Y76655D02*
Y78179D01*
X139501D01*
X139755Y77925D01*
Y77417D01*
X139501Y77163D01*
X138740D01*
X140263Y78179D02*
X141279D01*
X140771D01*
Y76655D01*
X141787Y78179D02*
Y76655D01*
Y77417D01*
X142802D01*
Y78179D01*
Y76655D01*
X138740Y72845D02*
Y74369D01*
X139501D01*
X139755Y74115D01*
Y73607D01*
X139501Y73353D01*
X138740D01*
X140263Y74369D02*
X141279D01*
X140771D01*
Y72845D01*
X141787Y74369D02*
Y72845D01*
Y73607D01*
X142802D01*
Y74369D01*
Y72845D01*
X111062Y89355D02*
X111316Y89609D01*
X111823D01*
X112077Y89355D01*
Y88339D01*
X111823Y88085D01*
X111316D01*
X111062Y88339D01*
Y89355D01*
X112585Y88085D02*
Y88339D01*
X112839D01*
Y88085D01*
X112585D01*
X114617D02*
Y89609D01*
X113855Y88847D01*
X114870D01*
X115378Y89355D02*
X115632Y89609D01*
X116140D01*
X116394Y89355D01*
Y88339D01*
X116140Y88085D01*
X115632D01*
X115378Y88339D01*
Y89355D01*
X116902D02*
X117156Y89609D01*
X117664D01*
X117918Y89355D01*
Y88339D01*
X117664Y88085D01*
X117156D01*
X116902Y88339D01*
Y89355D01*
X118425Y88085D02*
Y89101D01*
X118679D01*
X118933Y88847D01*
Y88085D01*
Y88847D01*
X119187Y89101D01*
X119441Y88847D01*
Y88085D01*
X119949D02*
Y89101D01*
X120203D01*
X120457Y88847D01*
Y88085D01*
Y88847D01*
X120711Y89101D01*
X120965Y88847D01*
Y88085D01*
X123504D02*
X122996Y88593D01*
Y89101D01*
X123504Y89609D01*
X124265Y88085D02*
X124773D01*
X124519D01*
Y89609D01*
X124265Y89355D01*
X126551Y89609D02*
X125535D01*
Y88847D01*
X126043Y89101D01*
X126297D01*
X126551Y88847D01*
Y88339D01*
X126297Y88085D01*
X125789D01*
X125535Y88339D01*
X127059Y88085D02*
Y88339D01*
X127312D01*
Y88085D01*
X127059D01*
X128328Y89609D02*
X129344D01*
Y89355D01*
X128328Y88339D01*
Y88085D01*
X130867Y89609D02*
X129852D01*
Y88847D01*
X130359Y89101D01*
X130613D01*
X130867Y88847D01*
Y88339D01*
X130613Y88085D01*
X130106D01*
X129852Y88339D01*
X131375Y88085D02*
Y89101D01*
X131629D01*
X131883Y88847D01*
Y88085D01*
Y88847D01*
X132137Y89101D01*
X132391Y88847D01*
Y88085D01*
X132899D02*
X133406D01*
X133153D01*
Y89101D01*
X132899D01*
X134168Y88085D02*
X134676D01*
X134422D01*
Y89609D01*
X134168D01*
X135438Y88085D02*
X135946Y88593D01*
Y89101D01*
X135438Y89609D01*
X111062Y85545D02*
X111316Y85799D01*
X111823D01*
X112077Y85545D01*
Y84529D01*
X111823Y84275D01*
X111316D01*
X111062Y84529D01*
Y85545D01*
X112585Y84275D02*
Y84529D01*
X112839D01*
Y84275D01*
X112585D01*
X113855Y85545D02*
X114109Y85799D01*
X114617D01*
X114870Y85545D01*
Y85291D01*
X114617Y85037D01*
X114870Y84783D01*
Y84529D01*
X114617Y84275D01*
X114109D01*
X113855Y84529D01*
Y84783D01*
X114109Y85037D01*
X113855Y85291D01*
Y85545D01*
X114109Y85037D02*
X114617D01*
X115378Y85545D02*
X115632Y85799D01*
X116140D01*
X116394Y85545D01*
Y84529D01*
X116140Y84275D01*
X115632D01*
X115378Y84529D01*
Y85545D01*
X116902D02*
X117156Y85799D01*
X117664D01*
X117918Y85545D01*
Y84529D01*
X117664Y84275D01*
X117156D01*
X116902Y84529D01*
Y85545D01*
X118425Y84275D02*
Y85291D01*
X118679D01*
X118933Y85037D01*
Y84275D01*
Y85037D01*
X119187Y85291D01*
X119441Y85037D01*
Y84275D01*
X119949D02*
Y85291D01*
X120203D01*
X120457Y85037D01*
Y84275D01*
Y85037D01*
X120711Y85291D01*
X120965Y85037D01*
Y84275D01*
X123504D02*
X122996Y84783D01*
Y85291D01*
X123504Y85799D01*
X124265Y85545D02*
X124519Y85799D01*
X125027D01*
X125281Y85545D01*
Y85291D01*
X125027Y85037D01*
X124773D01*
X125027D01*
X125281Y84783D01*
Y84529D01*
X125027Y84275D01*
X124519D01*
X124265Y84529D01*
X125789Y84275D02*
X126297D01*
X126043D01*
Y85799D01*
X125789Y85545D01*
X127059Y84275D02*
Y84529D01*
X127312D01*
Y84275D01*
X127059D01*
X129344Y85799D02*
X128328D01*
Y85037D01*
X128836Y85291D01*
X129090D01*
X129344Y85037D01*
Y84529D01*
X129090Y84275D01*
X128582D01*
X128328Y84529D01*
X129852Y85545D02*
X130106Y85799D01*
X130613D01*
X130867Y85545D01*
Y84529D01*
X130613Y84275D01*
X130106D01*
X129852Y84529D01*
Y85545D01*
X131375Y84275D02*
Y85291D01*
X131629D01*
X131883Y85037D01*
Y84275D01*
Y85037D01*
X132137Y85291D01*
X132391Y85037D01*
Y84275D01*
X132899D02*
X133406D01*
X133153D01*
Y85291D01*
X132899D01*
X134168Y84275D02*
X134676D01*
X134422D01*
Y85799D01*
X134168D01*
X135438Y84275D02*
X135946Y84783D01*
Y85291D01*
X135438Y85799D01*
X111062Y80465D02*
X111570D01*
X111316D01*
Y81989D01*
X111062Y81735D01*
X112331Y80465D02*
Y80719D01*
X112585D01*
Y80465D01*
X112331D01*
X113601Y81735D02*
X113855Y81989D01*
X114363D01*
X114617Y81735D01*
Y80719D01*
X114363Y80465D01*
X113855D01*
X113601Y80719D01*
Y81735D01*
X115124D02*
X115378Y81989D01*
X115886D01*
X116140Y81735D01*
Y80719D01*
X115886Y80465D01*
X115378D01*
X115124Y80719D01*
Y81735D01*
X116648D02*
X116902Y81989D01*
X117410D01*
X117664Y81735D01*
Y80719D01*
X117410Y80465D01*
X116902D01*
X116648Y80719D01*
Y81735D01*
X118171Y80465D02*
Y81481D01*
X118425D01*
X118679Y81227D01*
Y80465D01*
Y81227D01*
X118933Y81481D01*
X119187Y81227D01*
Y80465D01*
X119695D02*
Y81481D01*
X119949D01*
X120203Y81227D01*
Y80465D01*
Y81227D01*
X120457Y81481D01*
X120711Y81227D01*
Y80465D01*
X123250D02*
X122742Y80973D01*
Y81481D01*
X123250Y81989D01*
X124012Y81735D02*
X124265Y81989D01*
X124773D01*
X125027Y81735D01*
Y81481D01*
X124773Y81227D01*
X124519D01*
X124773D01*
X125027Y80973D01*
Y80719D01*
X124773Y80465D01*
X124265D01*
X124012Y80719D01*
X125535D02*
X125789Y80465D01*
X126297D01*
X126551Y80719D01*
Y81735D01*
X126297Y81989D01*
X125789D01*
X125535Y81735D01*
Y81481D01*
X125789Y81227D01*
X126551D01*
X127059Y80465D02*
Y80719D01*
X127312D01*
Y80465D01*
X127059D01*
X128328Y81735D02*
X128582Y81989D01*
X129090D01*
X129344Y81735D01*
Y81481D01*
X129090Y81227D01*
X128836D01*
X129090D01*
X129344Y80973D01*
Y80719D01*
X129090Y80465D01*
X128582D01*
X128328Y80719D01*
X129852Y81989D02*
X130867D01*
Y81735D01*
X129852Y80719D01*
Y80465D01*
X131375D02*
Y81481D01*
X131629D01*
X131883Y81227D01*
Y80465D01*
Y81227D01*
X132137Y81481D01*
X132391Y81227D01*
Y80465D01*
X132899D02*
X133406D01*
X133153D01*
Y81481D01*
X132899D01*
X134168Y80465D02*
X134676D01*
X134422D01*
Y81989D01*
X134168D01*
X135438Y80465D02*
X135946Y80973D01*
Y81481D01*
X135438Y81989D01*
X111062Y76655D02*
X111570D01*
X111316D01*
Y78179D01*
X111062Y77925D01*
X112331Y76655D02*
Y76909D01*
X112585D01*
Y76655D01*
X112331D01*
X113601Y77925D02*
X113855Y78179D01*
X114363D01*
X114617Y77925D01*
Y76909D01*
X114363Y76655D01*
X113855D01*
X113601Y76909D01*
Y77925D01*
X115124D02*
X115378Y78179D01*
X115886D01*
X116140Y77925D01*
Y76909D01*
X115886Y76655D01*
X115378D01*
X115124Y76909D01*
Y77925D01*
X116648D02*
X116902Y78179D01*
X117410D01*
X117664Y77925D01*
Y76909D01*
X117410Y76655D01*
X116902D01*
X116648Y76909D01*
Y77925D01*
X118171Y76655D02*
Y77671D01*
X118425D01*
X118679Y77417D01*
Y76655D01*
Y77417D01*
X118933Y77671D01*
X119187Y77417D01*
Y76655D01*
X119695D02*
Y77671D01*
X119949D01*
X120203Y77417D01*
Y76655D01*
Y77417D01*
X120457Y77671D01*
X120711Y77417D01*
Y76655D01*
X123250D02*
X122742Y77163D01*
Y77671D01*
X123250Y78179D01*
X124012Y77925D02*
X124265Y78179D01*
X124773D01*
X125027Y77925D01*
Y77671D01*
X124773Y77417D01*
X124519D01*
X124773D01*
X125027Y77163D01*
Y76909D01*
X124773Y76655D01*
X124265D01*
X124012Y76909D01*
X125535D02*
X125789Y76655D01*
X126297D01*
X126551Y76909D01*
Y77925D01*
X126297Y78179D01*
X125789D01*
X125535Y77925D01*
Y77671D01*
X125789Y77417D01*
X126551D01*
X127059Y76655D02*
Y76909D01*
X127312D01*
Y76655D01*
X127059D01*
X128328Y77925D02*
X128582Y78179D01*
X129090D01*
X129344Y77925D01*
Y77671D01*
X129090Y77417D01*
X128836D01*
X129090D01*
X129344Y77163D01*
Y76909D01*
X129090Y76655D01*
X128582D01*
X128328Y76909D01*
X129852Y78179D02*
X130867D01*
Y77925D01*
X129852Y76909D01*
Y76655D01*
X131375D02*
Y77671D01*
X131629D01*
X131883Y77417D01*
Y76655D01*
Y77417D01*
X132137Y77671D01*
X132391Y77417D01*
Y76655D01*
X132899D02*
X133406D01*
X133153D01*
Y77671D01*
X132899D01*
X134168Y76655D02*
X134676D01*
X134422D01*
Y78179D01*
X134168D01*
X135438Y76655D02*
X135946Y77163D01*
Y77671D01*
X135438Y78179D01*
X112077Y72845D02*
X111062D01*
X112077Y73861D01*
Y74115D01*
X111823Y74369D01*
X111316D01*
X111062Y74115D01*
X112585Y72845D02*
Y73099D01*
X112839D01*
Y72845D01*
X112585D01*
X114870D02*
X113855D01*
X114870Y73861D01*
Y74115D01*
X114617Y74369D01*
X114109D01*
X113855Y74115D01*
X115378D02*
X115632Y74369D01*
X116140D01*
X116394Y74115D01*
Y73099D01*
X116140Y72845D01*
X115632D01*
X115378Y73099D01*
Y74115D01*
X116902D02*
X117156Y74369D01*
X117664D01*
X117918Y74115D01*
Y73099D01*
X117664Y72845D01*
X117156D01*
X116902Y73099D01*
Y74115D01*
X118425Y72845D02*
Y73861D01*
X118679D01*
X118933Y73607D01*
Y72845D01*
Y73607D01*
X119187Y73861D01*
X119441Y73607D01*
Y72845D01*
X119949D02*
Y73861D01*
X120203D01*
X120457Y73607D01*
Y72845D01*
Y73607D01*
X120711Y73861D01*
X120965Y73607D01*
Y72845D01*
X123504D02*
X122996Y73353D01*
Y73861D01*
X123504Y74369D01*
X124265Y74115D02*
X124519Y74369D01*
X125027D01*
X125281Y74115D01*
Y73861D01*
X125027Y73607D01*
X125281Y73353D01*
Y73099D01*
X125027Y72845D01*
X124519D01*
X124265Y73099D01*
Y73353D01*
X124519Y73607D01*
X124265Y73861D01*
Y74115D01*
X124519Y73607D02*
X125027D01*
X126805Y74369D02*
X126297Y74115D01*
X125789Y73607D01*
Y73099D01*
X126043Y72845D01*
X126551D01*
X126805Y73099D01*
Y73353D01*
X126551Y73607D01*
X125789D01*
X127312Y72845D02*
Y73099D01*
X127566D01*
Y72845D01*
X127312D01*
X129598Y74369D02*
X129090Y74115D01*
X128582Y73607D01*
Y73099D01*
X128836Y72845D01*
X129344D01*
X129598Y73099D01*
Y73353D01*
X129344Y73607D01*
X128582D01*
X130106Y72845D02*
X130613D01*
X130359D01*
Y74369D01*
X130106Y74115D01*
X131375Y72845D02*
Y73861D01*
X131629D01*
X131883Y73607D01*
Y72845D01*
Y73607D01*
X132137Y73861D01*
X132391Y73607D01*
Y72845D01*
X132899D02*
X133406D01*
X133153D01*
Y73861D01*
X132899D01*
X134168Y72845D02*
X134676D01*
X134422D01*
Y74369D01*
X134168D01*
X135438Y72845D02*
X135946Y73353D01*
Y73861D01*
X135438Y74369D01*
X95826Y70305D02*
X96080Y70559D01*
X96588D01*
X96841Y70305D01*
Y70051D01*
X96588Y69797D01*
X96334D01*
X96588D01*
X96841Y69543D01*
Y69289D01*
X96588Y69035D01*
X96080D01*
X95826Y69289D01*
X98365Y70559D02*
X97349D01*
Y69797D01*
X97857Y70051D01*
X98111D01*
X98365Y69797D01*
Y69289D01*
X98111Y69035D01*
X97603D01*
X97349Y69289D01*
X98873Y70305D02*
X99127Y70559D01*
X99635D01*
X99888Y70305D01*
Y70051D01*
X99635Y69797D01*
X99888Y69543D01*
Y69289D01*
X99635Y69035D01*
X99127D01*
X98873Y69289D01*
Y69543D01*
X99127Y69797D01*
X98873Y70051D01*
Y70305D01*
X99127Y69797D02*
X99635D01*
X101920Y70559D02*
X102935D01*
X102428D01*
Y69035D01*
X103697D02*
X104205D01*
X104459Y69289D01*
Y69797D01*
X104205Y70051D01*
X103697D01*
X103443Y69797D01*
Y69289D01*
X103697Y69035D01*
X105221Y70305D02*
Y70051D01*
X104967D01*
X105475D01*
X105221D01*
Y69289D01*
X105475Y69035D01*
X106490Y70051D02*
X106998D01*
X107252Y69797D01*
Y69035D01*
X106490D01*
X106236Y69289D01*
X106490Y69543D01*
X107252D01*
X107760Y69035D02*
X108268D01*
X108014D01*
Y70559D01*
X107760D01*
X96841Y88085D02*
X95826D01*
X96841Y89101D01*
Y89355D01*
X96588Y89609D01*
X96080D01*
X95826Y89355D01*
X97349Y88339D02*
X97603Y88085D01*
X98111D01*
X98365Y88339D01*
Y89355D01*
X98111Y89609D01*
X97603D01*
X97349Y89355D01*
Y89101D01*
X97603Y88847D01*
X98365D01*
X98873Y89355D02*
X99127Y89609D01*
X99635D01*
X99888Y89355D01*
Y89101D01*
X99635Y88847D01*
X99888Y88593D01*
Y88339D01*
X99635Y88085D01*
X99127D01*
X98873Y88339D01*
Y88593D01*
X99127Y88847D01*
X98873Y89101D01*
Y89355D01*
X99127Y88847D02*
X99635D01*
X96841Y84275D02*
X95826D01*
X96841Y85291D01*
Y85545D01*
X96588Y85799D01*
X96080D01*
X95826Y85545D01*
X98111Y84275D02*
Y85799D01*
X97349Y85037D01*
X98365D01*
X96841Y80465D02*
X95826D01*
X96841Y81481D01*
Y81735D01*
X96588Y81989D01*
X96080D01*
X95826Y81735D01*
X98365Y80465D02*
X97349D01*
X98365Y81481D01*
Y81735D01*
X98111Y81989D01*
X97603D01*
X97349Y81735D01*
X96841Y78179D02*
X96334Y77925D01*
X95826Y77417D01*
Y76909D01*
X96080Y76655D01*
X96588D01*
X96841Y76909D01*
Y77163D01*
X96588Y77417D01*
X95826D01*
Y74115D02*
X96080Y74369D01*
X96588D01*
X96841Y74115D01*
Y73861D01*
X96588Y73607D01*
X96841Y73353D01*
Y73099D01*
X96588Y72845D01*
X96080D01*
X95826Y73099D01*
Y73353D01*
X96080Y73607D01*
X95826Y73861D01*
Y74115D01*
X96080Y73607D02*
X96588D01*
X128327Y63321D02*
X129343D01*
X128327Y63829D02*
X129343D01*
X131374Y62813D02*
Y64337D01*
X132136D01*
X132390Y64083D01*
Y63575D01*
X132136Y63321D01*
X131374D01*
X131882D02*
X132390Y62813D01*
X133152D02*
X133660D01*
X133914Y63067D01*
Y63575D01*
X133660Y63829D01*
X133152D01*
X132898Y63575D01*
Y63067D01*
X133152Y62813D01*
X134421Y63829D02*
Y63067D01*
X134675Y62813D01*
X135437D01*
Y63829D01*
X136199Y64083D02*
Y63829D01*
X135945D01*
X136453D01*
X136199D01*
Y63067D01*
X136453Y62813D01*
X137976D02*
X137468D01*
X137215Y63067D01*
Y63575D01*
X137468Y63829D01*
X137976D01*
X138230Y63575D01*
Y63321D01*
X137215D01*
X139754Y64337D02*
Y62813D01*
X138992D01*
X138738Y63067D01*
Y63575D01*
X138992Y63829D01*
X139754D01*
X141785Y62813D02*
Y64337D01*
X142547D01*
X142801Y64083D01*
Y63575D01*
X142547Y63321D01*
X141785D01*
X143562Y63829D02*
X144070D01*
X144324Y63575D01*
Y62813D01*
X143562D01*
X143309Y63067D01*
X143562Y63321D01*
X144324D01*
X145086Y64083D02*
Y63829D01*
X144832D01*
X145340D01*
X145086D01*
Y63067D01*
X145340Y62813D01*
X146102Y64337D02*
Y62813D01*
Y63575D01*
X146356Y63829D01*
X146863D01*
X147117Y63575D01*
Y62813D01*
X149149Y64337D02*
Y62813D01*
X150164D01*
X151434D02*
X150926D01*
X150672Y63067D01*
Y63575D01*
X150926Y63829D01*
X151434D01*
X151688Y63575D01*
Y63321D01*
X150672D01*
X152196Y62813D02*
Y63829D01*
X152957D01*
X153211Y63575D01*
Y62813D01*
X154227Y62306D02*
X154481D01*
X154735Y62560D01*
Y63829D01*
X153973D01*
X153719Y63575D01*
Y63067D01*
X153973Y62813D01*
X154735D01*
X155497Y64083D02*
Y63829D01*
X155243D01*
X155751D01*
X155497D01*
Y63067D01*
X155751Y62813D01*
X156512Y64337D02*
Y62813D01*
Y63575D01*
X156766Y63829D01*
X157274D01*
X157528Y63575D01*
Y62813D01*
X159559Y63575D02*
X160575D01*
X160067Y64083D02*
Y63067D01*
X162606Y64337D02*
X163622D01*
X163114D01*
Y62813D01*
X164384D02*
X164892D01*
X165146Y63067D01*
Y63575D01*
X164892Y63829D01*
X164384D01*
X164130Y63575D01*
Y63067D01*
X164384Y62813D01*
X165907D02*
X166415D01*
X166669Y63067D01*
Y63575D01*
X166415Y63829D01*
X165907D01*
X165653Y63575D01*
Y63067D01*
X165907Y62813D01*
X167177D02*
X167685D01*
X167431D01*
Y64337D01*
X167177D01*
X170986Y64083D02*
X170732Y64337D01*
X170224D01*
X169970Y64083D01*
Y63829D01*
X170224Y63575D01*
X170732D01*
X170986Y63321D01*
Y63067D01*
X170732Y62813D01*
X170224D01*
X169970Y63067D01*
X171493Y62813D02*
X172001D01*
X171747D01*
Y63829D01*
X171493D01*
X172763D02*
X173779D01*
X172763Y62813D01*
X173779D01*
X175048D02*
X174540D01*
X174287Y63067D01*
Y63575D01*
X174540Y63829D01*
X175048D01*
X175302Y63575D01*
Y63321D01*
X174287D01*
X177334D02*
X178349D01*
X177334Y63829D02*
X178349D01*
X181396Y64083D02*
X181142Y64337D01*
X180635D01*
X180381Y64083D01*
Y63829D01*
X180635Y63575D01*
X181142D01*
X181396Y63321D01*
Y63067D01*
X181142Y62813D01*
X180635D01*
X180381Y63067D01*
X181904Y62813D02*
X182412D01*
X182158D01*
Y64337D01*
X181904D01*
X183428Y62813D02*
X183935D01*
X184189Y63067D01*
Y63575D01*
X183935Y63829D01*
X183428D01*
X183174Y63575D01*
Y63067D01*
X183428Y62813D01*
X184951Y64083D02*
Y63829D01*
X184697D01*
X185205D01*
X184951D01*
Y63067D01*
X185205Y62813D01*
X187490D02*
X187998D01*
X187744D01*
Y64337D01*
X187490D01*
X189522Y62813D02*
X189014D01*
X188760Y63067D01*
Y63575D01*
X189014Y63829D01*
X189522D01*
X189776Y63575D01*
Y63321D01*
X188760D01*
X190283Y62813D02*
Y63829D01*
X191045D01*
X191299Y63575D01*
Y62813D01*
X192315Y62306D02*
X192569D01*
X192823Y62560D01*
Y63829D01*
X192061D01*
X191807Y63575D01*
Y63067D01*
X192061Y62813D01*
X192823D01*
X193584Y64083D02*
Y63829D01*
X193330D01*
X193838D01*
X193584D01*
Y63067D01*
X193838Y62813D01*
X194600Y64337D02*
Y62813D01*
Y63575D01*
X194854Y63829D01*
X195362D01*
X195616Y63575D01*
Y62813D01*
X197901Y63829D02*
X198409D01*
X198663Y63575D01*
Y62813D01*
X197901D01*
X197647Y63067D01*
X197901Y63321D01*
X198663D01*
X199171Y62813D02*
X199932D01*
X200186Y63067D01*
X199932Y63321D01*
X199424D01*
X199171Y63575D01*
X199424Y63829D01*
X200186D01*
X203233Y64337D02*
Y62813D01*
X202471D01*
X202218Y63067D01*
Y63575D01*
X202471Y63829D01*
X203233D01*
X204503Y62813D02*
X203995D01*
X203741Y63067D01*
Y63575D01*
X203995Y63829D01*
X204503D01*
X204757Y63575D01*
Y63321D01*
X203741D01*
X205518Y62813D02*
Y64083D01*
Y63575D01*
X205265D01*
X205772D01*
X205518D01*
Y64083D01*
X205772Y64337D01*
X206534Y62813D02*
X207042D01*
X206788D01*
Y63829D01*
X206534D01*
X207804Y62813D02*
Y63829D01*
X208565D01*
X208819Y63575D01*
Y62813D01*
X210089D02*
X209581D01*
X209327Y63067D01*
Y63575D01*
X209581Y63829D01*
X210089D01*
X210343Y63575D01*
Y63321D01*
X209327D01*
X211866Y64337D02*
Y62813D01*
X211105D01*
X210851Y63067D01*
Y63575D01*
X211105Y63829D01*
X211866D01*
X213898Y62813D02*
X214406D01*
X214152D01*
Y63829D01*
X213898D01*
X215167Y62813D02*
Y63829D01*
X215929D01*
X216183Y63575D01*
Y62813D01*
X218468Y64083D02*
Y63829D01*
X218214D01*
X218722D01*
X218468D01*
Y63067D01*
X218722Y62813D01*
X219484Y64337D02*
Y62813D01*
Y63575D01*
X219738Y63829D01*
X220246D01*
X220500Y63575D01*
Y62813D01*
X221769D02*
X221261D01*
X221007Y63067D01*
Y63575D01*
X221261Y63829D01*
X221769D01*
X222023Y63575D01*
Y63321D01*
X221007D01*
X224054Y62813D02*
Y64337D01*
X224816D01*
X225070Y64083D01*
Y63575D01*
X224816Y63321D01*
X224054D01*
X226594Y64083D02*
X226340Y64337D01*
X225832D01*
X225578Y64083D01*
Y63067D01*
X225832Y62813D01*
X226340D01*
X226594Y63067D01*
X227101Y64337D02*
Y62813D01*
X227863D01*
X228117Y63067D01*
Y63321D01*
X227863Y63575D01*
X227101D01*
X227863D01*
X228117Y63829D01*
Y64083D01*
X227863Y64337D01*
X227101D01*
X230148Y62813D02*
X230656D01*
X230402D01*
Y64337D01*
X230148D01*
X231672Y63829D02*
X232180D01*
X232434Y63575D01*
Y62813D01*
X231672D01*
X231418Y63067D01*
X231672Y63321D01*
X232434D01*
X232942Y63829D02*
Y63067D01*
X233195Y62813D01*
X233957D01*
Y62560D01*
X233703Y62306D01*
X233449D01*
X233957Y62813D02*
Y63829D01*
X234719Y62813D02*
X235227D01*
X235481Y63067D01*
Y63575D01*
X235227Y63829D01*
X234719D01*
X234465Y63575D01*
Y63067D01*
X234719Y62813D01*
X235989Y63829D02*
Y63067D01*
X236243Y62813D01*
X237004D01*
Y63829D01*
X237766Y64083D02*
Y63829D01*
X237512D01*
X238020D01*
X237766D01*
Y63067D01*
X238020Y62813D01*
X137215Y65861D02*
X138230D01*
X137215Y66368D02*
X138230D01*
X141277Y66622D02*
X141023Y66876D01*
X140515D01*
X140262Y66622D01*
Y65607D01*
X140515Y65353D01*
X141023D01*
X141277Y65607D01*
X142039Y66368D02*
X142547D01*
X142801Y66115D01*
Y65353D01*
X142039D01*
X141785Y65607D01*
X142039Y65861D01*
X142801D01*
X143309Y65353D02*
X143816D01*
X143562D01*
Y66876D01*
X143309D01*
X145594Y66368D02*
X144832D01*
X144578Y66115D01*
Y65607D01*
X144832Y65353D01*
X145594D01*
X146102Y66368D02*
Y65607D01*
X146356Y65353D01*
X147117D01*
Y66368D01*
X147625Y65353D02*
X148133D01*
X147879D01*
Y66876D01*
X147625D01*
X149149Y66368D02*
X149657D01*
X149910Y66115D01*
Y65353D01*
X149149D01*
X148895Y65607D01*
X149149Y65861D01*
X149910D01*
X150672Y66622D02*
Y66368D01*
X150418D01*
X150926D01*
X150672D01*
Y65607D01*
X150926Y65353D01*
X152450D02*
X151942D01*
X151688Y65607D01*
Y66115D01*
X151942Y66368D01*
X152450D01*
X152704Y66115D01*
Y65861D01*
X151688D01*
X154227Y66876D02*
Y65353D01*
X153465D01*
X153211Y65607D01*
Y66115D01*
X153465Y66368D01*
X154227D01*
X156512Y65353D02*
Y66622D01*
Y66115D01*
X156258D01*
X156766D01*
X156512D01*
Y66622D01*
X156766Y66876D01*
X157528Y66368D02*
Y65353D01*
Y65861D01*
X157782Y66115D01*
X158036Y66368D01*
X158290D01*
X159305Y65353D02*
X159813D01*
X160067Y65607D01*
Y66115D01*
X159813Y66368D01*
X159305D01*
X159051Y66115D01*
Y65607D01*
X159305Y65353D01*
X160575D02*
Y66368D01*
X160829D01*
X161083Y66115D01*
Y65353D01*
Y66115D01*
X161337Y66368D01*
X161591Y66115D01*
Y65353D01*
X163876Y66622D02*
Y66368D01*
X163622D01*
X164130D01*
X163876D01*
Y65607D01*
X164130Y65353D01*
X165146D02*
X165653D01*
X165907Y65607D01*
Y66115D01*
X165653Y66368D01*
X165146D01*
X164892Y66115D01*
Y65607D01*
X165146Y65353D01*
X166669D02*
X167177D01*
X167431Y65607D01*
Y66115D01*
X167177Y66368D01*
X166669D01*
X166415Y66115D01*
Y65607D01*
X166669Y65353D01*
X167939D02*
X168446D01*
X168193D01*
Y66876D01*
X167939D01*
X170732Y65353D02*
X171493D01*
X171747Y65607D01*
X171493Y65861D01*
X170986D01*
X170732Y66115D01*
X170986Y66368D01*
X171747D01*
X172509Y66622D02*
Y66368D01*
X172255D01*
X172763D01*
X172509D01*
Y65607D01*
X172763Y65353D01*
X173779Y66368D02*
X174287D01*
X174540Y66115D01*
Y65353D01*
X173779D01*
X173525Y65607D01*
X173779Y65861D01*
X174540D01*
X175048Y66368D02*
Y65353D01*
Y65861D01*
X175302Y66115D01*
X175556Y66368D01*
X175810D01*
X176826Y66622D02*
Y66368D01*
X176572D01*
X177080D01*
X176826D01*
Y65607D01*
X177080Y65353D01*
X180381Y66368D02*
X179619D01*
X179365Y66115D01*
Y65607D01*
X179619Y65353D01*
X180381D01*
X181650D02*
X181142D01*
X180888Y65607D01*
Y66115D01*
X181142Y66368D01*
X181650D01*
X181904Y66115D01*
Y65861D01*
X180888D01*
X182412Y65353D02*
Y66368D01*
X183174D01*
X183428Y66115D01*
Y65353D01*
X184189Y66622D02*
Y66368D01*
X183935D01*
X184443D01*
X184189D01*
Y65607D01*
X184443Y65353D01*
X185205Y66368D02*
Y65353D01*
Y65861D01*
X185459Y66115D01*
X185713Y66368D01*
X185967D01*
X187490Y65353D02*
X186982D01*
X186729Y65607D01*
Y66115D01*
X186982Y66368D01*
X187490D01*
X187744Y66115D01*
Y65861D01*
X186729D01*
X189776Y64845D02*
Y66368D01*
X190537D01*
X190791Y66115D01*
Y65607D01*
X190537Y65353D01*
X189776D01*
X191553D02*
X192061D01*
X192315Y65607D01*
Y66115D01*
X192061Y66368D01*
X191553D01*
X191299Y66115D01*
Y65607D01*
X191553Y65353D01*
X192823D02*
X193584D01*
X193838Y65607D01*
X193584Y65861D01*
X193076D01*
X192823Y66115D01*
X193076Y66368D01*
X193838D01*
X194346Y65353D02*
X194854D01*
X194600D01*
Y66368D01*
X194346D01*
X195870Y66622D02*
Y66368D01*
X195616D01*
X196123D01*
X195870D01*
Y65607D01*
X196123Y65353D01*
X196885D02*
X197393D01*
X197139D01*
Y66368D01*
X196885D01*
X198409Y65353D02*
X198917D01*
X199171Y65607D01*
Y66115D01*
X198917Y66368D01*
X198409D01*
X198155Y66115D01*
Y65607D01*
X198409Y65353D01*
X199678D02*
Y66368D01*
X200440D01*
X200694Y66115D01*
Y65353D01*
X202979Y66622D02*
Y66368D01*
X202725D01*
X203233D01*
X202979D01*
Y65607D01*
X203233Y65353D01*
X204249D02*
X204757D01*
X205011Y65607D01*
Y66115D01*
X204757Y66368D01*
X204249D01*
X203995Y66115D01*
Y65607D01*
X204249Y65353D01*
X207296Y66622D02*
Y66368D01*
X207042D01*
X207550D01*
X207296D01*
Y65607D01*
X207550Y65353D01*
X208565D02*
X209073D01*
X209327Y65607D01*
Y66115D01*
X209073Y66368D01*
X208565D01*
X208312Y66115D01*
Y65607D01*
X208565Y65353D01*
X210089D02*
X210597D01*
X210851Y65607D01*
Y66115D01*
X210597Y66368D01*
X210089D01*
X209835Y66115D01*
Y65607D01*
X210089Y65353D01*
X211359D02*
X211866D01*
X211612D01*
Y66876D01*
X211359D01*
X214913Y65353D02*
X214406D01*
X214152Y65607D01*
Y66115D01*
X214406Y66368D01*
X214913D01*
X215167Y66115D01*
Y65861D01*
X214152D01*
X215675Y65353D02*
Y66368D01*
X216437D01*
X216691Y66115D01*
Y65353D01*
X218214Y66876D02*
Y65353D01*
X217453D01*
X217199Y65607D01*
Y66115D01*
X217453Y66368D01*
X218214D01*
X221261D02*
X220500D01*
X220246Y66115D01*
Y65607D01*
X220500Y65353D01*
X221261D01*
X222531D02*
X222023D01*
X221769Y65607D01*
Y66115D01*
X222023Y66368D01*
X222531D01*
X222785Y66115D01*
Y65861D01*
X221769D01*
X223293Y65353D02*
Y66368D01*
X224054D01*
X224308Y66115D01*
Y65353D01*
X225070Y66622D02*
Y66368D01*
X224816D01*
X225324D01*
X225070D01*
Y65607D01*
X225324Y65353D01*
X226086Y66368D02*
Y65353D01*
Y65861D01*
X226340Y66115D01*
X226594Y66368D01*
X226848D01*
X228371Y65353D02*
X227863D01*
X227609Y65607D01*
Y66115D01*
X227863Y66368D01*
X228371D01*
X228625Y66115D01*
Y65861D01*
X227609D01*
X230656Y64845D02*
Y66368D01*
X231418D01*
X231672Y66115D01*
Y65607D01*
X231418Y65353D01*
X230656D01*
X232434D02*
X232942D01*
X233195Y65607D01*
Y66115D01*
X232942Y66368D01*
X232434D01*
X232180Y66115D01*
Y65607D01*
X232434Y65353D01*
X233703D02*
X234465D01*
X234719Y65607D01*
X234465Y65861D01*
X233957D01*
X233703Y66115D01*
X233957Y66368D01*
X234719D01*
X235227Y65353D02*
X235735D01*
X235481D01*
Y66368D01*
X235227D01*
X236750Y66622D02*
Y66368D01*
X236496D01*
X237004D01*
X236750D01*
Y65607D01*
X237004Y65353D01*
X237766D02*
X238274D01*
X238020D01*
Y66368D01*
X237766D01*
X239290Y65353D02*
X239797D01*
X240051Y65607D01*
Y66115D01*
X239797Y66368D01*
X239290D01*
X239036Y66115D01*
Y65607D01*
X239290Y65353D01*
X240559D02*
Y66368D01*
X241321D01*
X241575Y66115D01*
Y65353D01*
X242083D02*
Y65607D01*
X242337D01*
Y65353D01*
X242083D01*
D47*
X80690Y90752D02*
X284647D01*
X80690Y71702D02*
X284647D01*
X80690Y67892D02*
X284647D01*
Y94562D01*
X80690D02*
X284647D01*
X80690Y67892D02*
Y94562D01*
X241098Y67892D02*
Y94562D01*
X222155Y67892D02*
Y94562D01*
X207173Y67892D02*
Y94562D01*
X169084Y67892D02*
Y94562D01*
X150446Y67892D02*
Y94562D01*
X137597Y67892D02*
Y94562D01*
X109919Y67892D02*
Y94562D01*
X94683Y67892D02*
Y94562D01*
D50*
X109754Y176500D02*
G03*
X109754Y176500I-254J0D01*
G01*
X112254D02*
G03*
X112254Y176500I-254J0D01*
G01*
X114754D02*
G03*
X114754Y176500I-254J0D01*
G01*
X85754D02*
G03*
X85754Y176500I-254J0D01*
G01*
X88254D02*
G03*
X88254Y176500I-254J0D01*
G01*
X90754D02*
G03*
X90754Y176500I-254J0D01*
G01*
X109754Y200500D02*
G03*
X109754Y200500I-254J0D01*
G01*
X112254D02*
G03*
X112254Y200500I-254J0D01*
G01*
X114754D02*
G03*
X114754Y200500I-254J0D01*
G01*
X85754D02*
G03*
X85754Y200500I-254J0D01*
G01*
X88254D02*
G03*
X88254Y200500I-254J0D01*
G01*
X90754D02*
G03*
X90754Y200500I-254J0D01*
G01*
X101524Y178670D02*
G03*
X101524Y178670I-254J0D01*
G01*
X98984D02*
G03*
X98984Y178670I-254J0D01*
G01*
Y181210D02*
G03*
X98984Y181210I-254J0D01*
G01*
X101524D02*
G03*
X101524Y181210I-254J0D01*
G01*
Y183750D02*
G03*
X101524Y183750I-254J0D01*
G01*
X98984D02*
G03*
X98984Y183750I-254J0D01*
G01*
Y186290D02*
G03*
X98984Y186290I-254J0D01*
G01*
X101524D02*
G03*
X101524Y186290I-254J0D01*
G01*
X98984Y188830D02*
G03*
X98984Y188830I-254J0D01*
G01*
X101524D02*
G03*
X101524Y188830I-254J0D01*
G01*
X110971Y167121D02*
X111225Y167248D01*
X111479Y167121D01*
X111352Y167375D02*
X111479Y167121D01*
X111352Y167375D02*
X111479Y167629D01*
X111225Y167502D02*
X111479Y167629D01*
X110971D02*
X111225Y167502D01*
X110971Y167629D02*
X111098Y167375D01*
X110971Y167121D02*
X111098Y167375D01*
X112496Y168546D02*
X112750Y168673D01*
X113004Y168546D01*
X112877Y168800D02*
X113004Y168546D01*
X112877Y168800D02*
X113004Y169054D01*
X112750Y168927D02*
X113004Y169054D01*
X112496D02*
X112750Y168927D01*
X112496Y169054D02*
X112623Y168800D01*
X112496Y168546D02*
X112623Y168800D01*
X110971Y173371D02*
X111225Y173498D01*
X111479Y173371D01*
X111352Y173625D02*
X111479Y173371D01*
X111352Y173625D02*
X111479Y173879D01*
X111225Y173752D02*
X111479Y173879D01*
X110971D02*
X111225Y173752D01*
X110971Y173879D02*
X111098Y173625D01*
X110971Y173371D02*
X111098Y173625D01*
X88746Y164946D02*
X89000Y165073D01*
X89254Y164946D01*
X89127Y165200D02*
X89254Y164946D01*
X89127Y165200D02*
X89254Y165454D01*
X89000Y165327D02*
X89254Y165454D01*
X88746D02*
X89000Y165327D01*
X88746Y165454D02*
X88873Y165200D01*
X88746Y164946D02*
X88873Y165200D01*
X88346Y168221D02*
X88600Y168348D01*
X88854Y168221D01*
X88727Y168475D02*
X88854Y168221D01*
X88727Y168475D02*
X88854Y168729D01*
X88600Y168602D02*
X88854Y168729D01*
X88346D02*
X88600Y168602D01*
X88346Y168729D02*
X88473Y168475D01*
X88346Y168221D02*
X88473Y168475D01*
X94246Y118521D02*
X94500Y118648D01*
X94754Y118521D01*
X94627Y118775D02*
X94754Y118521D01*
X94627Y118775D02*
X94754Y119029D01*
X94500Y118902D02*
X94754Y119029D01*
X94246D02*
X94500Y118902D01*
X94246Y119029D02*
X94373Y118775D01*
X94246Y118521D02*
X94373Y118775D01*
X118896Y126096D02*
X119150Y126223D01*
X119404Y126096D01*
X119277Y126350D02*
X119404Y126096D01*
X119277Y126350D02*
X119404Y126604D01*
X119150Y126477D02*
X119404Y126604D01*
X118896D02*
X119150Y126477D01*
X118896Y126604D02*
X119023Y126350D01*
X118896Y126096D02*
X119023Y126350D01*
X118896Y132221D02*
X119150Y132348D01*
X119404Y132221D01*
X119277Y132475D02*
X119404Y132221D01*
X119277Y132475D02*
X119404Y132729D01*
X119150Y132602D02*
X119404Y132729D01*
X118896D02*
X119150Y132602D01*
X118896Y132729D02*
X119023Y132475D01*
X118896Y132221D02*
X119023Y132475D01*
X118921Y138096D02*
X119175Y138223D01*
X119429Y138096D01*
X119302Y138350D02*
X119429Y138096D01*
X119302Y138350D02*
X119429Y138604D01*
X119175Y138477D02*
X119429Y138604D01*
X118921D02*
X119175Y138477D01*
X118921Y138604D02*
X119048Y138350D01*
X118921Y138096D02*
X119048Y138350D01*
X118921Y144446D02*
X119175Y144573D01*
X119429Y144446D01*
X119302Y144700D02*
X119429Y144446D01*
X119302Y144700D02*
X119429Y144954D01*
X119175Y144827D02*
X119429Y144954D01*
X118921D02*
X119175Y144827D01*
X118921Y144954D02*
X119048Y144700D01*
X118921Y144446D02*
X119048Y144700D01*
X118921Y150146D02*
X119175Y150273D01*
X119429Y150146D01*
X119302Y150400D02*
X119429Y150146D01*
X119302Y150400D02*
X119429Y150654D01*
X119175Y150527D02*
X119429Y150654D01*
X118921D02*
X119175Y150527D01*
X118921Y150654D02*
X119048Y150400D01*
X118921Y150146D02*
X119048Y150400D01*
X118971Y156121D02*
X119225Y156248D01*
X119479Y156121D01*
X119352Y156375D02*
X119479Y156121D01*
X119352Y156375D02*
X119479Y156629D01*
X119225Y156502D02*
X119479Y156629D01*
X118971D02*
X119225Y156502D01*
X118971Y156629D02*
X119098Y156375D01*
X118971Y156121D02*
X119098Y156375D01*
X118921Y161071D02*
X119175Y161198D01*
X119429Y161071D01*
X119302Y161325D02*
X119429Y161071D01*
X119302Y161325D02*
X119429Y161579D01*
X119175Y161452D02*
X119429Y161579D01*
X118921D02*
X119175Y161452D01*
X118921Y161579D02*
X119048Y161325D01*
X118921Y161071D02*
X119048Y161325D01*
X118921Y166521D02*
X119175Y166648D01*
X119429Y166521D01*
X119302Y166775D02*
X119429Y166521D01*
X119302Y166775D02*
X119429Y167029D01*
X119175Y166902D02*
X119429Y167029D01*
X118921D02*
X119175Y166902D01*
X118921Y167029D02*
X119048Y166775D01*
X118921Y166521D02*
X119048Y166775D01*
X118896Y171646D02*
X119150Y171773D01*
X119404Y171646D01*
X119277Y171900D02*
X119404Y171646D01*
X119277Y171900D02*
X119404Y172154D01*
X119150Y172027D02*
X119404Y172154D01*
X118896D02*
X119150Y172027D01*
X118896Y172154D02*
X119023Y171900D01*
X118896Y171646D02*
X119023Y171900D01*
X118821Y177946D02*
X119075Y178073D01*
X119329Y177946D01*
X119202Y178200D02*
X119329Y177946D01*
X119202Y178200D02*
X119329Y178454D01*
X119075Y178327D02*
X119329Y178454D01*
X118821D02*
X119075Y178327D01*
X118821Y178454D02*
X118948Y178200D01*
X118821Y177946D02*
X118948Y178200D01*
X116621Y180496D02*
X116875Y180623D01*
X117129Y180496D01*
X117002Y180750D02*
X117129Y180496D01*
X117002Y180750D02*
X117129Y181004D01*
X116875Y180877D02*
X117129Y181004D01*
X116621D02*
X116875Y180877D01*
X116621Y181004D02*
X116748Y180750D01*
X116621Y180496D02*
X116748Y180750D01*
X119021Y181846D02*
X119275Y181973D01*
X119529Y181846D01*
X119402Y182100D02*
X119529Y181846D01*
X119402Y182100D02*
X119529Y182354D01*
X119275Y182227D02*
X119529Y182354D01*
X119021D02*
X119275Y182227D01*
X119021Y182354D02*
X119148Y182100D01*
X119021Y181846D02*
X119148Y182100D01*
X99746Y199496D02*
X100000Y199623D01*
X100254Y199496D01*
X100127Y199750D02*
X100254Y199496D01*
X100127Y199750D02*
X100254Y200004D01*
X100000Y199877D02*
X100254Y200004D01*
X99746D02*
X100000Y199877D01*
X99746Y200004D02*
X99873Y199750D01*
X99746Y199496D02*
X99873Y199750D01*
X84496Y190496D02*
X84750Y190623D01*
X85004Y190496D01*
X84877Y190750D02*
X85004Y190496D01*
X84877Y190750D02*
X85004Y191004D01*
X84750Y190877D02*
X85004Y191004D01*
X84496D02*
X84750Y190877D01*
X84496Y191004D02*
X84623Y190750D01*
X84496Y190496D02*
X84623Y190750D01*
X93746Y189996D02*
X94000Y190123D01*
X94254Y189996D01*
X94127Y190250D02*
X94254Y189996D01*
X94127Y190250D02*
X94254Y190504D01*
X94000Y190377D02*
X94254Y190504D01*
X93746D02*
X94000Y190377D01*
X93746Y190504D02*
X93873Y190250D01*
X93746Y189996D02*
X93873Y190250D01*
X106996Y189996D02*
X107250Y190123D01*
X107504Y189996D01*
X107377Y190250D02*
X107504Y189996D01*
X107377Y190250D02*
X107504Y190504D01*
X107250Y190377D02*
X107504Y190504D01*
X106996D02*
X107250Y190377D01*
X106996Y190504D02*
X107123Y190250D01*
X106996Y189996D02*
X107123Y190250D01*
X114696Y186196D02*
X114950Y186323D01*
X115204Y186196D01*
X115077Y186450D02*
X115204Y186196D01*
X115077Y186450D02*
X115204Y186704D01*
X114950Y186577D02*
X115204Y186704D01*
X114696D02*
X114950Y186577D01*
X114696Y186704D02*
X114823Y186450D01*
X114696Y186196D02*
X114823Y186450D01*
X114996Y192496D02*
X115250Y192623D01*
X115504Y192496D01*
X115377Y192750D02*
X115504Y192496D01*
X115377Y192750D02*
X115504Y193004D01*
X115250Y192877D02*
X115504Y193004D01*
X114996D02*
X115250Y192877D01*
X114996Y193004D02*
X115123Y192750D01*
X114996Y192496D02*
X115123Y192750D01*
X118746Y186746D02*
X119000Y186873D01*
X119254Y186746D01*
X119127Y187000D02*
X119254Y186746D01*
X119127Y187000D02*
X119254Y187254D01*
X119000Y187127D02*
X119254Y187254D01*
X118746D02*
X119000Y187127D01*
X118746Y187254D02*
X118873Y187000D01*
X118746Y186746D02*
X118873Y187000D01*
X118746Y193246D02*
X119000Y193373D01*
X119254Y193246D01*
X119127Y193500D02*
X119254Y193246D01*
X119127Y193500D02*
X119254Y193754D01*
X119000Y193627D02*
X119254Y193754D01*
X118746D02*
X119000Y193627D01*
X118746Y193754D02*
X118873Y193500D01*
X118746Y193246D02*
X118873Y193500D01*
X118746Y198746D02*
X119000Y198873D01*
X119254Y198746D01*
X119127Y199000D02*
X119254Y198746D01*
X119127Y199000D02*
X119254Y199254D01*
X119000Y199127D02*
X119254Y199254D01*
X118746D02*
X119000Y199127D01*
X118746Y199254D02*
X118873Y199000D01*
X118746Y198746D02*
X118873Y199000D01*
X111746Y207746D02*
X112000Y207873D01*
X112254Y207746D01*
X112127Y208000D02*
X112254Y207746D01*
X112127Y208000D02*
X112254Y208254D01*
X112000Y208127D02*
X112254Y208254D01*
X111746D02*
X112000Y208127D01*
X111746Y208254D02*
X111873Y208000D01*
X111746Y207746D02*
X111873Y208000D01*
X80746Y202996D02*
X81000Y203123D01*
X81254Y202996D01*
X81127Y203250D02*
X81254Y202996D01*
X81127Y203250D02*
X81254Y203504D01*
X81000Y203377D02*
X81254Y203504D01*
X80746D02*
X81000Y203377D01*
X80746Y203504D02*
X80873Y203250D01*
X80746Y202996D02*
X80873Y203250D01*
X118746Y202996D02*
X119000Y203123D01*
X119254Y202996D01*
X119127Y203250D02*
X119254Y202996D01*
X119127Y203250D02*
X119254Y203504D01*
X119000Y203377D02*
X119254Y203504D01*
X118746D02*
X119000Y203377D01*
X118746Y203504D02*
X118873Y203250D01*
X118746Y202996D02*
X118873Y203250D01*
X111146Y202996D02*
X111400Y203123D01*
X111654Y202996D01*
X111527Y203250D02*
X111654Y202996D01*
X111527Y203250D02*
X111654Y203504D01*
X111400Y203377D02*
X111654Y203504D01*
X111146D02*
X111400Y203377D01*
X111146Y203504D02*
X111273Y203250D01*
X111146Y202996D02*
X111273Y203250D01*
X107346Y202996D02*
X107600Y203123D01*
X107854Y202996D01*
X107727Y203250D02*
X107854Y202996D01*
X107727Y203250D02*
X107854Y203504D01*
X107600Y203377D02*
X107854Y203504D01*
X107346D02*
X107600Y203377D01*
X107346Y203504D02*
X107473Y203250D01*
X107346Y202996D02*
X107473Y203250D01*
X114946Y202996D02*
X115200Y203123D01*
X115454Y202996D01*
X115327Y203250D02*
X115454Y202996D01*
X115327Y203250D02*
X115454Y203504D01*
X115200Y203377D02*
X115454Y203504D01*
X114946D02*
X115200Y203377D01*
X114946Y203504D02*
X115073Y203250D01*
X114946Y202996D02*
X115073Y203250D01*
X84546Y202996D02*
X84800Y203123D01*
X85054Y202996D01*
X84927Y203250D02*
X85054Y202996D01*
X84927Y203250D02*
X85054Y203504D01*
X84800Y203377D02*
X85054Y203504D01*
X84546D02*
X84800Y203377D01*
X84546Y203504D02*
X84673Y203250D01*
X84546Y202996D02*
X84673Y203250D01*
X88346Y202996D02*
X88600Y203123D01*
X88854Y202996D01*
X88727Y203250D02*
X88854Y202996D01*
X88727Y203250D02*
X88854Y203504D01*
X88600Y203377D02*
X88854Y203504D01*
X88346D02*
X88600Y203377D01*
X88346Y203504D02*
X88473Y203250D01*
X88346Y202996D02*
X88473Y203250D01*
X95946Y202996D02*
X96200Y203123D01*
X96454Y202996D01*
X96327Y203250D02*
X96454Y202996D01*
X96327Y203250D02*
X96454Y203504D01*
X96200Y203377D02*
X96454Y203504D01*
X95946D02*
X96200Y203377D01*
X95946Y203504D02*
X96073Y203250D01*
X95946Y202996D02*
X96073Y203250D01*
X103546Y202996D02*
X103800Y203123D01*
X104054Y202996D01*
X103927Y203250D02*
X104054Y202996D01*
X103927Y203250D02*
X104054Y203504D01*
X103800Y203377D02*
X104054Y203504D01*
X103546D02*
X103800Y203377D01*
X103546Y203504D02*
X103673Y203250D01*
X103546Y202996D02*
X103673Y203250D01*
X99746Y202996D02*
X100000Y203123D01*
X100254Y202996D01*
X100127Y203250D02*
X100254Y202996D01*
X100127Y203250D02*
X100254Y203504D01*
X100000Y203377D02*
X100254Y203504D01*
X99746D02*
X100000Y203377D01*
X99746Y203504D02*
X99873Y203250D01*
X99746Y202996D02*
X99873Y203250D01*
X97696Y207246D02*
X97950Y207373D01*
X98204Y207246D01*
X98077Y207500D02*
X98204Y207246D01*
X98077Y207500D02*
X98204Y207754D01*
X97950Y207627D02*
X98204Y207754D01*
X97696D02*
X97950Y207627D01*
X97696Y207754D02*
X97823Y207500D01*
X97696Y207246D02*
X97823Y207500D01*
X101496Y207246D02*
X101750Y207373D01*
X102004Y207246D01*
X101877Y207500D02*
X102004Y207246D01*
X101877Y207500D02*
X102004Y207754D01*
X101750Y207627D02*
X102004Y207754D01*
X101496D02*
X101750Y207627D01*
X101496Y207754D02*
X101623Y207500D01*
X101496Y207246D02*
X101623Y207500D01*
X114946Y210996D02*
X115200Y211123D01*
X115454Y210996D01*
X115327Y211250D02*
X115454Y210996D01*
X115327Y211250D02*
X115454Y211504D01*
X115200Y211377D02*
X115454Y211504D01*
X114946D02*
X115200Y211377D01*
X114946Y211504D02*
X115073Y211250D01*
X114946Y210996D02*
X115073Y211250D01*
X107346Y210996D02*
X107600Y211123D01*
X107854Y210996D01*
X107727Y211250D02*
X107854Y210996D01*
X107727Y211250D02*
X107854Y211504D01*
X107600Y211377D02*
X107854Y211504D01*
X107346D02*
X107600Y211377D01*
X107346Y211504D02*
X107473Y211250D01*
X107346Y210996D02*
X107473Y211250D01*
X111146Y210996D02*
X111400Y211123D01*
X111654Y210996D01*
X111527Y211250D02*
X111654Y210996D01*
X111527Y211250D02*
X111654Y211504D01*
X111400Y211377D02*
X111654Y211504D01*
X111146D02*
X111400Y211377D01*
X111146Y211504D02*
X111273Y211250D01*
X111146Y210996D02*
X111273Y211250D01*
X99746Y210996D02*
X100000Y211123D01*
X100254Y210996D01*
X100127Y211250D02*
X100254Y210996D01*
X100127Y211250D02*
X100254Y211504D01*
X100000Y211377D02*
X100254Y211504D01*
X99746D02*
X100000Y211377D01*
X99746Y211504D02*
X99873Y211250D01*
X99746Y210996D02*
X99873Y211250D01*
X103546Y210996D02*
X103800Y211123D01*
X104054Y210996D01*
X103927Y211250D02*
X104054Y210996D01*
X103927Y211250D02*
X104054Y211504D01*
X103800Y211377D02*
X104054Y211504D01*
X103546D02*
X103800Y211377D01*
X103546Y211504D02*
X103673Y211250D01*
X103546Y210996D02*
X103673Y211250D01*
X92146Y210996D02*
X92400Y211123D01*
X92654Y210996D01*
X92527Y211250D02*
X92654Y210996D01*
X92527Y211250D02*
X92654Y211504D01*
X92400Y211377D02*
X92654Y211504D01*
X92146D02*
X92400Y211377D01*
X92146Y211504D02*
X92273Y211250D01*
X92146Y210996D02*
X92273Y211250D01*
X95946Y210996D02*
X96200Y211123D01*
X96454Y210996D01*
X96327Y211250D02*
X96454Y210996D01*
X96327Y211250D02*
X96454Y211504D01*
X96200Y211377D02*
X96454Y211504D01*
X95946D02*
X96200Y211377D01*
X95946Y211504D02*
X96073Y211250D01*
X95946Y210996D02*
X96073Y211250D01*
X88346Y210996D02*
X88600Y211123D01*
X88854Y210996D01*
X88727Y211250D02*
X88854Y210996D01*
X88727Y211250D02*
X88854Y211504D01*
X88600Y211377D02*
X88854Y211504D01*
X88346D02*
X88600Y211377D01*
X88346Y211504D02*
X88473Y211250D01*
X88346Y210996D02*
X88473Y211250D01*
X84546Y210996D02*
X84800Y211123D01*
X85054Y210996D01*
X84927Y211250D02*
X85054Y210996D01*
X84927Y211250D02*
X85054Y211504D01*
X84800Y211377D02*
X85054Y211504D01*
X84546D02*
X84800Y211377D01*
X84546Y211504D02*
X84673Y211250D01*
X84546Y210996D02*
X84673Y211250D01*
X80746Y210996D02*
X81000Y211123D01*
X81254Y210996D01*
X81127Y211250D02*
X81254Y210996D01*
X81127Y211250D02*
X81254Y211504D01*
X81000Y211377D02*
X81254Y211504D01*
X80746D02*
X81000Y211377D01*
X80746Y211504D02*
X80873Y211250D01*
X80746Y210996D02*
X80873Y211250D01*
X118746Y210996D02*
X119000Y211123D01*
X119254Y210996D01*
X119127Y211250D02*
X119254Y210996D01*
X119127Y211250D02*
X119254Y211504D01*
X119000Y211377D02*
X119254Y211504D01*
X118746D02*
X119000Y211377D01*
X118746Y211504D02*
X118873Y211250D01*
X118746Y210996D02*
X118873Y211250D01*
X115746Y213996D02*
X116000Y214123D01*
X116254Y213996D01*
X116127Y214250D02*
X116254Y213996D01*
X116127Y214250D02*
X116254Y214504D01*
X116000Y214377D02*
X116254Y214504D01*
X115746D02*
X116000Y214377D01*
X115746Y214504D02*
X115873Y214250D01*
X115746Y213996D02*
X115873Y214250D01*
X109096Y215246D02*
X109350Y215373D01*
X109604Y215246D01*
X109477Y215500D02*
X109604Y215246D01*
X109477Y215500D02*
X109604Y215754D01*
X109350Y215627D02*
X109604Y215754D01*
X109096D02*
X109350Y215627D01*
X109096Y215754D02*
X109223Y215500D01*
X109096Y215246D02*
X109223Y215500D01*
X112896Y215246D02*
X113150Y215373D01*
X113404Y215246D01*
X113277Y215500D02*
X113404Y215246D01*
X113277Y215500D02*
X113404Y215754D01*
X113150Y215627D02*
X113404Y215754D01*
X112896D02*
X113150Y215627D01*
X112896Y215754D02*
X113023Y215500D01*
X112896Y215246D02*
X113023Y215500D01*
X101496Y215246D02*
X101750Y215373D01*
X102004Y215246D01*
X101877Y215500D02*
X102004Y215246D01*
X101877Y215500D02*
X102004Y215754D01*
X101750Y215627D02*
X102004Y215754D01*
X101496D02*
X101750Y215627D01*
X101496Y215754D02*
X101623Y215500D01*
X101496Y215246D02*
X101623Y215500D01*
X105296Y215246D02*
X105550Y215373D01*
X105804Y215246D01*
X105677Y215500D02*
X105804Y215246D01*
X105677Y215500D02*
X105804Y215754D01*
X105550Y215627D02*
X105804Y215754D01*
X105296D02*
X105550Y215627D01*
X105296Y215754D02*
X105423Y215500D01*
X105296Y215246D02*
X105423Y215500D01*
X93896Y215246D02*
X94150Y215373D01*
X94404Y215246D01*
X94277Y215500D02*
X94404Y215246D01*
X94277Y215500D02*
X94404Y215754D01*
X94150Y215627D02*
X94404Y215754D01*
X93896D02*
X94150Y215627D01*
X93896Y215754D02*
X94023Y215500D01*
X93896Y215246D02*
X94023Y215500D01*
X97696Y215246D02*
X97950Y215373D01*
X98204Y215246D01*
X98077Y215500D02*
X98204Y215246D01*
X98077Y215500D02*
X98204Y215754D01*
X97950Y215627D02*
X98204Y215754D01*
X97696D02*
X97950Y215627D01*
X97696Y215754D02*
X97823Y215500D01*
X97696Y215246D02*
X97823Y215500D01*
X90096Y215246D02*
X90350Y215373D01*
X90604Y215246D01*
X90477Y215500D02*
X90604Y215246D01*
X90477Y215500D02*
X90604Y215754D01*
X90350Y215627D02*
X90604Y215754D01*
X90096D02*
X90350Y215627D01*
X90096Y215754D02*
X90223Y215500D01*
X90096Y215246D02*
X90223Y215500D01*
X86296Y215246D02*
X86550Y215373D01*
X86804Y215246D01*
X86677Y215500D02*
X86804Y215246D01*
X86677Y215500D02*
X86804Y215754D01*
X86550Y215627D02*
X86804Y215754D01*
X86296D02*
X86550Y215627D01*
X86296Y215754D02*
X86423Y215500D01*
X86296Y215246D02*
X86423Y215500D01*
X82496Y215246D02*
X82750Y215373D01*
X83004Y215246D01*
X82877Y215500D02*
X83004Y215246D01*
X82877Y215500D02*
X83004Y215754D01*
X82750Y215627D02*
X83004Y215754D01*
X82496D02*
X82750Y215627D01*
X82496Y215754D02*
X82623Y215500D01*
X82496Y215246D02*
X82623Y215500D01*
X80746Y198746D02*
X81000Y198873D01*
X81254Y198746D01*
X81127Y199000D02*
X81254Y198746D01*
X81127Y199000D02*
X81254Y199254D01*
X81000Y199127D02*
X81254Y199254D01*
X80746D02*
X81000Y199127D01*
X80746Y199254D02*
X80873Y199000D01*
X80746Y198746D02*
X80873Y199000D01*
X80746Y193246D02*
X81000Y193373D01*
X81254Y193246D01*
X81127Y193500D02*
X81254Y193246D01*
X81127Y193500D02*
X81254Y193754D01*
X81000Y193627D02*
X81254Y193754D01*
X80746D02*
X81000Y193627D01*
X80746Y193754D02*
X80873Y193500D01*
X80746Y193246D02*
X80873Y193500D01*
X80746Y186746D02*
X81000Y186873D01*
X81254Y186746D01*
X81127Y187000D02*
X81254Y186746D01*
X81127Y187000D02*
X81254Y187254D01*
X81000Y187127D02*
X81254Y187254D01*
X80746D02*
X81000Y187127D01*
X80746Y187254D02*
X80873Y187000D01*
X80746Y186746D02*
X80873Y187000D01*
X84746Y186496D02*
X85000Y186623D01*
X85254Y186496D01*
X85127Y186750D02*
X85254Y186496D01*
X85127Y186750D02*
X85254Y187004D01*
X85000Y186877D02*
X85254Y187004D01*
X84746D02*
X85000Y186877D01*
X84746Y187004D02*
X84873Y186750D01*
X84746Y186496D02*
X84873Y186750D01*
X90746Y191246D02*
X91000Y191373D01*
X91254Y191246D01*
X91127Y191500D02*
X91254Y191246D01*
X91127Y191500D02*
X91254Y191754D01*
X91000Y191627D02*
X91254Y191754D01*
X90746D02*
X91000Y191627D01*
X90746Y191754D02*
X90873Y191500D01*
X90746Y191246D02*
X90873Y191500D01*
X93496Y193996D02*
X93750Y194123D01*
X94004Y193996D01*
X93877Y194250D02*
X94004Y193996D01*
X93877Y194250D02*
X94004Y194504D01*
X93750Y194377D02*
X94004Y194504D01*
X93496D02*
X93750Y194377D01*
X93496Y194504D02*
X93623Y194250D01*
X93496Y193996D02*
X93623Y194250D01*
X103746Y165996D02*
X104000Y166123D01*
X104254Y165996D01*
X104127Y166250D02*
X104254Y165996D01*
X104127Y166250D02*
X104254Y166504D01*
X104000Y166377D02*
X104254Y166504D01*
X103746D02*
X104000Y166377D01*
X103746Y166504D02*
X103873Y166250D01*
X103746Y165996D02*
X103873Y166250D01*
X95996Y165996D02*
X96250Y166123D01*
X96504Y165996D01*
X96377Y166250D02*
X96504Y165996D01*
X96377Y166250D02*
X96504Y166504D01*
X96250Y166377D02*
X96504Y166504D01*
X95996D02*
X96250Y166377D01*
X95996Y166504D02*
X96123Y166250D01*
X95996Y165996D02*
X96123Y166250D01*
X83996Y154246D02*
X84250Y154373D01*
X84504Y154246D01*
X84377Y154500D02*
X84504Y154246D01*
X84377Y154500D02*
X84504Y154754D01*
X84250Y154627D02*
X84504Y154754D01*
X83996D02*
X84250Y154627D01*
X83996Y154754D02*
X84123Y154500D01*
X83996Y154246D02*
X84123Y154500D01*
X112996Y135996D02*
X113250Y136123D01*
X113504Y135996D01*
X113377Y136250D02*
X113504Y135996D01*
X113377Y136250D02*
X113504Y136504D01*
X113250Y136377D02*
X113504Y136504D01*
X112996D02*
X113250Y136377D01*
X112996Y136504D02*
X113123Y136250D01*
X112996Y135996D02*
X113123Y136250D01*
X114996Y131496D02*
X115250Y131623D01*
X115504Y131496D01*
X115377Y131750D02*
X115504Y131496D01*
X115377Y131750D02*
X115504Y132004D01*
X115250Y131877D02*
X115504Y132004D01*
X114996D02*
X115250Y131877D01*
X114996Y132004D02*
X115123Y131750D01*
X114996Y131496D02*
X115123Y131750D01*
X112496Y122746D02*
X112750Y122873D01*
X113004Y122746D01*
X112877Y123000D02*
X113004Y122746D01*
X112877Y123000D02*
X113004Y123254D01*
X112750Y123127D02*
X113004Y123254D01*
X112496D02*
X112750Y123127D01*
X112496Y123254D02*
X112623Y123000D01*
X112496Y122746D02*
X112623Y123000D01*
X108746Y122746D02*
X109000Y122873D01*
X109254Y122746D01*
X109127Y123000D02*
X109254Y122746D01*
X109127Y123000D02*
X109254Y123254D01*
X109000Y123127D02*
X109254Y123254D01*
X108746D02*
X109000Y123127D01*
X108746Y123254D02*
X108873Y123000D01*
X108746Y122746D02*
X108873Y123000D01*
X103746Y120496D02*
X104000Y120623D01*
X104254Y120496D01*
X104127Y120750D02*
X104254Y120496D01*
X104127Y120750D02*
X104254Y121004D01*
X104000Y120877D02*
X104254Y121004D01*
X103746D02*
X104000Y120877D01*
X103746Y121004D02*
X103873Y120750D01*
X103746Y120496D02*
X103873Y120750D01*
X99746Y122246D02*
X100000Y122373D01*
X100254Y122246D01*
X100127Y122500D02*
X100254Y122246D01*
X100127Y122500D02*
X100254Y122754D01*
X100000Y122627D02*
X100254Y122754D01*
X99746D02*
X100000Y122627D01*
X99746Y122754D02*
X99873Y122500D01*
X99746Y122246D02*
X99873Y122500D01*
X92246Y120996D02*
X92500Y121123D01*
X92754Y120996D01*
X92627Y121250D02*
X92754Y120996D01*
X92627Y121250D02*
X92754Y121504D01*
X92500Y121377D02*
X92754Y121504D01*
X92246D02*
X92500Y121377D01*
X92246Y121504D02*
X92373Y121250D01*
X92246Y120996D02*
X92373Y121250D01*
X87496Y121746D02*
X87750Y121873D01*
X88004Y121746D01*
X87877Y122000D02*
X88004Y121746D01*
X87877Y122000D02*
X88004Y122254D01*
X87750Y122127D02*
X88004Y122254D01*
X87496D02*
X87750Y122127D01*
X87496Y122254D02*
X87623Y122000D01*
X87496Y121746D02*
X87623Y122000D01*
X84496Y118496D02*
X84750Y118623D01*
X85004Y118496D01*
X84877Y118750D02*
X85004Y118496D01*
X84877Y118750D02*
X85004Y119004D01*
X84750Y118877D02*
X85004Y119004D01*
X84496D02*
X84750Y118877D01*
X84496Y119004D02*
X84623Y118750D01*
X84496Y118496D02*
X84623Y118750D01*
X83246Y130496D02*
X83500Y130623D01*
X83754Y130496D01*
X83627Y130750D02*
X83754Y130496D01*
X83627Y130750D02*
X83754Y131004D01*
X83500Y130877D02*
X83754Y131004D01*
X83246D02*
X83500Y130877D01*
X83246Y131004D02*
X83373Y130750D01*
X83246Y130496D02*
X83373Y130750D01*
X82996Y122996D02*
X83250Y123123D01*
X83504Y122996D01*
X83377Y123250D02*
X83504Y122996D01*
X83377Y123250D02*
X83504Y123504D01*
X83250Y123377D02*
X83504Y123504D01*
X82996D02*
X83250Y123377D01*
X82996Y123504D02*
X83123Y123250D01*
X82996Y122996D02*
X83123Y123250D01*
X80746Y113246D02*
X81000Y113373D01*
X81254Y113246D01*
X81127Y113500D02*
X81254Y113246D01*
X81127Y113500D02*
X81254Y113754D01*
X81000Y113627D02*
X81254Y113754D01*
X80746D02*
X81000Y113627D01*
X80746Y113754D02*
X80873Y113500D01*
X80746Y113246D02*
X80873Y113500D01*
X80746Y117996D02*
X81000Y118123D01*
X81254Y117996D01*
X81127Y118250D02*
X81254Y117996D01*
X81127Y118250D02*
X81254Y118504D01*
X81000Y118377D02*
X81254Y118504D01*
X80746D02*
X81000Y118377D01*
X80746Y118504D02*
X80873Y118250D01*
X80746Y117996D02*
X80873Y118250D01*
X80746Y124246D02*
X81000Y124373D01*
X81254Y124246D01*
X81127Y124500D02*
X81254Y124246D01*
X81127Y124500D02*
X81254Y124754D01*
X81000Y124627D02*
X81254Y124754D01*
X80746D02*
X81000Y124627D01*
X80746Y124754D02*
X80873Y124500D01*
X80746Y124246D02*
X80873Y124500D01*
X80746Y129496D02*
X81000Y129623D01*
X81254Y129496D01*
X81127Y129750D02*
X81254Y129496D01*
X81127Y129750D02*
X81254Y130004D01*
X81000Y129877D02*
X81254Y130004D01*
X80746D02*
X81000Y129877D01*
X80746Y130004D02*
X80873Y129750D01*
X80746Y129496D02*
X80873Y129750D01*
X117246Y111246D02*
X117500Y111373D01*
X117754Y111246D01*
X117627Y111500D02*
X117754Y111246D01*
X117627Y111500D02*
X117754Y111754D01*
X117500Y111627D02*
X117754Y111754D01*
X117246D02*
X117500Y111627D01*
X117246Y111754D02*
X117373Y111500D01*
X117246Y111246D02*
X117373Y111500D01*
X116746Y116746D02*
X117000Y116873D01*
X117254Y116746D01*
X117127Y117000D02*
X117254Y116746D01*
X117127Y117000D02*
X117254Y117254D01*
X117000Y117127D02*
X117254Y117254D01*
X116746D02*
X117000Y117127D01*
X116746Y117254D02*
X116873Y117000D01*
X116746Y116746D02*
X116873Y117000D01*
X115246Y144246D02*
X115500Y144373D01*
X115754Y144246D01*
X115627Y144500D02*
X115754Y144246D01*
X115627Y144500D02*
X115754Y144754D01*
X115500Y144627D02*
X115754Y144754D01*
X115246D02*
X115500Y144627D01*
X115246Y144754D02*
X115373Y144500D01*
X115246Y144246D02*
X115373Y144500D01*
X99746Y135996D02*
X100000Y136123D01*
X100254Y135996D01*
X100127Y136250D02*
X100254Y135996D01*
X100127Y136250D02*
X100254Y136504D01*
X100000Y136377D02*
X100254Y136504D01*
X99746D02*
X100000Y136377D01*
X99746Y136504D02*
X99873Y136250D01*
X99746Y135996D02*
X99873Y136250D01*
X92246Y135746D02*
X92500Y135873D01*
X92754Y135746D01*
X92627Y136000D02*
X92754Y135746D01*
X92627Y136000D02*
X92754Y136254D01*
X92500Y136127D02*
X92754Y136254D01*
X92246D02*
X92500Y136127D01*
X92246Y136254D02*
X92373Y136000D01*
X92246Y135746D02*
X92373Y136000D01*
X87996Y134996D02*
X88250Y135123D01*
X88504Y134996D01*
X88377Y135250D02*
X88504Y134996D01*
X88377Y135250D02*
X88504Y135504D01*
X88250Y135377D02*
X88504Y135504D01*
X87996D02*
X88250Y135377D01*
X87996Y135504D02*
X88123Y135250D01*
X87996Y134996D02*
X88123Y135250D01*
X91496Y131746D02*
X91750Y131873D01*
X92004Y131746D01*
X91877Y132000D02*
X92004Y131746D01*
X91877Y132000D02*
X92004Y132254D01*
X91750Y132127D02*
X92004Y132254D01*
X91496D02*
X91750Y132127D01*
X91496Y132254D02*
X91623Y132000D01*
X91496Y131746D02*
X91623Y132000D01*
X109996Y131746D02*
X110250Y131873D01*
X110504Y131746D01*
X110377Y132000D02*
X110504Y131746D01*
X110377Y132000D02*
X110504Y132254D01*
X110250Y132127D02*
X110504Y132254D01*
X109996D02*
X110250Y132127D01*
X109996Y132254D02*
X110123Y132000D01*
X109996Y131746D02*
X110123Y132000D01*
X104246Y131746D02*
X104500Y131873D01*
X104754Y131746D01*
X104627Y132000D02*
X104754Y131746D01*
X104627Y132000D02*
X104754Y132254D01*
X104500Y132127D02*
X104754Y132254D01*
X104246D02*
X104500Y132127D01*
X104246Y132254D02*
X104373Y132000D01*
X104246Y131746D02*
X104373Y132000D01*
X94746Y131746D02*
X95000Y131873D01*
X95254Y131746D01*
X95127Y132000D02*
X95254Y131746D01*
X95127Y132000D02*
X95254Y132254D01*
X95000Y132127D02*
X95254Y132254D01*
X94746D02*
X95000Y132127D01*
X94746Y132254D02*
X94873Y132000D01*
X94746Y131746D02*
X94873Y132000D01*
X89246Y144746D02*
X89500Y144873D01*
X89754Y144746D01*
X89627Y145000D02*
X89754Y144746D01*
X89627Y145000D02*
X89754Y145254D01*
X89500Y145127D02*
X89754Y145254D01*
X89246D02*
X89500Y145127D01*
X89246Y145254D02*
X89373Y145000D01*
X89246Y144746D02*
X89373Y145000D01*
X103996Y144746D02*
X104250Y144873D01*
X104504Y144746D01*
X104377Y145000D02*
X104504Y144746D01*
X104377Y145000D02*
X104504Y145254D01*
X104250Y145127D02*
X104504Y145254D01*
X103996D02*
X104250Y145127D01*
X103996Y145254D02*
X104123Y145000D01*
X103996Y144746D02*
X104123Y145000D01*
X94746Y144746D02*
X95000Y144873D01*
X95254Y144746D01*
X95127Y145000D02*
X95254Y144746D01*
X95127Y145000D02*
X95254Y145254D01*
X95000Y145127D02*
X95254Y145254D01*
X94746D02*
X95000Y145127D01*
X94746Y145254D02*
X94873Y145000D01*
X94746Y144746D02*
X94873Y145000D01*
X99746Y127746D02*
X100000Y127873D01*
X100254Y127746D01*
X100127Y128000D02*
X100254Y127746D01*
X100127Y128000D02*
X100254Y128254D01*
X100000Y128127D02*
X100254Y128254D01*
X99746D02*
X100000Y128127D01*
X99746Y128254D02*
X99873Y128000D01*
X99746Y127746D02*
X99873Y128000D01*
X99746Y131746D02*
X100000Y131873D01*
X100254Y131746D01*
X100127Y132000D02*
X100254Y131746D01*
X100127Y132000D02*
X100254Y132254D01*
X100000Y132127D02*
X100254Y132254D01*
X99746D02*
X100000Y132127D01*
X99746Y132254D02*
X99873Y132000D01*
X99746Y131746D02*
X99873Y132000D01*
X99746Y140246D02*
X100000Y140373D01*
X100254Y140246D01*
X100127Y140500D02*
X100254Y140246D01*
X100127Y140500D02*
X100254Y140754D01*
X100000Y140627D02*
X100254Y140754D01*
X99746D02*
X100000Y140627D01*
X99746Y140754D02*
X99873Y140500D01*
X99746Y140246D02*
X99873Y140500D01*
X99746Y144746D02*
X100000Y144873D01*
X100254Y144746D01*
X100127Y145000D02*
X100254Y144746D01*
X100127Y145000D02*
X100254Y145254D01*
X100000Y145127D02*
X100254Y145254D01*
X99746D02*
X100000Y145127D01*
X99746Y145254D02*
X99873Y145000D01*
X99746Y144746D02*
X99873Y145000D01*
X99746Y153496D02*
X100000Y153623D01*
X100254Y153496D01*
X100127Y153750D02*
X100254Y153496D01*
X100127Y153750D02*
X100254Y154004D01*
X100000Y153877D02*
X100254Y154004D01*
X99746D02*
X100000Y153877D01*
X99746Y154004D02*
X99873Y153750D01*
X99746Y153496D02*
X99873Y153750D01*
X99746Y149496D02*
X100000Y149623D01*
X100254Y149496D01*
X100127Y149750D02*
X100254Y149496D01*
X100127Y149750D02*
X100254Y150004D01*
X100000Y149877D02*
X100254Y150004D01*
X99746D02*
X100000Y149877D01*
X99746Y150004D02*
X99873Y149750D01*
X99746Y149496D02*
X99873Y149750D01*
X107746Y147996D02*
X108000Y148123D01*
X108254Y147996D01*
X108127Y148250D02*
X108254Y147996D01*
X108127Y148250D02*
X108254Y148504D01*
X108000Y148377D02*
X108254Y148504D01*
X107746D02*
X108000Y148377D01*
X107746Y148504D02*
X107873Y148250D01*
X107746Y147996D02*
X107873Y148250D01*
X115246Y154246D02*
X115500Y154373D01*
X115754Y154246D01*
X115627Y154500D02*
X115754Y154246D01*
X115627Y154500D02*
X115754Y154754D01*
X115500Y154627D02*
X115754Y154754D01*
X115246D02*
X115500Y154627D01*
X115246Y154754D02*
X115373Y154500D01*
X115246Y154246D02*
X115373Y154500D01*
X111496Y158246D02*
X111750Y158373D01*
X112004Y158246D01*
X111877Y158500D02*
X112004Y158246D01*
X111877Y158500D02*
X112004Y158754D01*
X111750Y158627D02*
X112004Y158754D01*
X111496D02*
X111750Y158627D01*
X111496Y158754D02*
X111623Y158500D01*
X111496Y158246D02*
X111623Y158500D01*
X114996Y158996D02*
X115250Y159123D01*
X115504Y158996D01*
X115377Y159250D02*
X115504Y158996D01*
X115377Y159250D02*
X115504Y159504D01*
X115250Y159377D02*
X115504Y159504D01*
X114996D02*
X115250Y159377D01*
X114996Y159504D02*
X115123Y159250D01*
X114996Y158996D02*
X115123Y159250D01*
X111496Y162246D02*
X111750Y162373D01*
X112004Y162246D01*
X111877Y162500D02*
X112004Y162246D01*
X111877Y162500D02*
X112004Y162754D01*
X111750Y162627D02*
X112004Y162754D01*
X111496D02*
X111750Y162627D01*
X111496Y162754D02*
X111623Y162500D01*
X111496Y162246D02*
X111623Y162500D01*
X115246Y165996D02*
X115500Y166123D01*
X115754Y165996D01*
X115627Y166250D02*
X115754Y165996D01*
X115627Y166250D02*
X115754Y166504D01*
X115500Y166377D02*
X115754Y166504D01*
X115246D02*
X115500Y166377D01*
X115246Y166504D02*
X115373Y166250D01*
X115246Y165996D02*
X115373Y166250D01*
X107496Y177996D02*
X107750Y178123D01*
X108004Y177996D01*
X107877Y178250D02*
X108004Y177996D01*
X107877Y178250D02*
X108004Y178504D01*
X107750Y178377D02*
X108004Y178504D01*
X107496D02*
X107750Y178377D01*
X107496Y178504D02*
X107623Y178250D01*
X107496Y177996D02*
X107623Y178250D01*
X80496Y157746D02*
X80750Y157873D01*
X81004Y157746D01*
X80877Y158000D02*
X81004Y157746D01*
X80877Y158000D02*
X81004Y158254D01*
X80750Y158127D02*
X81004Y158254D01*
X80496D02*
X80750Y158127D01*
X80496Y158254D02*
X80623Y158000D01*
X80496Y157746D02*
X80623Y158000D01*
X80496Y164496D02*
X80750Y164623D01*
X81004Y164496D01*
X80877Y164750D02*
X81004Y164496D01*
X80877Y164750D02*
X81004Y165004D01*
X80750Y164877D02*
X81004Y165004D01*
X80496D02*
X80750Y164877D01*
X80496Y165004D02*
X80623Y164750D01*
X80496Y164496D02*
X80623Y164750D01*
X80496Y142996D02*
X80750Y143123D01*
X81004Y142996D01*
X80877Y143250D02*
X81004Y142996D01*
X80877Y143250D02*
X81004Y143504D01*
X80750Y143377D02*
X81004Y143504D01*
X80496D02*
X80750Y143377D01*
X80496Y143504D02*
X80623Y143250D01*
X80496Y142996D02*
X80623Y143250D01*
X80496Y149996D02*
X80750Y150123D01*
X81004Y149996D01*
X80877Y150250D02*
X81004Y149996D01*
X80877Y150250D02*
X81004Y150504D01*
X80750Y150377D02*
X81004Y150504D01*
X80496D02*
X80750Y150377D01*
X80496Y150504D02*
X80623Y150250D01*
X80496Y149996D02*
X80623Y150250D01*
X80746Y134246D02*
X81000Y134373D01*
X81254Y134246D01*
X81127Y134500D02*
X81254Y134246D01*
X81127Y134500D02*
X81254Y134754D01*
X81000Y134627D02*
X81254Y134754D01*
X80746D02*
X81000Y134627D01*
X80746Y134754D02*
X80873Y134500D01*
X80746Y134246D02*
X80873Y134500D01*
X84496Y136246D02*
X84750Y136373D01*
X85004Y136246D01*
X84877Y136500D02*
X85004Y136246D01*
X84877Y136500D02*
X85004Y136754D01*
X84750Y136627D02*
X85004Y136754D01*
X84496D02*
X84750Y136627D01*
X84496Y136754D02*
X84623Y136500D01*
X84496Y136246D02*
X84623Y136500D01*
X84246Y149246D02*
X84500Y149373D01*
X84754Y149246D01*
X84627Y149500D02*
X84754Y149246D01*
X84627Y149500D02*
X84754Y149754D01*
X84500Y149627D02*
X84754Y149754D01*
X84246D02*
X84500Y149627D01*
X84246Y149754D02*
X84373Y149500D01*
X84246Y149246D02*
X84373Y149500D01*
X84996Y159246D02*
X85250Y159373D01*
X85504Y159246D01*
X85377Y159500D02*
X85504Y159246D01*
X85377Y159500D02*
X85504Y159754D01*
X85250Y159627D02*
X85504Y159754D01*
X84996D02*
X85250Y159627D01*
X84996Y159754D02*
X85123Y159500D01*
X84996Y159246D02*
X85123Y159500D01*
X87246Y156996D02*
X87500Y157123D01*
X87754Y156996D01*
X87627Y157250D02*
X87754Y156996D01*
X87627Y157250D02*
X87754Y157504D01*
X87500Y157377D02*
X87754Y157504D01*
X87246D02*
X87500Y157377D01*
X87246Y157504D02*
X87373Y157250D01*
X87246Y156996D02*
X87373Y157250D01*
X80746Y171246D02*
X81000Y171373D01*
X81254Y171246D01*
X81127Y171500D02*
X81254Y171246D01*
X81127Y171500D02*
X81254Y171754D01*
X81000Y171627D02*
X81254Y171754D01*
X80746D02*
X81000Y171627D01*
X80746Y171754D02*
X80873Y171500D01*
X80746Y171246D02*
X80873Y171500D01*
X81246Y176996D02*
X81500Y177123D01*
X81754Y176996D01*
X81627Y177250D02*
X81754Y176996D01*
X81627Y177250D02*
X81754Y177504D01*
X81500Y177377D02*
X81754Y177504D01*
X81246D02*
X81500Y177377D01*
X81246Y177504D02*
X81373Y177250D01*
X81246Y176996D02*
X81373Y177250D01*
X80996Y180996D02*
X81250Y181123D01*
X81504Y180996D01*
X81377Y181250D02*
X81504Y180996D01*
X81377Y181250D02*
X81504Y181504D01*
X81250Y181377D02*
X81504Y181504D01*
X80996D02*
X81250Y181377D01*
X80996Y181504D02*
X81123Y181250D01*
X80996Y180996D02*
X81123Y181250D01*
X84496Y180996D02*
X84750Y181123D01*
X85004Y180996D01*
X84877Y181250D02*
X85004Y180996D01*
X84877Y181250D02*
X85004Y181504D01*
X84750Y181377D02*
X85004Y181504D01*
X84496D02*
X84750Y181377D01*
X84496Y181504D02*
X84623Y181250D01*
X84496Y180996D02*
X84623Y181250D01*
X83496Y173746D02*
X83750Y173873D01*
X84004Y173746D01*
X83877Y174000D02*
X84004Y173746D01*
X83877Y174000D02*
X84004Y174254D01*
X83750Y174127D02*
X84004Y174254D01*
X83496D02*
X83750Y174127D01*
X83496Y174254D02*
X83623Y174000D01*
X83496Y173746D02*
X83623Y174000D01*
X94246Y178496D02*
X94500Y178623D01*
X94754Y178496D01*
X94627Y178750D02*
X94754Y178496D01*
X94627Y178750D02*
X94754Y179004D01*
X94500Y178877D02*
X94754Y179004D01*
X94246D02*
X94500Y178877D01*
X94246Y179004D02*
X94373Y178750D01*
X94246Y178496D02*
X94373Y178750D01*
X92246Y180746D02*
X92500Y180873D01*
X92754Y180746D01*
X92627Y181000D02*
X92754Y180746D01*
X92627Y181000D02*
X92754Y181254D01*
X92500Y181127D02*
X92754Y181254D01*
X92246D02*
X92500Y181127D01*
X92246Y181254D02*
X92373Y181000D01*
X92246Y180746D02*
X92373Y181000D01*
X94246Y181246D02*
X94500Y181373D01*
X94754Y181246D01*
X94627Y181500D02*
X94754Y181246D01*
X94627Y181500D02*
X94754Y181754D01*
X94500Y181627D02*
X94754Y181754D01*
X94246D02*
X94500Y181627D01*
X94246Y181754D02*
X94373Y181500D01*
X94246Y181246D02*
X94373Y181500D01*
X94246Y186246D02*
X94500Y186373D01*
X94754Y186246D01*
X94627Y186500D02*
X94754Y186246D01*
X94627Y186500D02*
X94754Y186754D01*
X94500Y186627D02*
X94754Y186754D01*
X94246D02*
X94500Y186627D01*
X94246Y186754D02*
X94373Y186500D01*
X94246Y186246D02*
X94373Y186500D01*
X90746Y186496D02*
X91000Y186623D01*
X91254Y186496D01*
X91127Y186750D02*
X91254Y186496D01*
X91127Y186750D02*
X91254Y187004D01*
X91000Y186877D02*
X91254Y187004D01*
X90746D02*
X91000Y186877D01*
X90746Y187004D02*
X90873Y186750D01*
X90746Y186496D02*
X90873Y186750D01*
X100246Y190496D02*
X100500Y190623D01*
X100754Y190496D01*
X100627Y190750D02*
X100754Y190496D01*
X100627Y190750D02*
X100754Y191004D01*
X100500Y190877D02*
X100754Y191004D01*
X100246D02*
X100500Y190877D01*
X100246Y191004D02*
X100373Y190750D01*
X100246Y190496D02*
X100373Y190750D01*
X108246Y193996D02*
X108500Y194123D01*
X108754Y193996D01*
X108627Y194250D02*
X108754Y193996D01*
X108627Y194250D02*
X108754Y194504D01*
X108500Y194377D02*
X108754Y194504D01*
X108246D02*
X108500Y194377D01*
X108246Y194504D02*
X108373Y194250D01*
X108246Y193996D02*
X108373Y194250D01*
X105246Y192496D02*
X105500Y192623D01*
X105754Y192496D01*
X105627Y192750D02*
X105754Y192496D01*
X105627Y192750D02*
X105754Y193004D01*
X105500Y192877D02*
X105754Y193004D01*
X105246D02*
X105500Y192877D01*
X105246Y193004D02*
X105373Y192750D01*
X105246Y192496D02*
X105373Y192750D01*
X108746Y186496D02*
X109000Y186623D01*
X109254Y186496D01*
X109127Y186750D02*
X109254Y186496D01*
X109127Y186750D02*
X109254Y187004D01*
X109000Y186877D02*
X109254Y187004D01*
X108746D02*
X109000Y186877D01*
X108746Y187004D02*
X108873Y186750D01*
X108746Y186496D02*
X108873Y186750D01*
X105246Y186496D02*
X105500Y186623D01*
X105754Y186496D01*
X105627Y186750D02*
X105754Y186496D01*
X105627Y186750D02*
X105754Y187004D01*
X105500Y186877D02*
X105754Y187004D01*
X105246D02*
X105500Y186877D01*
X105246Y187004D02*
X105373Y186750D01*
X105246Y186496D02*
X105373Y186750D01*
X108746Y180996D02*
X109000Y181123D01*
X109254Y180996D01*
X109127Y181250D02*
X109254Y180996D01*
X109127Y181250D02*
X109254Y181504D01*
X109000Y181377D02*
X109254Y181504D01*
X108746D02*
X109000Y181377D01*
X108746Y181504D02*
X108873Y181250D01*
X108746Y180996D02*
X108873Y181250D01*
X105246Y180996D02*
X105500Y181123D01*
X105754Y180996D01*
X105627Y181250D02*
X105754Y180996D01*
X105627Y181250D02*
X105754Y181504D01*
X105500Y181377D02*
X105754Y181504D01*
X105246D02*
X105500Y181377D01*
X105246Y181504D02*
X105373Y181250D01*
X105246Y180996D02*
X105373Y181250D01*
X107246Y169996D02*
X107500Y170123D01*
X107754Y169996D01*
X107627Y170250D02*
X107754Y169996D01*
X107627Y170250D02*
X107754Y170504D01*
X107500Y170377D02*
X107754Y170504D01*
X107246D02*
X107500Y170377D01*
X107246Y170504D02*
X107373Y170250D01*
X107246Y169996D02*
X107373Y170250D01*
X105496Y174246D02*
X105750Y174373D01*
X106004Y174246D01*
X105877Y174500D02*
X106004Y174246D01*
X105877Y174500D02*
X106004Y174754D01*
X105750Y174627D02*
X106004Y174754D01*
X105496D02*
X105750Y174627D01*
X105496Y174754D02*
X105623Y174500D01*
X105496Y174246D02*
X105623Y174500D01*
X103246Y170746D02*
X103500Y170873D01*
X103754Y170746D01*
X103627Y171000D02*
X103754Y170746D01*
X103627Y171000D02*
X103754Y171254D01*
X103500Y171127D02*
X103754Y171254D01*
X103246D02*
X103500Y171127D01*
X103246Y171254D02*
X103373Y171000D01*
X103246Y170746D02*
X103373Y171000D01*
X106746Y166746D02*
X107000Y166873D01*
X107254Y166746D01*
X107127Y167000D02*
X107254Y166746D01*
X107127Y167000D02*
X107254Y167254D01*
X107000Y167127D02*
X107254Y167254D01*
X106746D02*
X107000Y167127D01*
X106746Y167254D02*
X106873Y167000D01*
X106746Y166746D02*
X106873Y167000D01*
X100996Y157996D02*
X101250Y158123D01*
X101504Y157996D01*
X101377Y158250D02*
X101504Y157996D01*
X101377Y158250D02*
X101504Y158504D01*
X101250Y158377D02*
X101504Y158504D01*
X100996D02*
X101250Y158377D01*
X100996Y158504D02*
X101123Y158250D01*
X100996Y157996D02*
X101123Y158250D01*
X108496Y157996D02*
X108750Y158123D01*
X109004Y157996D01*
X108877Y158250D02*
X109004Y157996D01*
X108877Y158250D02*
X109004Y158504D01*
X108750Y158377D02*
X109004Y158504D01*
X108496D02*
X108750Y158377D01*
X108496Y158504D02*
X108623Y158250D01*
X108496Y157996D02*
X108623Y158250D01*
X100996Y158996D02*
X101250Y159123D01*
X101504Y158996D01*
X101377Y159250D02*
X101504Y158996D01*
X101377Y159250D02*
X101504Y159504D01*
X101250Y159377D02*
X101504Y159504D01*
X100996D02*
X101250Y159377D01*
X100996Y159504D02*
X101123Y159250D01*
X100996Y158996D02*
X101123Y159250D01*
X108496Y158996D02*
X108750Y159123D01*
X109004Y158996D01*
X108877Y159250D02*
X109004Y158996D01*
X108877Y159250D02*
X109004Y159504D01*
X108750Y159377D02*
X109004Y159504D01*
X108496D02*
X108750Y159377D01*
X108496Y159504D02*
X108623Y159250D01*
X108496Y158996D02*
X108623Y159250D01*
X89496Y150246D02*
X89750Y150373D01*
X90004Y150246D01*
X89877Y150500D02*
X90004Y150246D01*
X89877Y150500D02*
X90004Y150754D01*
X89750Y150627D02*
X90004Y150754D01*
X89496D02*
X89750Y150627D01*
X89496Y150754D02*
X89623Y150500D01*
X89496Y150246D02*
X89623Y150500D01*
X90996Y151746D02*
X91250Y151873D01*
X91504Y151746D01*
X91377Y152000D02*
X91504Y151746D01*
X91377Y152000D02*
X91504Y152254D01*
X91250Y152127D02*
X91504Y152254D01*
X90996D02*
X91250Y152127D01*
X90996Y152254D02*
X91123Y152000D01*
X90996Y151746D02*
X91123Y152000D01*
X91246Y153746D02*
X91500Y153873D01*
X91754Y153746D01*
X91627Y154000D02*
X91754Y153746D01*
X91627Y154000D02*
X91754Y154254D01*
X91500Y154127D02*
X91754Y154254D01*
X91246D02*
X91500Y154127D01*
X91246Y154254D02*
X91373Y154000D01*
X91246Y153746D02*
X91373Y154000D01*
X108246Y153746D02*
X108500Y153873D01*
X108754Y153746D01*
X108627Y154000D02*
X108754Y153746D01*
X108627Y154000D02*
X108754Y154254D01*
X108500Y154127D02*
X108754Y154254D01*
X108246D02*
X108500Y154127D01*
X108246Y154254D02*
X108373Y154000D01*
X108246Y153746D02*
X108373Y154000D01*
X108496Y151746D02*
X108750Y151873D01*
X109004Y151746D01*
X108877Y152000D02*
X109004Y151746D01*
X108877Y152000D02*
X109004Y152254D01*
X108750Y152127D02*
X109004Y152254D01*
X108496D02*
X108750Y152127D01*
X108496Y152254D02*
X108623Y152000D01*
X108496Y151746D02*
X108623Y152000D01*
X109996Y150246D02*
X110250Y150373D01*
X110504Y150246D01*
X110377Y150500D02*
X110504Y150246D01*
X110377Y150500D02*
X110504Y150754D01*
X110250Y150627D02*
X110504Y150754D01*
X109996D02*
X110250Y150627D01*
X109996Y150754D02*
X110123Y150500D01*
X109996Y150246D02*
X110123Y150500D01*
X88746Y118246D02*
X89000Y118373D01*
X89254Y118246D01*
X89127Y118500D02*
X89254Y118246D01*
X89127Y118500D02*
X89254Y118754D01*
X89000Y118627D02*
X89254Y118754D01*
X88746D02*
X89000Y118627D01*
X88746Y118754D02*
X88873Y118500D01*
X88746Y118246D02*
X88873Y118500D01*
X113246Y117746D02*
X113500Y117873D01*
X113754Y117746D01*
X113627Y118000D02*
X113754Y117746D01*
X113627Y118000D02*
X113754Y118254D01*
X113500Y118127D02*
X113754Y118254D01*
X113246D02*
X113500Y118127D01*
X113246Y118254D02*
X113373Y118000D01*
X113246Y117746D02*
X113373Y118000D01*
X106996Y118746D02*
X107250Y118873D01*
X107504Y118746D01*
X107377Y119000D02*
X107504Y118746D01*
X107377Y119000D02*
X107504Y119254D01*
X107250Y119127D02*
X107504Y119254D01*
X106996D02*
X107250Y119127D01*
X106996Y119254D02*
X107123Y119000D01*
X106996Y118746D02*
X107123Y119000D01*
X99746Y118746D02*
X100000Y118873D01*
X100254Y118746D01*
X100127Y119000D02*
X100254Y118746D01*
X100127Y119000D02*
X100254Y119254D01*
X100000Y119127D02*
X100254Y119254D01*
X99746D02*
X100000Y119127D01*
X99746Y119254D02*
X99873Y119000D01*
X99746Y118746D02*
X99873Y119000D01*
X99746Y114746D02*
X100000Y114873D01*
X100254Y114746D01*
X100127Y115000D02*
X100254Y114746D01*
X100127Y115000D02*
X100254Y115254D01*
X100000Y115127D02*
X100254Y115254D01*
X99746D02*
X100000Y115127D01*
X99746Y115254D02*
X99873Y115000D01*
X99746Y114746D02*
X99873Y115000D01*
X89496Y111496D02*
X89750Y111623D01*
X90004Y111496D01*
X89877Y111750D02*
X90004Y111496D01*
X89877Y111750D02*
X90004Y112004D01*
X89750Y111877D02*
X90004Y112004D01*
X89496D02*
X89750Y111877D01*
X89496Y112004D02*
X89623Y111750D01*
X89496Y111496D02*
X89623Y111750D01*
X91246Y114746D02*
X91500Y114873D01*
X91754Y114746D01*
X91627Y115000D02*
X91754Y114746D01*
X91627Y115000D02*
X91754Y115254D01*
X91500Y115127D02*
X91754Y115254D01*
X91246D02*
X91500Y115127D01*
X91246Y115254D02*
X91373Y115000D01*
X91246Y114746D02*
X91373Y115000D01*
X90996Y112746D02*
X91250Y112873D01*
X91504Y112746D01*
X91377Y113000D02*
X91504Y112746D01*
X91377Y113000D02*
X91504Y113254D01*
X91250Y113127D02*
X91504Y113254D01*
X90996D02*
X91250Y113127D01*
X90996Y113254D02*
X91123Y113000D01*
X90996Y112746D02*
X91123Y113000D01*
X110246Y111496D02*
X110500Y111623D01*
X110754Y111496D01*
X110627Y111750D02*
X110754Y111496D01*
X110627Y111750D02*
X110754Y112004D01*
X110500Y111877D02*
X110754Y112004D01*
X110246D02*
X110500Y111877D01*
X110246Y112004D02*
X110373Y111750D01*
X110246Y111496D02*
X110373Y111750D01*
X108496Y112746D02*
X108750Y112873D01*
X109004Y112746D01*
X108877Y113000D02*
X109004Y112746D01*
X108877Y113000D02*
X109004Y113254D01*
X108750Y113127D02*
X109004Y113254D01*
X108496D02*
X108750Y113127D01*
X108496Y113254D02*
X108623Y113000D01*
X108496Y112746D02*
X108623Y113000D01*
X108246Y114746D02*
X108500Y114873D01*
X108754Y114746D01*
X108627Y115000D02*
X108754Y114746D01*
X108627Y115000D02*
X108754Y115254D01*
X108500Y115127D02*
X108754Y115254D01*
X108246D02*
X108500Y115127D01*
X108246Y115254D02*
X108373Y115000D01*
X108246Y114746D02*
X108373Y115000D01*
X109996Y124496D02*
X110250Y124623D01*
X110504Y124496D01*
X110377Y124750D02*
X110504Y124496D01*
X110377Y124750D02*
X110504Y125004D01*
X110250Y124877D02*
X110504Y125004D01*
X109996D02*
X110250Y124877D01*
X109996Y125004D02*
X110123Y124750D01*
X109996Y124496D02*
X110123Y124750D01*
X108246Y127746D02*
X108500Y127873D01*
X108754Y127746D01*
X108627Y128000D02*
X108754Y127746D01*
X108627Y128000D02*
X108754Y128254D01*
X108500Y128127D02*
X108754Y128254D01*
X108246D02*
X108500Y128127D01*
X108246Y128254D02*
X108373Y128000D01*
X108246Y127746D02*
X108373Y128000D01*
X108496Y125746D02*
X108750Y125873D01*
X109004Y125746D01*
X108877Y126000D02*
X109004Y125746D01*
X108877Y126000D02*
X109004Y126254D01*
X108750Y126127D02*
X109004Y126254D01*
X108496D02*
X108750Y126127D01*
X108496Y126254D02*
X108623Y126000D01*
X108496Y125746D02*
X108623Y126000D01*
X89496Y124246D02*
X89750Y124373D01*
X90004Y124246D01*
X89877Y124500D02*
X90004Y124246D01*
X89877Y124500D02*
X90004Y124754D01*
X89750Y124627D02*
X90004Y124754D01*
X89496D02*
X89750Y124627D01*
X89496Y124754D02*
X89623Y124500D01*
X89496Y124246D02*
X89623Y124500D01*
X90996Y125746D02*
X91250Y125873D01*
X91504Y125746D01*
X91377Y126000D02*
X91504Y125746D01*
X91377Y126000D02*
X91504Y126254D01*
X91250Y126127D02*
X91504Y126254D01*
X90996D02*
X91250Y126127D01*
X90996Y126254D02*
X91123Y126000D01*
X90996Y125746D02*
X91123Y126000D01*
X91246Y127746D02*
X91500Y127873D01*
X91754Y127746D01*
X91627Y128000D02*
X91754Y127746D01*
X91627Y128000D02*
X91754Y128254D01*
X91500Y128127D02*
X91754Y128254D01*
X91246D02*
X91500Y128127D01*
X91246Y128254D02*
X91373Y128000D01*
X91246Y127746D02*
X91373Y128000D01*
X89496Y137246D02*
X89750Y137373D01*
X90004Y137246D01*
X89877Y137500D02*
X90004Y137246D01*
X89877Y137500D02*
X90004Y137754D01*
X89750Y137627D02*
X90004Y137754D01*
X89496D02*
X89750Y137627D01*
X89496Y137754D02*
X89623Y137500D01*
X89496Y137246D02*
X89623Y137500D01*
X90996Y138746D02*
X91250Y138873D01*
X91504Y138746D01*
X91377Y139000D02*
X91504Y138746D01*
X91377Y139000D02*
X91504Y139254D01*
X91250Y139127D02*
X91504Y139254D01*
X90996D02*
X91250Y139127D01*
X90996Y139254D02*
X91123Y139000D01*
X90996Y138746D02*
X91123Y139000D01*
X91246Y140746D02*
X91500Y140873D01*
X91754Y140746D01*
X91627Y141000D02*
X91754Y140746D01*
X91627Y141000D02*
X91754Y141254D01*
X91500Y141127D02*
X91754Y141254D01*
X91246D02*
X91500Y141127D01*
X91246Y141254D02*
X91373Y141000D01*
X91246Y140746D02*
X91373Y141000D01*
X108496Y138746D02*
X108750Y138873D01*
X109004Y138746D01*
X108877Y139000D02*
X109004Y138746D01*
X108877Y139000D02*
X109004Y139254D01*
X108750Y139127D02*
X109004Y139254D01*
X108496D02*
X108750Y139127D01*
X108496Y139254D02*
X108623Y139000D01*
X108496Y138746D02*
X108623Y139000D01*
X109996Y137246D02*
X110250Y137373D01*
X110504Y137246D01*
X110377Y137500D02*
X110504Y137246D01*
X110377Y137500D02*
X110504Y137754D01*
X110250Y137627D02*
X110504Y137754D01*
X109996D02*
X110250Y137627D01*
X109996Y137754D02*
X110123Y137500D01*
X109996Y137246D02*
X110123Y137500D01*
X108246Y140746D02*
X108500Y140873D01*
X108754Y140746D01*
X108627Y141000D02*
X108754Y140746D01*
X108627Y141000D02*
X108754Y141254D01*
X108500Y141127D02*
X108754Y141254D01*
X108246D02*
X108500Y141127D01*
X108246Y141254D02*
X108373Y141000D01*
X108246Y140746D02*
X108373Y141000D01*
X107746Y144746D02*
X108000Y144873D01*
X108254Y144746D01*
X108127Y145000D02*
X108254Y144746D01*
X108127Y145000D02*
X108254Y145254D01*
X108000Y145127D02*
X108254Y145254D01*
X107746D02*
X108000Y145127D01*
X107746Y145254D02*
X107873Y145000D01*
X107746Y144746D02*
X107873Y145000D01*
X113746Y149496D02*
X114000Y149623D01*
X114254Y149496D01*
X114127Y149750D02*
X114254Y149496D01*
X114127Y149750D02*
X114254Y150004D01*
X114000Y149877D02*
X114254Y150004D01*
X113746D02*
X114000Y149877D01*
X113746Y150004D02*
X113873Y149750D01*
X113746Y149496D02*
X113873Y149750D01*
X113496Y154246D02*
X113750Y154373D01*
X114004Y154246D01*
X113877Y154500D02*
X114004Y154246D01*
X113877Y154500D02*
X114004Y154754D01*
X113750Y154627D02*
X114004Y154754D01*
X113496D02*
X113750Y154627D01*
X113496Y154754D02*
X113623Y154500D01*
X113496Y154246D02*
X113623Y154500D01*
X85996Y154246D02*
X86250Y154373D01*
X86504Y154246D01*
X86377Y154500D02*
X86504Y154246D01*
X86377Y154500D02*
X86504Y154754D01*
X86250Y154627D02*
X86504Y154754D01*
X85996D02*
X86250Y154627D01*
X85996Y154754D02*
X86123Y154500D01*
X85996Y154246D02*
X86123Y154500D01*
X83996Y164746D02*
X84250Y164873D01*
X84504Y164746D01*
X84377Y165000D02*
X84504Y164746D01*
X84377Y165000D02*
X84504Y165254D01*
X84250Y165127D02*
X84504Y165254D01*
X83996D02*
X84250Y165127D01*
X83996Y165254D02*
X84123Y165000D01*
X83996Y164746D02*
X84123Y165000D01*
X88246Y173246D02*
X88500Y173373D01*
X88754Y173246D01*
X88627Y173500D02*
X88754Y173246D01*
X88627Y173500D02*
X88754Y173754D01*
X88500Y173627D02*
X88754Y173754D01*
X88246D02*
X88500Y173627D01*
X88246Y173754D02*
X88373Y173500D01*
X88246Y173246D02*
X88373Y173500D01*
X94246Y174996D02*
X94500Y175123D01*
X94754Y174996D01*
X94627Y175250D02*
X94754Y174996D01*
X94627Y175250D02*
X94754Y175504D01*
X94500Y175377D02*
X94754Y175504D01*
X94246D02*
X94500Y175377D01*
X94246Y175504D02*
X94373Y175250D01*
X94246Y174996D02*
X94373Y175250D01*
X97246Y198496D02*
X97500Y198623D01*
X97754Y198496D01*
X97627Y198750D02*
X97754Y198496D01*
X97627Y198750D02*
X97754Y199004D01*
X97500Y198877D02*
X97754Y199004D01*
X97246D02*
X97500Y198877D01*
X97246Y199004D02*
X97373Y198750D01*
X97246Y198496D02*
X97373Y198750D01*
X95746Y199746D02*
X96000Y199873D01*
X96254Y199746D01*
X96127Y200000D02*
X96254Y199746D01*
X96127Y200000D02*
X96254Y200254D01*
X96000Y200127D02*
X96254Y200254D01*
X95746D02*
X96000Y200127D01*
X95746Y200254D02*
X95873Y200000D01*
X95746Y199746D02*
X95873Y200000D01*
X93996Y198496D02*
X94250Y198623D01*
X94504Y198496D01*
X94377Y198750D02*
X94504Y198496D01*
X94377Y198750D02*
X94504Y199004D01*
X94250Y198877D02*
X94504Y199004D01*
X93996D02*
X94250Y198877D01*
X93996Y199004D02*
X94123Y198750D01*
X93996Y198496D02*
X94123Y198750D01*
X102246Y198496D02*
X102500Y198623D01*
X102754Y198496D01*
X102627Y198750D02*
X102754Y198496D01*
X102627Y198750D02*
X102754Y199004D01*
X102500Y198877D02*
X102754Y199004D01*
X102246D02*
X102500Y198877D01*
X102246Y199004D02*
X102373Y198750D01*
X102246Y198496D02*
X102373Y198750D01*
X103746Y199746D02*
X104000Y199873D01*
X104254Y199746D01*
X104127Y200000D02*
X104254Y199746D01*
X104127Y200000D02*
X104254Y200254D01*
X104000Y200127D02*
X104254Y200254D01*
X103746D02*
X104000Y200127D01*
X103746Y200254D02*
X103873Y200000D01*
X103746Y199746D02*
X103873Y200000D01*
X105246Y198496D02*
X105500Y198623D01*
X105754Y198496D01*
X105627Y198750D02*
X105754Y198496D01*
X105627Y198750D02*
X105754Y199004D01*
X105500Y198877D02*
X105754Y199004D01*
X105246D02*
X105500Y198877D01*
X105246Y199004D02*
X105373Y198750D01*
X105246Y198496D02*
X105373Y198750D01*
X114746Y197246D02*
X115000Y197373D01*
X115254Y197246D01*
X115127Y197500D02*
X115254Y197246D01*
X115127Y197500D02*
X115254Y197754D01*
X115000Y197627D02*
X115254Y197754D01*
X114746D02*
X115000Y197627D01*
X114746Y197754D02*
X114873Y197500D01*
X114746Y197246D02*
X114873Y197500D01*
X108746Y196996D02*
X109000Y197123D01*
X109254Y196996D01*
X109127Y197250D02*
X109254Y196996D01*
X109127Y197250D02*
X109254Y197504D01*
X109000Y197377D02*
X109254Y197504D01*
X108746D02*
X109000Y197377D01*
X108746Y197504D02*
X108873Y197250D01*
X108746Y196996D02*
X108873Y197250D01*
X84496Y196996D02*
X84750Y197123D01*
X85004Y196996D01*
X84877Y197250D02*
X85004Y196996D01*
X84877Y197250D02*
X85004Y197504D01*
X84750Y197377D02*
X85004Y197504D01*
X84496D02*
X84750Y197377D01*
X84496Y197504D02*
X84623Y197250D01*
X84496Y196996D02*
X84623Y197250D01*
X90746Y196996D02*
X91000Y197123D01*
X91254Y196996D01*
X91127Y197250D02*
X91254Y196996D01*
X91127Y197250D02*
X91254Y197504D01*
X91000Y197377D02*
X91254Y197504D01*
X90746D02*
X91000Y197377D01*
X90746Y197504D02*
X90873Y197250D01*
X90746Y196996D02*
X90873Y197250D01*
X92496Y167246D02*
X92750Y167373D01*
X93004Y167246D01*
X92877Y167500D02*
X93004Y167246D01*
X92877Y167500D02*
X93004Y167754D01*
X92750Y167627D02*
X93004Y167754D01*
X92496D02*
X92750Y167627D01*
X92496Y167754D02*
X92623Y167500D01*
X92496Y167246D02*
X92623Y167500D01*
X100246Y168246D02*
X100500Y168373D01*
X100754Y168246D01*
X100627Y168500D02*
X100754Y168246D01*
X100627Y168500D02*
X100754Y168754D01*
X100500Y168627D02*
X100754Y168754D01*
X100246D02*
X100500Y168627D01*
X100246Y168754D02*
X100373Y168500D01*
X100246Y168246D02*
X100373Y168500D01*
X100496Y163996D02*
X100750Y164123D01*
X101004Y163996D01*
X100877Y164250D02*
X101004Y163996D01*
X100877Y164250D02*
X101004Y164504D01*
X100750Y164377D02*
X101004Y164504D01*
X100496D02*
X100750Y164377D01*
X100496Y164504D02*
X100623Y164250D01*
X100496Y163996D02*
X100623Y164250D01*
X97496Y159746D02*
X97750Y159873D01*
X98004Y159746D01*
X97877Y160000D02*
X98004Y159746D01*
X97877Y160000D02*
X98004Y160254D01*
X97750Y160127D02*
X98004Y160254D01*
X97496D02*
X97750Y160127D01*
X97496Y160254D02*
X97623Y160000D01*
X97496Y159746D02*
X97623Y160000D01*
X85996Y115246D02*
X86250Y115373D01*
X86504Y115246D01*
X86377Y115500D02*
X86504Y115246D01*
X86377Y115500D02*
X86504Y115754D01*
X86250Y115627D02*
X86504Y115754D01*
X85996D02*
X86250Y115627D01*
X85996Y115754D02*
X86123Y115500D01*
X85996Y115246D02*
X86123Y115500D01*
X85996Y128246D02*
X86250Y128373D01*
X86504Y128246D01*
X86377Y128500D02*
X86504Y128246D01*
X86377Y128500D02*
X86504Y128754D01*
X86250Y128627D02*
X86504Y128754D01*
X85996D02*
X86250Y128627D01*
X85996Y128754D02*
X86123Y128500D01*
X85996Y128246D02*
X86123Y128500D01*
X85996Y141246D02*
X86250Y141373D01*
X86504Y141246D01*
X86377Y141500D02*
X86504Y141246D01*
X86377Y141500D02*
X86504Y141754D01*
X86250Y141627D02*
X86504Y141754D01*
X85996D02*
X86250Y141627D01*
X85996Y141754D02*
X86123Y141500D01*
X85996Y141246D02*
X86123Y141500D01*
X113496Y141246D02*
X113750Y141373D01*
X114004Y141246D01*
X113877Y141500D02*
X114004Y141246D01*
X113877Y141500D02*
X114004Y141754D01*
X113750Y141627D02*
X114004Y141754D01*
X113496D02*
X113750Y141627D01*
X113496Y141754D02*
X113623Y141500D01*
X113496Y141246D02*
X113623Y141500D01*
X113496Y128246D02*
X113750Y128373D01*
X114004Y128246D01*
X113877Y128500D02*
X114004Y128246D01*
X113877Y128500D02*
X114004Y128754D01*
X113750Y128627D02*
X114004Y128754D01*
X113496D02*
X113750Y128627D01*
X113496Y128754D02*
X113623Y128500D01*
X113496Y128246D02*
X113623Y128500D01*
X113496Y115246D02*
X113750Y115373D01*
X114004Y115246D01*
X113877Y115500D02*
X114004Y115246D01*
X113877Y115500D02*
X114004Y115754D01*
X113750Y115627D02*
X114004Y115754D01*
X113496D02*
X113750Y115627D01*
X113496Y115754D02*
X113623Y115500D01*
X113496Y115246D02*
X113623Y115500D01*
X118996Y113746D02*
X119250Y113873D01*
X119504Y113746D01*
X119377Y114000D02*
X119504Y113746D01*
X119377Y114000D02*
X119504Y114254D01*
X119250Y114127D02*
X119504Y114254D01*
X118996D02*
X119250Y114127D01*
X118996Y114254D02*
X119123Y114000D01*
X118996Y113746D02*
X119123Y114000D01*
X118746Y218996D02*
X119000Y219123D01*
X119254Y218996D01*
X119127Y219250D02*
X119254Y218996D01*
X119127Y219250D02*
X119254Y219504D01*
X119000Y219377D02*
X119254Y219504D01*
X118746D02*
X119000Y219377D01*
X118746Y219504D02*
X118873Y219250D01*
X118746Y218996D02*
X118873Y219250D01*
X80746Y218996D02*
X81000Y219123D01*
X81254Y218996D01*
X81127Y219250D02*
X81254Y218996D01*
X81127Y219250D02*
X81254Y219504D01*
X81000Y219377D02*
X81254Y219504D01*
X80746D02*
X81000Y219377D01*
X80746Y219504D02*
X80873Y219250D01*
X80746Y218996D02*
X80873Y219250D01*
X84546Y218996D02*
X84800Y219123D01*
X85054Y218996D01*
X84927Y219250D02*
X85054Y218996D01*
X84927Y219250D02*
X85054Y219504D01*
X84800Y219377D02*
X85054Y219504D01*
X84546D02*
X84800Y219377D01*
X84546Y219504D02*
X84673Y219250D01*
X84546Y218996D02*
X84673Y219250D01*
X88346Y218996D02*
X88600Y219123D01*
X88854Y218996D01*
X88727Y219250D02*
X88854Y218996D01*
X88727Y219250D02*
X88854Y219504D01*
X88600Y219377D02*
X88854Y219504D01*
X88346D02*
X88600Y219377D01*
X88346Y219504D02*
X88473Y219250D01*
X88346Y218996D02*
X88473Y219250D01*
X95946Y218996D02*
X96200Y219123D01*
X96454Y218996D01*
X96327Y219250D02*
X96454Y218996D01*
X96327Y219250D02*
X96454Y219504D01*
X96200Y219377D02*
X96454Y219504D01*
X95946D02*
X96200Y219377D01*
X95946Y219504D02*
X96073Y219250D01*
X95946Y218996D02*
X96073Y219250D01*
X92146Y218996D02*
X92400Y219123D01*
X92654Y218996D01*
X92527Y219250D02*
X92654Y218996D01*
X92527Y219250D02*
X92654Y219504D01*
X92400Y219377D02*
X92654Y219504D01*
X92146D02*
X92400Y219377D01*
X92146Y219504D02*
X92273Y219250D01*
X92146Y218996D02*
X92273Y219250D01*
X103546Y218996D02*
X103800Y219123D01*
X104054Y218996D01*
X103927Y219250D02*
X104054Y218996D01*
X103927Y219250D02*
X104054Y219504D01*
X103800Y219377D02*
X104054Y219504D01*
X103546D02*
X103800Y219377D01*
X103546Y219504D02*
X103673Y219250D01*
X103546Y218996D02*
X103673Y219250D01*
X99746Y218996D02*
X100000Y219123D01*
X100254Y218996D01*
X100127Y219250D02*
X100254Y218996D01*
X100127Y219250D02*
X100254Y219504D01*
X100000Y219377D02*
X100254Y219504D01*
X99746D02*
X100000Y219377D01*
X99746Y219504D02*
X99873Y219250D01*
X99746Y218996D02*
X99873Y219250D01*
X111146Y218996D02*
X111400Y219123D01*
X111654Y218996D01*
X111527Y219250D02*
X111654Y218996D01*
X111527Y219250D02*
X111654Y219504D01*
X111400Y219377D02*
X111654Y219504D01*
X111146D02*
X111400Y219377D01*
X111146Y219504D02*
X111273Y219250D01*
X111146Y218996D02*
X111273Y219250D01*
X107346Y218996D02*
X107600Y219123D01*
X107854Y218996D01*
X107727Y219250D02*
X107854Y218996D01*
X107727Y219250D02*
X107854Y219504D01*
X107600Y219377D02*
X107854Y219504D01*
X107346D02*
X107600Y219377D01*
X107346Y219504D02*
X107473Y219250D01*
X107346Y218996D02*
X107473Y219250D01*
X114946Y218996D02*
X115200Y219123D01*
X115454Y218996D01*
X115327Y219250D02*
X115454Y218996D01*
X115327Y219250D02*
X115454Y219504D01*
X115200Y219377D02*
X115454Y219504D01*
X114946D02*
X115200Y219377D01*
X114946Y219504D02*
X115073Y219250D01*
X114946Y218996D02*
X115073Y219250D01*
X80746Y108996D02*
X81000Y109123D01*
X81254Y108996D01*
X81127Y109250D02*
X81254Y108996D01*
X81127Y109250D02*
X81254Y109504D01*
X81000Y109377D02*
X81254Y109504D01*
X80746D02*
X81000Y109377D01*
X80746Y109504D02*
X80873Y109250D01*
X80746Y108996D02*
X80873Y109250D01*
X84546Y108996D02*
X84800Y109123D01*
X85054Y108996D01*
X84927Y109250D02*
X85054Y108996D01*
X84927Y109250D02*
X85054Y109504D01*
X84800Y109377D02*
X85054Y109504D01*
X84546D02*
X84800Y109377D01*
X84546Y109504D02*
X84673Y109250D01*
X84546Y108996D02*
X84673Y109250D01*
X88346Y108996D02*
X88600Y109123D01*
X88854Y108996D01*
X88727Y109250D02*
X88854Y108996D01*
X88727Y109250D02*
X88854Y109504D01*
X88600Y109377D02*
X88854Y109504D01*
X88346D02*
X88600Y109377D01*
X88346Y109504D02*
X88473Y109250D01*
X88346Y108996D02*
X88473Y109250D01*
X92146Y108996D02*
X92400Y109123D01*
X92654Y108996D01*
X92527Y109250D02*
X92654Y108996D01*
X92527Y109250D02*
X92654Y109504D01*
X92400Y109377D02*
X92654Y109504D01*
X92146D02*
X92400Y109377D01*
X92146Y109504D02*
X92273Y109250D01*
X92146Y108996D02*
X92273Y109250D01*
X95946Y108996D02*
X96200Y109123D01*
X96454Y108996D01*
X96327Y109250D02*
X96454Y108996D01*
X96327Y109250D02*
X96454Y109504D01*
X96200Y109377D02*
X96454Y109504D01*
X95946D02*
X96200Y109377D01*
X95946Y109504D02*
X96073Y109250D01*
X95946Y108996D02*
X96073Y109250D01*
X99746Y108996D02*
X100000Y109123D01*
X100254Y108996D01*
X100127Y109250D02*
X100254Y108996D01*
X100127Y109250D02*
X100254Y109504D01*
X100000Y109377D02*
X100254Y109504D01*
X99746D02*
X100000Y109377D01*
X99746Y109504D02*
X99873Y109250D01*
X99746Y108996D02*
X99873Y109250D01*
X103546Y108996D02*
X103800Y109123D01*
X104054Y108996D01*
X103927Y109250D02*
X104054Y108996D01*
X103927Y109250D02*
X104054Y109504D01*
X103800Y109377D02*
X104054Y109504D01*
X103546D02*
X103800Y109377D01*
X103546Y109504D02*
X103673Y109250D01*
X103546Y108996D02*
X103673Y109250D01*
X107346Y108996D02*
X107600Y109123D01*
X107854Y108996D01*
X107727Y109250D02*
X107854Y108996D01*
X107727Y109250D02*
X107854Y109504D01*
X107600Y109377D02*
X107854Y109504D01*
X107346D02*
X107600Y109377D01*
X107346Y109504D02*
X107473Y109250D01*
X107346Y108996D02*
X107473Y109250D01*
X111146Y108996D02*
X111400Y109123D01*
X111654Y108996D01*
X111527Y109250D02*
X111654Y108996D01*
X111527Y109250D02*
X111654Y109504D01*
X111400Y109377D02*
X111654Y109504D01*
X111146D02*
X111400Y109377D01*
X111146Y109504D02*
X111273Y109250D01*
X111146Y108996D02*
X111273Y109250D01*
X114946Y108996D02*
X115200Y109123D01*
X115454Y108996D01*
X115327Y109250D02*
X115454Y108996D01*
X115327Y109250D02*
X115454Y109504D01*
X115200Y109377D02*
X115454Y109504D01*
X114946D02*
X115200Y109377D01*
X114946Y109504D02*
X115073Y109250D01*
X114946Y108996D02*
X115073Y109250D01*
X118746Y108996D02*
X119000Y109123D01*
X119254Y108996D01*
X119127Y109250D02*
X119254Y108996D01*
X119127Y109250D02*
X119254Y109504D01*
X119000Y109377D02*
X119254Y109504D01*
X118746D02*
X119000Y109377D01*
X118746Y109504D02*
X118873Y109250D01*
X118746Y108996D02*
X118873Y109250D01*
X118996Y119496D02*
X119250Y119623D01*
X119504Y119496D01*
X119377Y119750D02*
X119504Y119496D01*
X119377Y119750D02*
X119504Y120004D01*
X119250Y119877D02*
X119504Y120004D01*
X118996D02*
X119250Y119877D01*
X118996Y120004D02*
X119123Y119750D01*
X118996Y119496D02*
X119123Y119750D01*
X102246Y112746D02*
X102500Y112873D01*
X102754Y112746D01*
X102627Y113000D02*
X102754Y112746D01*
X102627Y113000D02*
X102754Y113254D01*
X102500Y113127D02*
X102754Y113254D01*
X102246D02*
X102500Y113127D01*
X102246Y113254D02*
X102373Y113000D01*
X102246Y112746D02*
X102373Y113000D01*
X104146Y114996D02*
X104400Y115123D01*
X104654Y114996D01*
X104527Y115250D02*
X104654Y114996D01*
X104527Y115250D02*
X104654Y115504D01*
X104400Y115377D02*
X104654Y115504D01*
X104146D02*
X104400Y115377D01*
X104146Y115504D02*
X104273Y115250D01*
X104146Y114996D02*
X104273Y115250D01*
X104146Y110496D02*
X104400Y110623D01*
X104654Y110496D01*
X104527Y110750D02*
X104654Y110496D01*
X104527Y110750D02*
X104654Y111004D01*
X104400Y110877D02*
X104654Y111004D01*
X104146D02*
X104400Y110877D01*
X104146Y111004D02*
X104273Y110750D01*
X104146Y110496D02*
X104273Y110750D01*
X97246Y112746D02*
X97500Y112873D01*
X97754Y112746D01*
X97627Y113000D02*
X97754Y112746D01*
X97627Y113000D02*
X97754Y113254D01*
X97500Y113127D02*
X97754Y113254D01*
X97246D02*
X97500Y113127D01*
X97246Y113254D02*
X97373Y113000D01*
X97246Y112746D02*
X97373Y113000D01*
X95346Y114996D02*
X95600Y115123D01*
X95854Y114996D01*
X95727Y115250D02*
X95854Y114996D01*
X95727Y115250D02*
X95854Y115504D01*
X95600Y115377D02*
X95854Y115504D01*
X95346D02*
X95600Y115377D01*
X95346Y115504D02*
X95473Y115250D01*
X95346Y114996D02*
X95473Y115250D01*
X95346Y110496D02*
X95600Y110623D01*
X95854Y110496D01*
X95727Y110750D02*
X95854Y110496D01*
X95727Y110750D02*
X95854Y111004D01*
X95600Y110877D02*
X95854Y111004D01*
X95346D02*
X95600Y110877D01*
X95346Y111004D02*
X95473Y110750D01*
X95346Y110496D02*
X95473Y110750D01*
X102246Y125746D02*
X102500Y125873D01*
X102754Y125746D01*
X102627Y126000D02*
X102754Y125746D01*
X102627Y126000D02*
X102754Y126254D01*
X102500Y126127D02*
X102754Y126254D01*
X102246D02*
X102500Y126127D01*
X102246Y126254D02*
X102373Y126000D01*
X102246Y125746D02*
X102373Y126000D01*
X104146Y127996D02*
X104400Y128123D01*
X104654Y127996D01*
X104527Y128250D02*
X104654Y127996D01*
X104527Y128250D02*
X104654Y128504D01*
X104400Y128377D02*
X104654Y128504D01*
X104146D02*
X104400Y128377D01*
X104146Y128504D02*
X104273Y128250D01*
X104146Y127996D02*
X104273Y128250D01*
X104146Y123496D02*
X104400Y123623D01*
X104654Y123496D01*
X104527Y123750D02*
X104654Y123496D01*
X104527Y123750D02*
X104654Y124004D01*
X104400Y123877D02*
X104654Y124004D01*
X104146D02*
X104400Y123877D01*
X104146Y124004D02*
X104273Y123750D01*
X104146Y123496D02*
X104273Y123750D01*
X97246Y125746D02*
X97500Y125873D01*
X97754Y125746D01*
X97627Y126000D02*
X97754Y125746D01*
X97627Y126000D02*
X97754Y126254D01*
X97500Y126127D02*
X97754Y126254D01*
X97246D02*
X97500Y126127D01*
X97246Y126254D02*
X97373Y126000D01*
X97246Y125746D02*
X97373Y126000D01*
X95346Y127996D02*
X95600Y128123D01*
X95854Y127996D01*
X95727Y128250D02*
X95854Y127996D01*
X95727Y128250D02*
X95854Y128504D01*
X95600Y128377D02*
X95854Y128504D01*
X95346D02*
X95600Y128377D01*
X95346Y128504D02*
X95473Y128250D01*
X95346Y127996D02*
X95473Y128250D01*
X95346Y123496D02*
X95600Y123623D01*
X95854Y123496D01*
X95727Y123750D02*
X95854Y123496D01*
X95727Y123750D02*
X95854Y124004D01*
X95600Y123877D02*
X95854Y124004D01*
X95346D02*
X95600Y123877D01*
X95346Y124004D02*
X95473Y123750D01*
X95346Y123496D02*
X95473Y123750D01*
X102246Y138746D02*
X102500Y138873D01*
X102754Y138746D01*
X102627Y139000D02*
X102754Y138746D01*
X102627Y139000D02*
X102754Y139254D01*
X102500Y139127D02*
X102754Y139254D01*
X102246D02*
X102500Y139127D01*
X102246Y139254D02*
X102373Y139000D01*
X102246Y138746D02*
X102373Y139000D01*
X104146Y140996D02*
X104400Y141123D01*
X104654Y140996D01*
X104527Y141250D02*
X104654Y140996D01*
X104527Y141250D02*
X104654Y141504D01*
X104400Y141377D02*
X104654Y141504D01*
X104146D02*
X104400Y141377D01*
X104146Y141504D02*
X104273Y141250D01*
X104146Y140996D02*
X104273Y141250D01*
X104146Y136496D02*
X104400Y136623D01*
X104654Y136496D01*
X104527Y136750D02*
X104654Y136496D01*
X104527Y136750D02*
X104654Y137004D01*
X104400Y136877D02*
X104654Y137004D01*
X104146D02*
X104400Y136877D01*
X104146Y137004D02*
X104273Y136750D01*
X104146Y136496D02*
X104273Y136750D01*
X97246Y138746D02*
X97500Y138873D01*
X97754Y138746D01*
X97627Y139000D02*
X97754Y138746D01*
X97627Y139000D02*
X97754Y139254D01*
X97500Y139127D02*
X97754Y139254D01*
X97246D02*
X97500Y139127D01*
X97246Y139254D02*
X97373Y139000D01*
X97246Y138746D02*
X97373Y139000D01*
X95346Y140996D02*
X95600Y141123D01*
X95854Y140996D01*
X95727Y141250D02*
X95854Y140996D01*
X95727Y141250D02*
X95854Y141504D01*
X95600Y141377D02*
X95854Y141504D01*
X95346D02*
X95600Y141377D01*
X95346Y141504D02*
X95473Y141250D01*
X95346Y140996D02*
X95473Y141250D01*
X95346Y136496D02*
X95600Y136623D01*
X95854Y136496D01*
X95727Y136750D02*
X95854Y136496D01*
X95727Y136750D02*
X95854Y137004D01*
X95600Y136877D02*
X95854Y137004D01*
X95346D02*
X95600Y136877D01*
X95346Y137004D02*
X95473Y136750D01*
X95346Y136496D02*
X95473Y136750D01*
X95346Y149496D02*
X95600Y149623D01*
X95854Y149496D01*
X95727Y149750D02*
X95854Y149496D01*
X95727Y149750D02*
X95854Y150004D01*
X95600Y149877D02*
X95854Y150004D01*
X95346D02*
X95600Y149877D01*
X95346Y150004D02*
X95473Y149750D01*
X95346Y149496D02*
X95473Y149750D01*
X95346Y153996D02*
X95600Y154123D01*
X95854Y153996D01*
X95727Y154250D02*
X95854Y153996D01*
X95727Y154250D02*
X95854Y154504D01*
X95600Y154377D02*
X95854Y154504D01*
X95346D02*
X95600Y154377D01*
X95346Y154504D02*
X95473Y154250D01*
X95346Y153996D02*
X95473Y154250D01*
X97246Y151746D02*
X97500Y151873D01*
X97754Y151746D01*
X97627Y152000D02*
X97754Y151746D01*
X97627Y152000D02*
X97754Y152254D01*
X97500Y152127D02*
X97754Y152254D01*
X97246D02*
X97500Y152127D01*
X97246Y152254D02*
X97373Y152000D01*
X97246Y151746D02*
X97373Y152000D01*
X104146Y149496D02*
X104400Y149623D01*
X104654Y149496D01*
X104527Y149750D02*
X104654Y149496D01*
X104527Y149750D02*
X104654Y150004D01*
X104400Y149877D02*
X104654Y150004D01*
X104146D02*
X104400Y149877D01*
X104146Y150004D02*
X104273Y149750D01*
X104146Y149496D02*
X104273Y149750D01*
X104146Y153996D02*
X104400Y154123D01*
X104654Y153996D01*
X104527Y154250D02*
X104654Y153996D01*
X104527Y154250D02*
X104654Y154504D01*
X104400Y154377D02*
X104654Y154504D01*
X104146D02*
X104400Y154377D01*
X104146Y154504D02*
X104273Y154250D01*
X104146Y153996D02*
X104273Y154250D01*
X102246Y151746D02*
X102500Y151873D01*
X102754Y151746D01*
X102627Y152000D02*
X102754Y151746D01*
X102627Y152000D02*
X102754Y152254D01*
X102500Y152127D02*
X102754Y152254D01*
X102246D02*
X102500Y152127D01*
X102246Y152254D02*
X102373Y152000D01*
X102246Y151746D02*
X102373Y152000D01*
X101996Y158996D02*
X102250Y159123D01*
X102504Y158996D01*
X102377Y159250D02*
X102504Y158996D01*
X102377Y159250D02*
X102504Y159504D01*
X102250Y159377D02*
X102504Y159504D01*
X101996D02*
X102250Y159377D01*
X101996Y159504D02*
X102123Y159250D01*
X101996Y158996D02*
X102123Y159250D01*
X107496Y158996D02*
X107750Y159123D01*
X108004Y158996D01*
X107877Y159250D02*
X108004Y158996D01*
X107877Y159250D02*
X108004Y159504D01*
X107750Y159377D02*
X108004Y159504D01*
X107496D02*
X107750Y159377D01*
X107496Y159504D02*
X107623Y159250D01*
X107496Y158996D02*
X107623Y159250D01*
X107496Y157996D02*
X107750Y158123D01*
X108004Y157996D01*
X107877Y158250D02*
X108004Y157996D01*
X107877Y158250D02*
X108004Y158504D01*
X107750Y158377D02*
X108004Y158504D01*
X107496D02*
X107750Y158377D01*
X107496Y158504D02*
X107623Y158250D01*
X107496Y157996D02*
X107623Y158250D01*
X101996Y157996D02*
X102250Y158123D01*
X102504Y157996D01*
X102377Y158250D02*
X102504Y157996D01*
X102377Y158250D02*
X102504Y158504D01*
X102250Y158377D02*
X102504Y158504D01*
X101996D02*
X102250Y158377D01*
X101996Y158504D02*
X102123Y158250D01*
X101996Y157996D02*
X102123Y158250D01*
X97496Y157496D02*
X97750Y157623D01*
X98004Y157496D01*
X97877Y157750D02*
X98004Y157496D01*
X97877Y157750D02*
X98004Y158004D01*
X97750Y157877D02*
X98004Y158004D01*
X97496D02*
X97750Y157877D01*
X97496Y158004D02*
X97623Y157750D01*
X97496Y157496D02*
X97623Y157750D01*
X91746Y157496D02*
X92000Y157623D01*
X92254Y157496D01*
X92127Y157750D02*
X92254Y157496D01*
X92127Y157750D02*
X92254Y158004D01*
X92000Y157877D02*
X92254Y158004D01*
X91746D02*
X92000Y157877D01*
X91746Y158004D02*
X91873Y157750D01*
X91746Y157496D02*
X91873Y157750D01*
X89496Y159746D02*
X89750Y159873D01*
X90004Y159746D01*
X89877Y160000D02*
X90004Y159746D01*
X89877Y160000D02*
X90004Y160254D01*
X89750Y160127D02*
X90004Y160254D01*
X89496D02*
X89750Y160127D01*
X89496Y160254D02*
X89623Y160000D01*
X89496Y159746D02*
X89623Y160000D01*
X106246Y196246D02*
X106500Y196373D01*
X106754Y196246D01*
X106627Y196500D02*
X106754Y196246D01*
X106627Y196500D02*
X106754Y196754D01*
X106500Y196627D02*
X106754Y196754D01*
X106246D02*
X106500Y196627D01*
X106246Y196754D02*
X106373Y196500D01*
X106246Y196246D02*
X106373Y196500D01*
X106246Y196996D02*
X106500Y197123D01*
X106754Y196996D01*
X106627Y197250D02*
X106754Y196996D01*
X106627Y197250D02*
X106754Y197504D01*
X106500Y197377D02*
X106754Y197504D01*
X106246D02*
X106500Y197377D01*
X106246Y197504D02*
X106373Y197250D01*
X106246Y196996D02*
X106373Y197250D01*
X106996Y196246D02*
X107250Y196373D01*
X107504Y196246D01*
X107377Y196500D02*
X107504Y196246D01*
X107377Y196500D02*
X107504Y196754D01*
X107250Y196627D02*
X107504Y196754D01*
X106996D02*
X107250Y196627D01*
X106996Y196754D02*
X107123Y196500D01*
X106996Y196246D02*
X107123Y196500D01*
X106246Y195496D02*
X106500Y195623D01*
X106754Y195496D01*
X106627Y195750D02*
X106754Y195496D01*
X106627Y195750D02*
X106754Y196004D01*
X106500Y195877D02*
X106754Y196004D01*
X106246D02*
X106500Y195877D01*
X106246Y196004D02*
X106373Y195750D01*
X106246Y195496D02*
X106373Y195750D01*
X105496Y196246D02*
X105750Y196373D01*
X106004Y196246D01*
X105877Y196500D02*
X106004Y196246D01*
X105877Y196500D02*
X106004Y196754D01*
X105750Y196627D02*
X106004Y196754D01*
X105496D02*
X105750Y196627D01*
X105496Y196754D02*
X105623Y196500D01*
X105496Y196246D02*
X105623Y196500D01*
X105496Y196996D02*
X105750Y197123D01*
X106004Y196996D01*
X105877Y197250D02*
X106004Y196996D01*
X105877Y197250D02*
X106004Y197504D01*
X105750Y197377D02*
X106004Y197504D01*
X105496D02*
X105750Y197377D01*
X105496Y197504D02*
X105623Y197250D01*
X105496Y196996D02*
X105623Y197250D01*
X106996Y196996D02*
X107250Y197123D01*
X107504Y196996D01*
X107377Y197250D02*
X107504Y196996D01*
X107377Y197250D02*
X107504Y197504D01*
X107250Y197377D02*
X107504Y197504D01*
X106996D02*
X107250Y197377D01*
X106996Y197504D02*
X107123Y197250D01*
X106996Y196996D02*
X107123Y197250D01*
X106996Y195496D02*
X107250Y195623D01*
X107504Y195496D01*
X107377Y195750D02*
X107504Y195496D01*
X107377Y195750D02*
X107504Y196004D01*
X107250Y195877D02*
X107504Y196004D01*
X106996D02*
X107250Y195877D01*
X106996Y196004D02*
X107123Y195750D01*
X106996Y195496D02*
X107123Y195750D01*
X105496Y195496D02*
X105750Y195623D01*
X106004Y195496D01*
X105877Y195750D02*
X106004Y195496D01*
X105877Y195750D02*
X106004Y196004D01*
X105750Y195877D02*
X106004Y196004D01*
X105496D02*
X105750Y195877D01*
X105496Y196004D02*
X105623Y195750D01*
X105496Y195496D02*
X105623Y195750D01*
X108496Y118746D02*
X108750Y118873D01*
X109004Y118746D01*
X108877Y119000D02*
X109004Y118746D01*
X108877Y119000D02*
X109004Y119254D01*
X108750Y119127D02*
X109004Y119254D01*
X108496D02*
X108750Y119127D01*
X108496Y119254D02*
X108623Y119000D01*
X108496Y118746D02*
X108623Y119000D01*
X109996Y118746D02*
X110250Y118873D01*
X110504Y118746D01*
X110377Y119000D02*
X110504Y118746D01*
X110377Y119000D02*
X110504Y119254D01*
X110250Y119127D02*
X110504Y119254D01*
X109996D02*
X110250Y119127D01*
X109996Y119254D02*
X110123Y119000D01*
X109996Y118746D02*
X110123Y119000D01*
X109996Y120246D02*
X110250Y120373D01*
X110504Y120246D01*
X110377Y120500D02*
X110504Y120246D01*
X110377Y120500D02*
X110504Y120754D01*
X110250Y120627D02*
X110504Y120754D01*
X109996D02*
X110250Y120627D01*
X109996Y120754D02*
X110123Y120500D01*
X109996Y120246D02*
X110123Y120500D01*
X108496Y120246D02*
X108750Y120373D01*
X109004Y120246D01*
X108877Y120500D02*
X109004Y120246D01*
X108877Y120500D02*
X109004Y120754D01*
X108750Y120627D02*
X109004Y120754D01*
X108496D02*
X108750Y120627D01*
X108496Y120754D02*
X108623Y120500D01*
X108496Y120246D02*
X108623Y120500D01*
X108496Y119496D02*
X108750Y119623D01*
X109004Y119496D01*
X108877Y119750D02*
X109004Y119496D01*
X108877Y119750D02*
X109004Y120004D01*
X108750Y119877D02*
X109004Y120004D01*
X108496D02*
X108750Y119877D01*
X108496Y120004D02*
X108623Y119750D01*
X108496Y119496D02*
X108623Y119750D01*
X109246Y118746D02*
X109500Y118873D01*
X109754Y118746D01*
X109627Y119000D02*
X109754Y118746D01*
X109627Y119000D02*
X109754Y119254D01*
X109500Y119127D02*
X109754Y119254D01*
X109246D02*
X109500Y119127D01*
X109246Y119254D02*
X109373Y119000D01*
X109246Y118746D02*
X109373Y119000D01*
X109996Y119496D02*
X110250Y119623D01*
X110504Y119496D01*
X110377Y119750D02*
X110504Y119496D01*
X110377Y119750D02*
X110504Y120004D01*
X110250Y119877D02*
X110504Y120004D01*
X109996D02*
X110250Y119877D01*
X109996Y120004D02*
X110123Y119750D01*
X109996Y119496D02*
X110123Y119750D01*
X109246Y120246D02*
X109500Y120373D01*
X109754Y120246D01*
X109627Y120500D02*
X109754Y120246D01*
X109627Y120500D02*
X109754Y120754D01*
X109500Y120627D02*
X109754Y120754D01*
X109246D02*
X109500Y120627D01*
X109246Y120754D02*
X109373Y120500D01*
X109246Y120246D02*
X109373Y120500D01*
X109246Y119496D02*
X109500Y119623D01*
X109754Y119496D01*
X109627Y119750D02*
X109754Y119496D01*
X109627Y119750D02*
X109754Y120004D01*
X109500Y119877D02*
X109754Y120004D01*
X109246D02*
X109500Y119877D01*
X109246Y120004D02*
X109373Y119750D01*
X109246Y119496D02*
X109373Y119750D01*
X111496Y146496D02*
X111750Y146623D01*
X112004Y146496D01*
X111877Y146750D02*
X112004Y146496D01*
X111877Y146750D02*
X112004Y147004D01*
X111750Y146877D02*
X112004Y147004D01*
X111496D02*
X111750Y146877D01*
X111496Y147004D02*
X111623Y146750D01*
X111496Y146496D02*
X111623Y146750D01*
X92146Y202996D02*
X92400Y203123D01*
X92654Y202996D01*
X92527Y203250D02*
X92654Y202996D01*
X92527Y203250D02*
X92654Y203504D01*
X92400Y203377D02*
X92654Y203504D01*
X92146D02*
X92400Y203377D01*
X92146Y203504D02*
X92273Y203250D01*
X92146Y202996D02*
X92273Y203250D01*
X87746Y207746D02*
X88000Y207873D01*
X88254Y207746D01*
X88127Y208000D02*
X88254Y207746D01*
X88127Y208000D02*
X88254Y208254D01*
X88000Y208127D02*
X88254Y208254D01*
X87746D02*
X88000Y208127D01*
X87746Y208254D02*
X87873Y208000D01*
X87746Y207746D02*
X87873Y208000D01*
X97246Y170746D02*
X97500Y170873D01*
X97754Y170746D01*
X97627Y171000D02*
X97754Y170746D01*
X97627Y171000D02*
X97754Y171254D01*
X97500Y171127D02*
X97754Y171254D01*
X97246D02*
X97500Y171127D01*
X97246Y171254D02*
X97373Y171000D01*
X97246Y170746D02*
X97373Y171000D01*
X98496Y176496D02*
X98750Y176623D01*
X99004Y176496D01*
X98877Y176750D02*
X99004Y176496D01*
X98877Y176750D02*
X99004Y177004D01*
X98750Y176877D02*
X99004Y177004D01*
X98496D02*
X98750Y176877D01*
X98496Y177004D02*
X98623Y176750D01*
X98496Y176496D02*
X98623Y176750D01*
X98746Y173275D02*
X99000Y173402D01*
X99254Y173275D01*
X99127Y173529D02*
X99254Y173275D01*
X99127Y173529D02*
X99254Y173783D01*
X99000Y173656D02*
X99254Y173783D01*
X98746D02*
X99000Y173656D01*
X98746Y173783D02*
X98873Y173529D01*
X98746Y173275D02*
X98873Y173529D01*
X103246Y189246D02*
X103500Y189373D01*
X103754Y189246D01*
X103627Y189500D02*
X103754Y189246D01*
X103627Y189500D02*
X103754Y189754D01*
X103500Y189627D02*
X103754Y189754D01*
X103246D02*
X103500Y189627D01*
X103246Y189754D02*
X103373Y189500D01*
X103246Y189246D02*
X103373Y189500D01*
X103246Y188246D02*
X103500Y188373D01*
X103754Y188246D01*
X103627Y188500D02*
X103754Y188246D01*
X103627Y188500D02*
X103754Y188754D01*
X103500Y188627D02*
X103754Y188754D01*
X103246D02*
X103500Y188627D01*
X103246Y188754D02*
X103373Y188500D01*
X103246Y188246D02*
X103373Y188500D01*
X103246Y187246D02*
X103500Y187373D01*
X103754Y187246D01*
X103627Y187500D02*
X103754Y187246D01*
X103627Y187500D02*
X103754Y187754D01*
X103500Y187627D02*
X103754Y187754D01*
X103246D02*
X103500Y187627D01*
X103246Y187754D02*
X103373Y187500D01*
X103246Y187246D02*
X103373Y187500D01*
X103246Y186246D02*
X103500Y186373D01*
X103754Y186246D01*
X103627Y186500D02*
X103754Y186246D01*
X103627Y186500D02*
X103754Y186754D01*
X103500Y186627D02*
X103754Y186754D01*
X103246D02*
X103500Y186627D01*
X103246Y186754D02*
X103373Y186500D01*
X103246Y186246D02*
X103373Y186500D01*
X103246Y185246D02*
X103500Y185373D01*
X103754Y185246D01*
X103627Y185500D02*
X103754Y185246D01*
X103627Y185500D02*
X103754Y185754D01*
X103500Y185627D02*
X103754Y185754D01*
X103246D02*
X103500Y185627D01*
X103246Y185754D02*
X103373Y185500D01*
X103246Y185246D02*
X103373Y185500D01*
X103246Y184246D02*
X103500Y184373D01*
X103754Y184246D01*
X103627Y184500D02*
X103754Y184246D01*
X103627Y184500D02*
X103754Y184754D01*
X103500Y184627D02*
X103754Y184754D01*
X103246D02*
X103500Y184627D01*
X103246Y184754D02*
X103373Y184500D01*
X103246Y184246D02*
X103373Y184500D01*
X103246Y183246D02*
X103500Y183373D01*
X103754Y183246D01*
X103627Y183500D02*
X103754Y183246D01*
X103627Y183500D02*
X103754Y183754D01*
X103500Y183627D02*
X103754Y183754D01*
X103246D02*
X103500Y183627D01*
X103246Y183754D02*
X103373Y183500D01*
X103246Y183246D02*
X103373Y183500D01*
X103246Y182246D02*
X103500Y182373D01*
X103754Y182246D01*
X103627Y182500D02*
X103754Y182246D01*
X103627Y182500D02*
X103754Y182754D01*
X103500Y182627D02*
X103754Y182754D01*
X103246D02*
X103500Y182627D01*
X103246Y182754D02*
X103373Y182500D01*
X103246Y182246D02*
X103373Y182500D01*
X103246Y181246D02*
X103500Y181373D01*
X103754Y181246D01*
X103627Y181500D02*
X103754Y181246D01*
X103627Y181500D02*
X103754Y181754D01*
X103500Y181627D02*
X103754Y181754D01*
X103246D02*
X103500Y181627D01*
X103246Y181754D02*
X103373Y181500D01*
X103246Y181246D02*
X103373Y181500D01*
X103246Y180246D02*
X103500Y180373D01*
X103754Y180246D01*
X103627Y180500D02*
X103754Y180246D01*
X103627Y180500D02*
X103754Y180754D01*
X103500Y180627D02*
X103754Y180754D01*
X103246D02*
X103500Y180627D01*
X103246Y180754D02*
X103373Y180500D01*
X103246Y180246D02*
X103373Y180500D01*
X103246Y179246D02*
X103500Y179373D01*
X103754Y179246D01*
X103627Y179500D02*
X103754Y179246D01*
X103627Y179500D02*
X103754Y179754D01*
X103500Y179627D02*
X103754Y179754D01*
X103246D02*
X103500Y179627D01*
X103246Y179754D02*
X103373Y179500D01*
X103246Y179246D02*
X103373Y179500D01*
X103246Y178246D02*
X103500Y178373D01*
X103754Y178246D01*
X103627Y178500D02*
X103754Y178246D01*
X103627Y178500D02*
X103754Y178754D01*
X103500Y178627D02*
X103754Y178754D01*
X103246D02*
X103500Y178627D01*
X103246Y178754D02*
X103373Y178500D01*
X103246Y178246D02*
X103373Y178500D01*
X103246Y177246D02*
X103500Y177373D01*
X103754Y177246D01*
X103627Y177500D02*
X103754Y177246D01*
X103627Y177500D02*
X103754Y177754D01*
X103500Y177627D02*
X103754Y177754D01*
X103246D02*
X103500Y177627D01*
X103246Y177754D02*
X103373Y177500D01*
X103246Y177246D02*
X103373Y177500D01*
X102246Y194246D02*
X102500Y194373D01*
X102754Y194246D01*
X102627Y194500D02*
X102754Y194246D01*
X102627Y194500D02*
X102754Y194754D01*
X102500Y194627D02*
X102754Y194754D01*
X102246D02*
X102500Y194627D01*
X102246Y194754D02*
X102373Y194500D01*
X102246Y194246D02*
X102373Y194500D01*
X97246Y199496D02*
X97500Y199623D01*
X97754Y199496D01*
X97627Y199750D02*
X97754Y199496D01*
X97627Y199750D02*
X97754Y200004D01*
X97500Y199877D02*
X97754Y200004D01*
X97246D02*
X97500Y199877D01*
X97246Y200004D02*
X97373Y199750D01*
X97246Y199496D02*
X97373Y199750D01*
X98246Y199496D02*
X98500Y199623D01*
X98754Y199496D01*
X98627Y199750D02*
X98754Y199496D01*
X98627Y199750D02*
X98754Y200004D01*
X98500Y199877D02*
X98754Y200004D01*
X98246D02*
X98500Y199877D01*
X98246Y200004D02*
X98373Y199750D01*
X98246Y199496D02*
X98373Y199750D01*
X97746Y194996D02*
X98000Y195123D01*
X98254Y194996D01*
X98127Y195250D02*
X98254Y194996D01*
X98127Y195250D02*
X98254Y195504D01*
X98000Y195377D02*
X98254Y195504D01*
X97746D02*
X98000Y195377D01*
X97746Y195504D02*
X97873Y195250D01*
X97746Y194996D02*
X97873Y195250D01*
X97246Y197496D02*
X97500Y197623D01*
X97754Y197496D01*
X97627Y197750D02*
X97754Y197496D01*
X97627Y197750D02*
X97754Y198004D01*
X97500Y197877D02*
X97754Y198004D01*
X97246D02*
X97500Y197877D01*
X97246Y198004D02*
X97373Y197750D01*
X97246Y197496D02*
X97373Y197750D01*
X94746Y168446D02*
X95254D01*
Y168954D01*
X94746D02*
X95254D01*
X94746Y168446D02*
Y168954D01*
Y163746D02*
X95254D01*
Y164254D01*
X94746D02*
X95254D01*
X94746Y163746D02*
Y164254D01*
Y159046D02*
X95254D01*
Y159554D01*
X94746D02*
X95254D01*
X94746Y159046D02*
Y159554D01*
X104746Y159046D02*
X105254D01*
Y159554D01*
X104746D02*
X105254D01*
X104746Y159046D02*
Y159554D01*
Y163746D02*
X105254D01*
Y164254D01*
X104746D02*
X105254D01*
X104746Y163746D02*
Y164254D01*
Y168446D02*
X105254D01*
Y168954D01*
X104746D02*
X105254D01*
X104746Y168446D02*
Y168954D01*
X85100Y112746D02*
X85354Y113254D01*
X84846D02*
X85354D01*
X84846D02*
X85100Y112746D01*
X93400D02*
X93654Y113254D01*
X93146D02*
X93654D01*
X93146D02*
X93400Y112746D01*
X95600D02*
X95854Y113254D01*
X95346D02*
X95854D01*
X95346D02*
X95600Y112746D01*
X116623Y183873D02*
X116750Y183746D01*
X116496Y183873D02*
X116623D01*
X116496D02*
X116623Y184000D01*
X116496Y184127D02*
X116623Y184000D01*
X116496Y184127D02*
X116623D01*
X116750Y184254D01*
X116877Y184127D01*
X117004D01*
X116877Y184000D02*
X117004Y184127D01*
X116877Y184000D02*
X117004Y183873D01*
X116877D02*
X117004D01*
X116750Y183746D02*
X116877Y183873D01*
X107123D02*
X107250Y183746D01*
X106996Y183873D02*
X107123D01*
X106996D02*
X107123Y184000D01*
X106996Y184127D02*
X107123Y184000D01*
X106996Y184127D02*
X107123D01*
X107250Y184254D01*
X107377Y184127D01*
X107504D01*
X107377Y184000D02*
X107504Y184127D01*
X107377Y184000D02*
X107504Y183873D01*
X107377D02*
X107504D01*
X107250Y183746D02*
X107377Y183873D01*
X95600Y125746D02*
X95854Y126254D01*
X95346D02*
X95854D01*
X95346D02*
X95600Y125746D01*
X93400D02*
X93654Y126254D01*
X93146D02*
X93654D01*
X93146D02*
X93400Y125746D01*
X85100D02*
X85354Y126254D01*
X84846D02*
X85354D01*
X84846D02*
X85100Y125746D01*
X95600Y138746D02*
X95854Y139254D01*
X95346D02*
X95854D01*
X95346D02*
X95600Y138746D01*
X93400D02*
X93654Y139254D01*
X93146D02*
X93654D01*
X93146D02*
X93400Y138746D01*
X85100D02*
X85354Y139254D01*
X84846D02*
X85354D01*
X84846D02*
X85100Y138746D01*
X95600Y151746D02*
X95854Y152254D01*
X95346D02*
X95854D01*
X95346D02*
X95600Y151746D01*
X93400D02*
X93654Y152254D01*
X93146D02*
X93654D01*
X93146D02*
X93400Y151746D01*
X85100D02*
X85354Y152254D01*
X84846D02*
X85354D01*
X84846D02*
X85100Y151746D01*
X92623Y183873D02*
X92750Y183746D01*
X92496Y183873D02*
X92623D01*
X92496D02*
X92623Y184000D01*
X92496Y184127D02*
X92623Y184000D01*
X92496Y184127D02*
X92623D01*
X92750Y184254D01*
X92877Y184127D01*
X93004D01*
X92877Y184000D02*
X93004Y184127D01*
X92877Y184000D02*
X93004Y183873D01*
X92877D02*
X93004D01*
X92750Y183746D02*
X92877Y183873D01*
X83123D02*
X83250Y183746D01*
X82996Y183873D02*
X83123D01*
X82996D02*
X83123Y184000D01*
X82996Y184127D02*
X83123Y184000D01*
X82996Y184127D02*
X83123D01*
X83250Y184254D01*
X83377Y184127D01*
X83504D01*
X83377Y184000D02*
X83504Y184127D01*
X83377Y184000D02*
X83504Y183873D01*
X83377D02*
X83504D01*
X83250Y183746D02*
X83377Y183873D01*
X116623Y207873D02*
X116750Y207746D01*
X116496Y207873D02*
X116623D01*
X116496D02*
X116623Y208000D01*
X116496Y208127D02*
X116623Y208000D01*
X116496Y208127D02*
X116623D01*
X116750Y208254D01*
X116877Y208127D01*
X117004D01*
X116877Y208000D02*
X117004Y208127D01*
X116877Y208000D02*
X117004Y207873D01*
X116877D02*
X117004D01*
X116750Y207746D02*
X116877Y207873D01*
X107123D02*
X107250Y207746D01*
X106996Y207873D02*
X107123D01*
X106996D02*
X107123Y208000D01*
X106996Y208127D02*
X107123Y208000D01*
X106996Y208127D02*
X107123D01*
X107250Y208254D01*
X107377Y208127D01*
X107504D01*
X107377Y208000D02*
X107504Y208127D01*
X107377Y208000D02*
X107504Y207873D01*
X107377D02*
X107504D01*
X107250Y207746D02*
X107377Y207873D01*
X92623D02*
X92750Y207746D01*
X92496Y207873D02*
X92623D01*
X92496D02*
X92623Y208000D01*
X92496Y208127D02*
X92623Y208000D01*
X92496Y208127D02*
X92623D01*
X92750Y208254D01*
X92877Y208127D01*
X93004D01*
X92877Y208000D02*
X93004Y208127D01*
X92877Y208000D02*
X93004Y207873D01*
X92877D02*
X93004D01*
X92750Y207746D02*
X92877Y207873D01*
X83123D02*
X83250Y207746D01*
X82996Y207873D02*
X83123D01*
X82996D02*
X83123Y208000D01*
X82996Y208127D02*
X83123Y208000D01*
X82996Y208127D02*
X83123D01*
X83250Y208254D01*
X83377Y208127D01*
X83504D01*
X83377Y208000D02*
X83504Y208127D01*
X83377Y208000D02*
X83504Y207873D01*
X83377D02*
X83504D01*
X83250Y207746D02*
X83377Y207873D01*
X114900Y112746D02*
X115154Y113254D01*
X114646D02*
X115154D01*
X114646D02*
X114900Y112746D01*
X106600D02*
X106854Y113254D01*
X106346D02*
X106854D01*
X106346D02*
X106600Y112746D01*
X104400D02*
X104654Y113254D01*
X104146D02*
X104654D01*
X104146D02*
X104400Y112746D01*
Y125746D02*
X104654Y126254D01*
X104146D02*
X104654D01*
X104146D02*
X104400Y125746D01*
X106600D02*
X106854Y126254D01*
X106346D02*
X106854D01*
X106346D02*
X106600Y125746D01*
X114900D02*
X115154Y126254D01*
X114646D02*
X115154D01*
X114646D02*
X114900Y125746D01*
X104400Y138746D02*
X104654Y139254D01*
X104146D02*
X104654D01*
X104146D02*
X104400Y138746D01*
X106600D02*
X106854Y139254D01*
X106346D02*
X106854D01*
X106346D02*
X106600Y138746D01*
X114900D02*
X115154Y139254D01*
X114646D02*
X115154D01*
X114646D02*
X114900Y138746D01*
X104400Y151746D02*
X104654Y152254D01*
X104146D02*
X104654D01*
X104146D02*
X104400Y151746D01*
X106600D02*
X106854Y152254D01*
X106346D02*
X106854D01*
X106346D02*
X106600Y151746D01*
X114900D02*
X115154Y152254D01*
X114646D02*
X115154D01*
X114646D02*
X114900Y151746D01*
D51*
X242241Y93723D02*
X243460D01*
X242851D01*
Y91895D01*
X244984D02*
X244374D01*
X244070Y92200D01*
Y92809D01*
X244374Y93114D01*
X244984D01*
X245288Y92809D01*
Y92505D01*
X244070D01*
X245898Y91895D02*
Y93114D01*
X246203D01*
X246507Y92809D01*
Y91895D01*
Y92809D01*
X246812Y93114D01*
X247117Y92809D01*
Y91895D01*
X247726Y91286D02*
Y93114D01*
X248640D01*
X248945Y92809D01*
Y92200D01*
X248640Y91895D01*
X247726D01*
X249554D02*
X250164D01*
X249859D01*
Y93723D01*
X249554D01*
X251383Y93114D02*
X251992D01*
X252297Y92809D01*
Y91895D01*
X251383D01*
X251078Y92200D01*
X251383Y92505D01*
X252297D01*
X253211Y93419D02*
Y93114D01*
X252906D01*
X253515D01*
X253211D01*
Y92200D01*
X253515Y91895D01*
X255344D02*
X254734D01*
X254430Y92200D01*
Y92809D01*
X254734Y93114D01*
X255344D01*
X255648Y92809D01*
Y92505D01*
X254430D01*
X223298Y91895D02*
Y93723D01*
X224212D01*
X224517Y93419D01*
Y92809D01*
X224212Y92505D01*
X223298D01*
X225431Y93114D02*
X226041D01*
X226345Y92809D01*
Y91895D01*
X225431D01*
X225126Y92200D01*
X225431Y92505D01*
X226345D01*
X228173Y93723D02*
Y91895D01*
X227259D01*
X226955Y92200D01*
Y92809D01*
X227259Y93114D01*
X228173D01*
X231830Y93419D02*
X231525Y93723D01*
X230916D01*
X230611Y93419D01*
Y93114D01*
X230916Y92809D01*
X231525D01*
X231830Y92505D01*
Y92200D01*
X231525Y91895D01*
X230916D01*
X230611Y92200D01*
X232439Y93723D02*
Y91895D01*
Y92809D01*
X232744Y93114D01*
X233353D01*
X233658Y92809D01*
Y91895D01*
X234572Y93114D02*
X235182D01*
X235486Y92809D01*
Y91895D01*
X234572D01*
X234267Y92200D01*
X234572Y92505D01*
X235486D01*
X236096Y91286D02*
Y93114D01*
X237010D01*
X237314Y92809D01*
Y92200D01*
X237010Y91895D01*
X236096D01*
X238838D02*
X238229D01*
X237924Y92200D01*
Y92809D01*
X238229Y93114D01*
X238838D01*
X239143Y92809D01*
Y92505D01*
X237924D01*
X208316Y93723D02*
Y92505D01*
X208925Y91895D01*
X209535Y92505D01*
Y93723D01*
X210144Y91895D02*
X210754D01*
X210449D01*
Y93114D01*
X210144D01*
X211972D02*
X212582D01*
X212887Y92809D01*
Y91895D01*
X211972D01*
X211668Y92200D01*
X211972Y92505D01*
X212887D01*
X213496Y91895D02*
X214715Y93114D01*
X215324Y91895D02*
Y93723D01*
X216238D01*
X216543Y93419D01*
Y92809D01*
X216238Y92505D01*
X215324D01*
X217457Y93114D02*
X218067D01*
X218371Y92809D01*
Y91895D01*
X217457D01*
X217152Y92200D01*
X217457Y92505D01*
X218371D01*
X220199Y93723D02*
Y91895D01*
X219285D01*
X218981Y92200D01*
Y92809D01*
X219285Y93114D01*
X220199D01*
X170227Y93723D02*
Y91895D01*
X171142D01*
X171446Y92200D01*
Y93419D01*
X171142Y93723D01*
X170227D01*
X172056Y93114D02*
Y91895D01*
Y92505D01*
X172360Y92809D01*
X172665Y93114D01*
X172970D01*
X173884Y91895D02*
X174493D01*
X174189D01*
Y93114D01*
X173884D01*
X175407Y91895D02*
X176017D01*
X175712D01*
Y93723D01*
X175407D01*
X176931Y91895D02*
X177540D01*
X177236D01*
Y93723D01*
X176931D01*
X180283D02*
Y91895D01*
X181501D01*
X182416Y93114D02*
X183025D01*
X183330Y92809D01*
Y91895D01*
X182416D01*
X182111Y92200D01*
X182416Y92505D01*
X183330D01*
X183939Y93114D02*
Y92200D01*
X184244Y91895D01*
X185158D01*
Y91590D01*
X184853Y91286D01*
X184548D01*
X185158Y91895D02*
Y93114D01*
X186681Y91895D02*
X186072D01*
X185767Y92200D01*
Y92809D01*
X186072Y93114D01*
X186681D01*
X186986Y92809D01*
Y92505D01*
X185767D01*
X187595Y93114D02*
Y91895D01*
Y92505D01*
X187900Y92809D01*
X188205Y93114D01*
X188510D01*
X191252Y91895D02*
Y93723D01*
X192166D01*
X192471Y93419D01*
Y92809D01*
X192166Y92505D01*
X191252D01*
X193385Y93114D02*
X193994D01*
X194299Y92809D01*
Y91895D01*
X193385D01*
X193080Y92200D01*
X193385Y92505D01*
X194299D01*
X194908Y91895D02*
X195518D01*
X195213D01*
Y93114D01*
X194908D01*
X196432D02*
Y91895D01*
Y92505D01*
X196736Y92809D01*
X197041Y93114D01*
X197346D01*
X151589Y93723D02*
Y91895D01*
Y92809D01*
X152808D01*
Y93723D01*
Y91895D01*
X153722D02*
X154331D01*
X154636Y92200D01*
Y92809D01*
X154331Y93114D01*
X153722D01*
X153417Y92809D01*
Y92200D01*
X153722Y91895D01*
X155245D02*
X155855D01*
X155550D01*
Y93723D01*
X155245D01*
X157683Y91895D02*
X157074D01*
X156769Y92200D01*
Y92809D01*
X157074Y93114D01*
X157683D01*
X157988Y92809D01*
Y92505D01*
X156769D01*
X160425Y93723D02*
X161644D01*
X161035D01*
Y91895D01*
X162253Y93114D02*
Y92200D01*
X162558Y91895D01*
X163472D01*
Y91590D01*
X163168Y91286D01*
X162863D01*
X163472Y91895D02*
Y93114D01*
X164082Y91286D02*
Y93114D01*
X164996D01*
X165300Y92809D01*
Y92200D01*
X164996Y91895D01*
X164082D01*
X166824D02*
X166215D01*
X165910Y92200D01*
Y92809D01*
X166215Y93114D01*
X166824D01*
X167129Y92809D01*
Y92505D01*
X165910D01*
X138740Y91895D02*
Y93723D01*
X139654D01*
X139958Y93419D01*
Y92809D01*
X139654Y92505D01*
X138740D01*
X140568Y91895D02*
X141177D01*
X140873D01*
Y93723D01*
X140568D01*
X142396Y93114D02*
X143005D01*
X143310Y92809D01*
Y91895D01*
X142396D01*
X142091Y92200D01*
X142396Y92505D01*
X143310D01*
X144224Y93419D02*
Y93114D01*
X143920D01*
X144529D01*
X144224D01*
Y92200D01*
X144529Y91895D01*
X146357D02*
X145748D01*
X145443Y92200D01*
Y92809D01*
X145748Y93114D01*
X146357D01*
X146662Y92809D01*
Y92505D01*
X145443D01*
X148490Y93723D02*
Y91895D01*
X147576D01*
X147271Y92200D01*
Y92809D01*
X147576Y93114D01*
X148490D01*
X111062Y93723D02*
Y91895D01*
Y92809D01*
X112281D01*
Y93723D01*
Y91895D01*
X113195D02*
X113804D01*
X114109Y92200D01*
Y92809D01*
X113804Y93114D01*
X113195D01*
X112890Y92809D01*
Y92200D01*
X113195Y91895D01*
X114718D02*
X115328D01*
X115023D01*
Y93723D01*
X114718D01*
X117156Y91895D02*
X116546D01*
X116242Y92200D01*
Y92809D01*
X116546Y93114D01*
X117156D01*
X117460Y92809D01*
Y92505D01*
X116242D01*
X121117Y93419D02*
X120812Y93723D01*
X120203D01*
X119898Y93419D01*
Y93114D01*
X120203Y92809D01*
X120812D01*
X121117Y92505D01*
Y92200D01*
X120812Y91895D01*
X120203D01*
X119898Y92200D01*
X121726Y91895D02*
X122336D01*
X122031D01*
Y93114D01*
X121726D01*
X123250D02*
X124469D01*
X123250Y91895D01*
X124469D01*
X125992D02*
X125383D01*
X125078Y92200D01*
Y92809D01*
X125383Y93114D01*
X125992D01*
X126297Y92809D01*
Y92505D01*
X125078D01*
X97045Y93419D02*
X96740Y93723D01*
X96130D01*
X95826Y93419D01*
Y92200D01*
X96130Y91895D01*
X96740D01*
X97045Y92200D01*
X97959Y91895D02*
X98568D01*
X98873Y92200D01*
Y92809D01*
X98568Y93114D01*
X97959D01*
X97654Y92809D01*
Y92200D01*
X97959Y91895D01*
X99482Y93114D02*
Y92200D01*
X99787Y91895D01*
X100701D01*
Y93114D01*
X101310Y91895D02*
Y93114D01*
X102224D01*
X102529Y92809D01*
Y91895D01*
X103443Y93419D02*
Y93114D01*
X103139D01*
X103748D01*
X103443D01*
Y92200D01*
X103748Y91895D01*
X84195Y93419D02*
X83891Y93723D01*
X83281D01*
X82977Y93419D01*
Y93114D01*
X83281Y92809D01*
X83891D01*
X84195Y92505D01*
Y92200D01*
X83891Y91895D01*
X83281D01*
X82977Y92200D01*
X84805Y93114D02*
Y92200D01*
X85109Y91895D01*
X86024D01*
Y91590D01*
X85719Y91286D01*
X85414D01*
X86024Y91895D02*
Y93114D01*
X86633Y91895D02*
Y93114D01*
X86938D01*
X87242Y92809D01*
Y91895D01*
Y92809D01*
X87547Y93114D01*
X87852Y92809D01*
Y91895D01*
X88461Y93723D02*
Y91895D01*
X89375D01*
X89680Y92200D01*
Y92505D01*
Y92809D01*
X89375Y93114D01*
X88461D01*
X90594Y91895D02*
X91203D01*
X91508Y92200D01*
Y92809D01*
X91203Y93114D01*
X90594D01*
X90289Y92809D01*
Y92200D01*
X90594Y91895D01*
X92118D02*
X92727D01*
X92422D01*
Y93723D01*
X92118D01*
D52*
X109207Y64337D02*
Y62813D01*
Y63575D01*
X110222D01*
Y64337D01*
Y62813D01*
X110984D02*
X111492D01*
X111746Y63067D01*
Y63575D01*
X111492Y63829D01*
X110984D01*
X110730Y63575D01*
Y63067D01*
X110984Y62813D01*
X112254D02*
X112762D01*
X112508D01*
Y64337D01*
X112254D01*
X114285Y62813D02*
X113777D01*
X113523Y63067D01*
Y63575D01*
X113777Y63829D01*
X114285D01*
X114539Y63575D01*
Y63321D01*
X113523D01*
X116570Y64337D02*
Y62813D01*
X117586D01*
X118856D02*
X118348D01*
X118094Y63067D01*
Y63575D01*
X118348Y63829D01*
X118856D01*
X119110Y63575D01*
Y63321D01*
X118094D01*
X119617Y62813D02*
Y63829D01*
X120379D01*
X120633Y63575D01*
Y62813D01*
X121649Y62306D02*
X121903D01*
X122157Y62560D01*
Y63829D01*
X121395D01*
X121141Y63575D01*
Y63067D01*
X121395Y62813D01*
X122157D01*
X122918Y64083D02*
Y63829D01*
X122664D01*
X123172D01*
X122918D01*
Y63067D01*
X123172Y62813D01*
X123934Y64337D02*
Y62813D01*
Y63575D01*
X124188Y63829D01*
X124696D01*
X124950Y63575D01*
Y62813D01*
X109207Y65353D02*
Y66876D01*
X109969D01*
X110222Y66622D01*
Y66115D01*
X109969Y65861D01*
X109207D01*
X109715D02*
X110222Y65353D01*
X110984D02*
X111492D01*
X111746Y65607D01*
Y66115D01*
X111492Y66368D01*
X110984D01*
X110730Y66115D01*
Y65607D01*
X110984Y65353D01*
X112254Y66368D02*
Y65607D01*
X112508Y65353D01*
X113270D01*
Y66368D01*
X114031Y66622D02*
Y66368D01*
X113777D01*
X114285D01*
X114031D01*
Y65607D01*
X114285Y65353D01*
X115809D02*
X115301D01*
X115047Y65607D01*
Y66115D01*
X115301Y66368D01*
X115809D01*
X116063Y66115D01*
Y65861D01*
X115047D01*
X117586Y66876D02*
Y65353D01*
X116824D01*
X116570Y65607D01*
Y66115D01*
X116824Y66368D01*
X117586D01*
X119617Y65353D02*
Y66876D01*
X120379D01*
X120633Y66622D01*
Y66115D01*
X120379Y65861D01*
X119617D01*
X121395Y66368D02*
X121903D01*
X122157Y66115D01*
Y65353D01*
X121395D01*
X121141Y65607D01*
X121395Y65861D01*
X122157D01*
X122918Y66622D02*
Y66368D01*
X122664D01*
X123172D01*
X122918D01*
Y65607D01*
X123172Y65353D01*
X123934Y66876D02*
Y65353D01*
Y66115D01*
X124188Y66368D01*
X124696D01*
X124950Y66115D01*
Y65353D01*
X126981Y66876D02*
Y65353D01*
X127997D01*
X129266D02*
X128758D01*
X128505Y65607D01*
Y66115D01*
X128758Y66368D01*
X129266D01*
X129520Y66115D01*
Y65861D01*
X128505D01*
X130028Y65353D02*
Y66368D01*
X130790D01*
X131044Y66115D01*
Y65353D01*
X132059Y64845D02*
X132313D01*
X132567Y65099D01*
Y66368D01*
X131805D01*
X131552Y66115D01*
Y65607D01*
X131805Y65353D01*
X132567D01*
X133329Y66622D02*
Y66368D01*
X133075D01*
X133583D01*
X133329D01*
Y65607D01*
X133583Y65353D01*
X134345Y66876D02*
Y65353D01*
Y66115D01*
X134599Y66368D01*
X135106D01*
X135360Y66115D01*
Y65353D01*
X83992Y66622D02*
X83738Y66876D01*
X83230D01*
X82977Y66622D01*
Y66368D01*
X83230Y66115D01*
X83738D01*
X83992Y65861D01*
Y65607D01*
X83738Y65353D01*
X83230D01*
X82977Y65607D01*
X84500Y65353D02*
X85008D01*
X84754D01*
Y66876D01*
X84500D01*
X86024Y65353D02*
X86531D01*
X86785Y65607D01*
Y66115D01*
X86531Y66368D01*
X86024D01*
X85770Y66115D01*
Y65607D01*
X86024Y65353D01*
X87547Y66622D02*
Y66368D01*
X87293D01*
X87801D01*
X87547D01*
Y65607D01*
X87801Y65353D01*
X91102Y66876D02*
Y65353D01*
X90340D01*
X90086Y65607D01*
Y66115D01*
X90340Y66368D01*
X91102D01*
X92371Y65353D02*
X91864D01*
X91610Y65607D01*
Y66115D01*
X91864Y66368D01*
X92371D01*
X92625Y66115D01*
Y65861D01*
X91610D01*
X93387Y65353D02*
Y66622D01*
Y66115D01*
X93133D01*
X93641D01*
X93387D01*
Y66622D01*
X93641Y66876D01*
X94403Y65353D02*
X94911D01*
X94657D01*
Y66368D01*
X94403D01*
X95672Y65353D02*
Y66368D01*
X96434D01*
X96688Y66115D01*
Y65353D01*
X97196D02*
X97704D01*
X97450D01*
Y66368D01*
X97196D01*
X98719Y66622D02*
Y66368D01*
X98465D01*
X98973D01*
X98719D01*
Y65607D01*
X98973Y65353D01*
X99735D02*
X100243D01*
X99989D01*
Y66368D01*
X99735D01*
X101259Y65353D02*
X101766D01*
X102020Y65607D01*
Y66115D01*
X101766Y66368D01*
X101259D01*
X101005Y66115D01*
Y65607D01*
X101259Y65353D01*
X102528D02*
Y66368D01*
X103290D01*
X103544Y66115D01*
Y65353D01*
X104052D02*
X104813D01*
X105067Y65607D01*
X104813Y65861D01*
X104306D01*
X104052Y66115D01*
X104306Y66368D01*
X105067D01*
X107099D02*
X107353D01*
Y66115D01*
X107099D01*
Y66368D01*
Y65607D02*
X107353D01*
Y65353D01*
X107099D01*
Y65607D01*
M02*
