G04 Layer_Physical_Order=4*
G04 Layer_Color=16711680*
%FSLAX43Y43*%
%MOMM*%
G71*
G01*
G75*
%ADD10C,2.000*%
%ADD11R,2.300X2.300*%
%ADD12R,2.300X2.300*%
%ADD13C,2.000*%
%ADD14O,1.800X2.800*%
%ADD15C,4.400*%
G04:AMPARAMS|DCode=16|XSize=3.7mm|YSize=2mm|CornerRadius=1mm|HoleSize=0mm|Usage=FLASHONLY|Rotation=180.000|XOffset=0mm|YOffset=0mm|HoleType=Round|Shape=RoundedRectangle|*
%AMROUNDEDRECTD16*
21,1,3.700,0.000,0,0,180.0*
21,1,1.700,2.000,0,0,180.0*
1,1,2.000,-0.850,0.000*
1,1,2.000,0.850,0.000*
1,1,2.000,0.850,0.000*
1,1,2.000,-0.850,0.000*
%
%ADD16ROUNDEDRECTD16*%
%ADD17R,3.700X2.000*%
%ADD18C,0.800*%
%ADD20C,0.200*%
%ADD21R,1.000X0.700*%
%ADD22R,1.300X1.000*%
%ADD23R,1.000X1.300*%
%ADD24R,0.900X0.900*%
%ADD25C,0.700*%
%ADD26C,1.000*%
%ADD27C,0.300*%
%ADD28R,1.500X6.000*%
%ADD29R,4.750X3.000*%
%ADD30R,2.083X0.735*%
G36*
X119750Y108500D02*
X80250D01*
Y220000D01*
X119750D01*
Y108500D01*
D02*
G37*
%LPC*%
G36*
X95600Y127664D02*
X95299Y127624D01*
X95018Y127508D01*
X94777Y127323D01*
X94592Y127082D01*
X94540Y126955D01*
X94402D01*
X94361Y127055D01*
X94185Y127285D01*
X93955Y127461D01*
X93687Y127572D01*
X93400Y127609D01*
X93113Y127572D01*
X92845Y127461D01*
X92615Y127285D01*
X92439Y127055D01*
X92328Y126787D01*
X92291Y126500D01*
Y125500D01*
X92328Y125213D01*
X92439Y124945D01*
X92615Y124715D01*
X92845Y124539D01*
X93113Y124428D01*
X93400Y124391D01*
X93687Y124428D01*
X93955Y124539D01*
X94185Y124715D01*
X94361Y124945D01*
X94402Y125045D01*
X94540D01*
X94592Y124918D01*
X94777Y124677D01*
X95018Y124492D01*
X95299Y124376D01*
X95600Y124336D01*
X95901Y124376D01*
X96182Y124492D01*
X96423Y124677D01*
X96608Y124918D01*
X96724Y125199D01*
X96764Y125500D01*
Y126500D01*
X96724Y126801D01*
X96608Y127082D01*
X96423Y127323D01*
X96182Y127508D01*
X95901Y127624D01*
X95600Y127664D01*
D02*
G37*
G36*
X110854Y126704D02*
X110277D01*
Y126127D01*
X110854D01*
Y126704D01*
D02*
G37*
G36*
X89973Y127873D02*
X89346D01*
Y127096D01*
X89973D01*
Y127873D01*
D02*
G37*
G36*
X109773Y127873D02*
X109146D01*
Y127096D01*
X109773D01*
Y127873D01*
D02*
G37*
G36*
X90854Y127873D02*
X90227D01*
Y127096D01*
X90854D01*
Y127873D01*
D02*
G37*
G36*
X110854Y125873D02*
X110277D01*
Y125296D01*
X110854D01*
Y125873D01*
D02*
G37*
G36*
X110023D02*
X109446D01*
Y125296D01*
X110023D01*
Y125873D01*
D02*
G37*
G36*
X89723Y126704D02*
X89146D01*
Y126127D01*
X89723D01*
Y126704D01*
D02*
G37*
G36*
X110023D02*
X109446D01*
Y126127D01*
X110023D01*
Y126704D01*
D02*
G37*
G36*
X90554D02*
X89977D01*
Y126127D01*
X90554D01*
Y126704D01*
D02*
G37*
G36*
X110654Y127873D02*
X110027D01*
Y127096D01*
X110654D01*
Y127873D01*
D02*
G37*
G36*
X110854Y139704D02*
X110277D01*
Y139127D01*
X110854D01*
Y139704D01*
D02*
G37*
G36*
X110023D02*
X109446D01*
Y139127D01*
X110023D01*
Y139704D01*
D02*
G37*
G36*
X89723D02*
X89146D01*
Y139127D01*
X89723D01*
Y139704D01*
D02*
G37*
G36*
X95600Y140664D02*
X95299Y140624D01*
X95018Y140508D01*
X94777Y140323D01*
X94592Y140082D01*
X94540Y139955D01*
X94402D01*
X94361Y140055D01*
X94185Y140285D01*
X93955Y140461D01*
X93687Y140572D01*
X93400Y140609D01*
X93113Y140572D01*
X92845Y140461D01*
X92615Y140285D01*
X92439Y140055D01*
X92328Y139787D01*
X92291Y139500D01*
Y138500D01*
X92328Y138213D01*
X92439Y137945D01*
X92615Y137715D01*
X92845Y137539D01*
X93113Y137428D01*
X93400Y137391D01*
X93687Y137428D01*
X93955Y137539D01*
X94185Y137715D01*
X94361Y137945D01*
X94402Y138045D01*
X94540D01*
X94592Y137918D01*
X94777Y137677D01*
X95018Y137492D01*
X95299Y137376D01*
X95600Y137336D01*
X95901Y137376D01*
X96182Y137492D01*
X96423Y137677D01*
X96608Y137918D01*
X96724Y138199D01*
X96764Y138500D01*
Y139500D01*
X96724Y139801D01*
X96608Y140082D01*
X96423Y140323D01*
X96182Y140508D01*
X95901Y140624D01*
X95600Y140664D01*
D02*
G37*
G36*
X90554Y139704D02*
X89977D01*
Y139127D01*
X90554D01*
Y139704D01*
D02*
G37*
G36*
X89723Y138873D02*
X89146D01*
Y138296D01*
X89723D01*
Y138873D01*
D02*
G37*
G36*
X104400Y140664D02*
X104099Y140624D01*
X103818Y140508D01*
X103577Y140323D01*
X103392Y140082D01*
X103276Y139801D01*
X103236Y139500D01*
Y138500D01*
X103276Y138199D01*
X103392Y137918D01*
X103577Y137677D01*
X103818Y137492D01*
X104099Y137376D01*
X104400Y137336D01*
X104701Y137376D01*
X104982Y137492D01*
X105223Y137677D01*
X105408Y137918D01*
X105460Y138045D01*
X105598D01*
X105639Y137945D01*
X105815Y137715D01*
X106045Y137539D01*
X106313Y137428D01*
X106600Y137391D01*
X106887Y137428D01*
X107155Y137539D01*
X107385Y137715D01*
X107561Y137945D01*
X107672Y138213D01*
X107709Y138500D01*
Y139500D01*
X107672Y139787D01*
X107561Y140055D01*
X107385Y140285D01*
X107155Y140461D01*
X106887Y140572D01*
X106600Y140609D01*
X106313Y140572D01*
X106045Y140461D01*
X105815Y140285D01*
X105639Y140055D01*
X105598Y139955D01*
X105460D01*
X105408Y140082D01*
X105223Y140323D01*
X104982Y140508D01*
X104701Y140624D01*
X104400Y140664D01*
D02*
G37*
G36*
X90554Y138873D02*
X89977D01*
Y138296D01*
X90554D01*
Y138873D01*
D02*
G37*
G36*
X110854Y138873D02*
X110277D01*
Y138296D01*
X110854D01*
Y138873D01*
D02*
G37*
G36*
X110023D02*
X109446D01*
Y138296D01*
X110023D01*
Y138873D01*
D02*
G37*
G36*
X110854Y112873D02*
X110277D01*
Y112296D01*
X110854D01*
Y112873D01*
D02*
G37*
G36*
X110023D02*
X109446D01*
Y112296D01*
X110023D01*
Y112873D01*
D02*
G37*
G36*
Y113704D02*
X109446D01*
Y113127D01*
X110023D01*
Y113704D01*
D02*
G37*
G36*
X89723D02*
X89146D01*
Y113127D01*
X89723D01*
Y113704D01*
D02*
G37*
G36*
X110854D02*
X110277D01*
Y113127D01*
X110854D01*
Y113704D01*
D02*
G37*
G36*
X112750Y117704D02*
X111250D01*
X111172Y117688D01*
X111106Y117644D01*
X111062Y117578D01*
X111046Y117500D01*
Y114500D01*
Y111500D01*
X111062Y111422D01*
X111106Y111356D01*
X111172Y111312D01*
X111250Y111296D01*
X116000D01*
X116078Y111312D01*
X116144Y111356D01*
X116188Y111422D01*
X116204Y111500D01*
Y114500D01*
X116188Y114578D01*
X116144Y114644D01*
X116078Y114688D01*
X116000Y114704D01*
X112954D01*
Y117500D01*
X112938Y117578D01*
X112894Y117644D01*
X112828Y117688D01*
X112750Y117704D01*
D02*
G37*
G36*
X88750D02*
X87250D01*
X87172Y117688D01*
X87106Y117644D01*
X87062Y117578D01*
X87046Y117500D01*
Y114704D01*
X84000D01*
X83922Y114688D01*
X83856Y114644D01*
X83812Y114578D01*
X83796Y114500D01*
Y111500D01*
X83812Y111422D01*
X83856Y111356D01*
X83922Y111312D01*
X84000Y111296D01*
X88750D01*
X88828Y111312D01*
X88894Y111356D01*
X88938Y111422D01*
X88954Y111500D01*
Y117500D01*
X88938Y117578D01*
X88894Y117644D01*
X88828Y117688D01*
X88750Y117704D01*
D02*
G37*
G36*
X104400Y114664D02*
X104099Y114624D01*
X103818Y114508D01*
X103577Y114323D01*
X103392Y114082D01*
X103276Y113801D01*
X103236Y113500D01*
Y112500D01*
X103276Y112199D01*
X103392Y111918D01*
X103577Y111677D01*
X103818Y111492D01*
X104099Y111376D01*
X104400Y111336D01*
X104701Y111376D01*
X104982Y111492D01*
X105223Y111677D01*
X105408Y111918D01*
X105460Y112045D01*
X105598D01*
X105639Y111945D01*
X105815Y111715D01*
X106045Y111539D01*
X106313Y111428D01*
X106600Y111391D01*
X106887Y111428D01*
X107155Y111539D01*
X107385Y111715D01*
X107561Y111945D01*
X107672Y112213D01*
X107709Y112500D01*
Y113500D01*
X107672Y113787D01*
X107561Y114055D01*
X107385Y114285D01*
X107155Y114461D01*
X106887Y114572D01*
X106600Y114609D01*
X106313Y114572D01*
X106045Y114461D01*
X105815Y114285D01*
X105639Y114055D01*
X105598Y113955D01*
X105460D01*
X105408Y114082D01*
X105223Y114323D01*
X104982Y114508D01*
X104701Y114624D01*
X104400Y114664D01*
D02*
G37*
G36*
X90554Y112873D02*
X89977D01*
Y112296D01*
X90554D01*
Y112873D01*
D02*
G37*
G36*
X89723D02*
X89146D01*
Y112296D01*
X89723D01*
Y112873D01*
D02*
G37*
G36*
X90554Y113704D02*
X89977D01*
Y113127D01*
X90554D01*
Y113704D01*
D02*
G37*
G36*
X112750Y130704D02*
X111250D01*
X111172Y130688D01*
X111106Y130644D01*
X111062Y130578D01*
X111046Y130500D01*
Y127500D01*
Y124500D01*
X111062Y124422D01*
X111106Y124356D01*
X111172Y124312D01*
X111250Y124296D01*
X116000D01*
X116078Y124312D01*
X116144Y124356D01*
X116188Y124422D01*
X116204Y124500D01*
Y127500D01*
X116188Y127578D01*
X116144Y127644D01*
X116078Y127688D01*
X116000Y127704D01*
X112954D01*
Y130500D01*
X112938Y130578D01*
X112894Y130644D01*
X112828Y130688D01*
X112750Y130704D01*
D02*
G37*
G36*
X110250Y121112D02*
X110211Y121104D01*
X109539D01*
X109500Y121112D01*
X109461Y121104D01*
X108789D01*
X108750Y121112D01*
X108711Y121104D01*
X108350D01*
X108272Y121088D01*
X108206Y121044D01*
X108162Y120978D01*
X108146Y120900D01*
Y120539D01*
X108138Y120500D01*
X108146Y120461D01*
Y119789D01*
X108138Y119750D01*
X108146Y119711D01*
Y119039D01*
X108138Y119000D01*
X108146Y118961D01*
Y118600D01*
X108162Y118522D01*
X108206Y118456D01*
X108272Y118412D01*
X108290Y118408D01*
Y118210D01*
X90500D01*
X90187Y118169D01*
X89895Y118048D01*
X89644Y117856D01*
X89486Y117650D01*
X89200D01*
Y116350D01*
X89486D01*
X89644Y116144D01*
X89792Y116031D01*
X89748Y115904D01*
X89346D01*
Y115127D01*
X90854D01*
Y115790D01*
X109146D01*
Y115127D01*
X109900D01*
X110654D01*
Y115904D01*
X110252D01*
X110208Y116031D01*
X110356Y116144D01*
X110514Y116350D01*
X110800D01*
Y117650D01*
X110710D01*
Y118408D01*
X110728Y118412D01*
X110794Y118456D01*
X110838Y118522D01*
X110854Y118600D01*
Y118961D01*
X110862Y119000D01*
X110854Y119039D01*
Y119711D01*
X110862Y119750D01*
X110854Y119789D01*
Y120461D01*
X110862Y120500D01*
X110854Y120539D01*
Y120900D01*
X110838Y120978D01*
X110794Y121044D01*
X110728Y121088D01*
X110650Y121104D01*
X110289D01*
X110250Y121112D01*
D02*
G37*
G36*
X104400Y127664D02*
X104099Y127624D01*
X103818Y127508D01*
X103577Y127323D01*
X103392Y127082D01*
X103276Y126801D01*
X103236Y126500D01*
Y125500D01*
X103276Y125199D01*
X103392Y124918D01*
X103577Y124677D01*
X103818Y124492D01*
X104099Y124376D01*
X104400Y124336D01*
X104701Y124376D01*
X104982Y124492D01*
X105223Y124677D01*
X105408Y124918D01*
X105460Y125045D01*
X105598D01*
X105639Y124945D01*
X105815Y124715D01*
X106045Y124539D01*
X106313Y124428D01*
X106600Y124391D01*
X106887Y124428D01*
X107155Y124539D01*
X107385Y124715D01*
X107561Y124945D01*
X107672Y125213D01*
X107709Y125500D01*
Y126500D01*
X107672Y126787D01*
X107561Y127055D01*
X107385Y127285D01*
X107155Y127461D01*
X106887Y127572D01*
X106600Y127609D01*
X106313Y127572D01*
X106045Y127461D01*
X105815Y127285D01*
X105639Y127055D01*
X105598Y126955D01*
X105460D01*
X105408Y127082D01*
X105223Y127323D01*
X104982Y127508D01*
X104701Y127624D01*
X104400Y127664D01*
D02*
G37*
G36*
X90554Y125873D02*
X89977D01*
Y125296D01*
X90554D01*
Y125873D01*
D02*
G37*
G36*
X89723D02*
X89146D01*
Y125296D01*
X89723D01*
Y125873D01*
D02*
G37*
G36*
X89973Y114873D02*
X89346D01*
Y114096D01*
X89973D01*
Y114873D01*
D02*
G37*
G36*
X95600Y114664D02*
X95299Y114624D01*
X95018Y114508D01*
X94777Y114323D01*
X94592Y114082D01*
X94540Y113955D01*
X94402D01*
X94361Y114055D01*
X94185Y114285D01*
X93955Y114461D01*
X93687Y114572D01*
X93400Y114609D01*
X93113Y114572D01*
X92845Y114461D01*
X92615Y114285D01*
X92439Y114055D01*
X92328Y113787D01*
X92291Y113500D01*
Y112500D01*
X92328Y112213D01*
X92439Y111945D01*
X92615Y111715D01*
X92845Y111539D01*
X93113Y111428D01*
X93400Y111391D01*
X93687Y111428D01*
X93955Y111539D01*
X94185Y111715D01*
X94361Y111945D01*
X94402Y112045D01*
X94540D01*
X94592Y111918D01*
X94777Y111677D01*
X95018Y111492D01*
X95299Y111376D01*
X95600Y111336D01*
X95901Y111376D01*
X96182Y111492D01*
X96423Y111677D01*
X96608Y111918D01*
X96724Y112199D01*
X96764Y112500D01*
Y113500D01*
X96724Y113801D01*
X96608Y114082D01*
X96423Y114323D01*
X96182Y114508D01*
X95901Y114624D01*
X95600Y114664D01*
D02*
G37*
G36*
X90854Y114873D02*
X90227D01*
Y114096D01*
X90854D01*
Y114873D01*
D02*
G37*
G36*
X110654Y114873D02*
X110027D01*
Y114096D01*
X110654D01*
Y114873D01*
D02*
G37*
G36*
X109773D02*
X109146D01*
Y114096D01*
X109773D01*
Y114873D01*
D02*
G37*
G36*
X103873Y198473D02*
X103096D01*
Y197846D01*
X103873D01*
Y198473D01*
D02*
G37*
G36*
X96904Y198473D02*
X96127D01*
Y197846D01*
X96904D01*
Y198473D01*
D02*
G37*
G36*
X104904Y198473D02*
X104127D01*
Y197846D01*
X104904D01*
Y198473D01*
D02*
G37*
G36*
X101900Y199000D02*
X100500D01*
Y197900D01*
X101900D01*
Y199000D01*
D02*
G37*
G36*
X107250Y197862D02*
X107211Y197854D01*
X106539D01*
X106500Y197862D01*
X106461Y197854D01*
X105789D01*
X105750Y197862D01*
X105711Y197854D01*
X105350D01*
X105272Y197838D01*
X105206Y197794D01*
X105162Y197728D01*
X105146Y197650D01*
Y197289D01*
X105138Y197250D01*
X105142Y197233D01*
X105075Y197106D01*
X104000D01*
X103954Y197100D01*
X103904D01*
X103850Y197111D01*
X101200D01*
X101146Y197100D01*
X100500D01*
Y196000D01*
X101146D01*
X101200Y195989D01*
X103150D01*
Y195700D01*
X103954D01*
X104000Y195694D01*
X105146D01*
Y195350D01*
X105162Y195272D01*
X105206Y195206D01*
X105272Y195162D01*
X105350Y195146D01*
X105711D01*
X105750Y195138D01*
X105789Y195146D01*
X106461D01*
X106500Y195138D01*
X106539Y195146D01*
X107211D01*
X107250Y195138D01*
X107289Y195146D01*
X107650D01*
X107728Y195162D01*
X107794Y195206D01*
X107838Y195272D01*
X107854Y195350D01*
Y195711D01*
X107862Y195750D01*
X107854Y195789D01*
Y196461D01*
X107862Y196500D01*
X107854Y196539D01*
Y197211D01*
X107862Y197250D01*
X107854Y197289D01*
Y197650D01*
X107838Y197728D01*
X107794Y197794D01*
X107728Y197838D01*
X107650Y197854D01*
X107289D01*
X107250Y197862D01*
D02*
G37*
G36*
Y186412D02*
X106780Y186365D01*
X106327Y186228D01*
X105910Y186005D01*
X105545Y185705D01*
X105245Y185340D01*
X105022Y184923D01*
X104885Y184470D01*
X104838Y184000D01*
X104885Y183530D01*
X105022Y183077D01*
X105245Y182660D01*
X105545Y182295D01*
X105910Y181995D01*
X106327Y181772D01*
X106780Y181635D01*
X107250Y181588D01*
X107720Y181635D01*
X108173Y181772D01*
X108590Y181995D01*
X108955Y182295D01*
X109255Y182660D01*
X109478Y183077D01*
X109615Y183530D01*
X109662Y184000D01*
X109615Y184470D01*
X109478Y184923D01*
X109255Y185340D01*
X108955Y185705D01*
X108590Y186005D01*
X108173Y186228D01*
X107720Y186365D01*
X107250Y186412D01*
D02*
G37*
G36*
X83250D02*
X82780Y186365D01*
X82327Y186228D01*
X81910Y186005D01*
X81545Y185705D01*
X81245Y185340D01*
X81022Y184923D01*
X80885Y184470D01*
X80838Y184000D01*
X80885Y183530D01*
X81022Y183077D01*
X81245Y182660D01*
X81545Y182295D01*
X81910Y181995D01*
X82327Y181772D01*
X82780Y181635D01*
X83250Y181588D01*
X83720Y181635D01*
X84173Y181772D01*
X84590Y181995D01*
X84955Y182295D01*
X85255Y182660D01*
X85478Y183077D01*
X85615Y183530D01*
X85662Y184000D01*
X85615Y184470D01*
X85478Y184923D01*
X85255Y185340D01*
X84955Y185705D01*
X84590Y186005D01*
X84173Y186228D01*
X83720Y186365D01*
X83250Y186412D01*
D02*
G37*
G36*
X116750D02*
X116280Y186365D01*
X115827Y186228D01*
X115410Y186005D01*
X115045Y185705D01*
X114745Y185340D01*
X114522Y184923D01*
X114385Y184470D01*
X114338Y184000D01*
X114385Y183530D01*
X114522Y183077D01*
X114745Y182660D01*
X115045Y182295D01*
X115410Y181995D01*
X115827Y181772D01*
X116280Y181635D01*
X116750Y181588D01*
X117220Y181635D01*
X117673Y181772D01*
X118090Y181995D01*
X118455Y182295D01*
X118755Y182660D01*
X118978Y183077D01*
X119115Y183530D01*
X119162Y184000D01*
X119115Y184470D01*
X118978Y184923D01*
X118755Y185340D01*
X118455Y185705D01*
X118090Y186005D01*
X117673Y186228D01*
X117220Y186365D01*
X116750Y186412D01*
D02*
G37*
G36*
X95873Y198473D02*
X95096D01*
Y197846D01*
X95873D01*
Y198473D01*
D02*
G37*
G36*
X99500Y199000D02*
X98100D01*
Y198104D01*
X98046D01*
Y197627D01*
X98800D01*
Y197373D01*
X98046D01*
Y197111D01*
X96849D01*
X96605Y197298D01*
X96313Y197419D01*
X96000Y197460D01*
X95687Y197419D01*
X95395Y197298D01*
X95144Y197106D01*
X94952Y196855D01*
X94831Y196563D01*
X94790Y196250D01*
Y194750D01*
X94831Y194437D01*
X94952Y194145D01*
X95144Y193894D01*
X97520Y191519D01*
Y190040D01*
X97330D01*
X97017Y189999D01*
X96725Y189878D01*
X96474Y189686D01*
X95394Y188606D01*
X95202Y188355D01*
X95081Y188063D01*
X95040Y187750D01*
Y185077D01*
X94913Y185045D01*
X94755Y185340D01*
X94455Y185705D01*
X94090Y186005D01*
X93673Y186228D01*
X93220Y186365D01*
X92750Y186412D01*
X92280Y186365D01*
X91827Y186228D01*
X91410Y186005D01*
X91045Y185705D01*
X90745Y185340D01*
X90522Y184923D01*
X90385Y184470D01*
X90338Y184000D01*
X90385Y183530D01*
X90522Y183077D01*
X90745Y182660D01*
X91045Y182295D01*
X91410Y181995D01*
X91827Y181772D01*
X92280Y181635D01*
X92750Y181588D01*
X93220Y181635D01*
X93673Y181772D01*
X94090Y181995D01*
X94455Y182295D01*
X94755Y182660D01*
X94913Y182955D01*
X95040Y182923D01*
Y175001D01*
X90144Y170106D01*
X89952Y169855D01*
X89831Y169563D01*
X89790Y169250D01*
Y161250D01*
X89831Y160937D01*
X89952Y160645D01*
X90144Y160394D01*
X92094Y158444D01*
X92345Y158252D01*
X92637Y158131D01*
X92950Y158090D01*
X95000D01*
X95079Y158100D01*
X97050D01*
Y160500D01*
X95079D01*
X95000Y160510D01*
X93451D01*
X92210Y161751D01*
Y168749D01*
X97106Y173644D01*
X97298Y173895D01*
X97419Y174187D01*
X97460Y174500D01*
Y178268D01*
X97587Y178293D01*
X97682Y178065D01*
X97874Y177814D01*
X98125Y177622D01*
X98417Y177501D01*
X98730Y177460D01*
X100060D01*
Y170230D01*
X100101Y169917D01*
X100222Y169625D01*
X100414Y169374D01*
X101944Y167844D01*
X102195Y167652D01*
X102487Y167531D01*
X102800Y167490D01*
X105850D01*
X106163Y167531D01*
X106455Y167652D01*
X106706Y167844D01*
X106898Y168095D01*
X107019Y168387D01*
X107060Y168700D01*
X107019Y169013D01*
X106898Y169305D01*
X106706Y169556D01*
X106455Y169748D01*
X106163Y169869D01*
X105850Y169910D01*
X103301D01*
X102480Y170731D01*
Y178670D01*
X102439Y178983D01*
X102318Y179275D01*
X102126Y179526D01*
X101875Y179718D01*
X101583Y179839D01*
X101510Y179849D01*
Y179977D01*
X101597Y179988D01*
X101902Y180115D01*
X102164Y180316D01*
X102365Y180578D01*
X102492Y180883D01*
X102535Y181210D01*
X102492Y181537D01*
X102365Y181842D01*
X102164Y182104D01*
X101902Y182305D01*
X101647Y182411D01*
Y182549D01*
X101902Y182655D01*
X102164Y182856D01*
X102365Y183118D01*
X102492Y183423D01*
X102535Y183750D01*
X102492Y184077D01*
X102365Y184382D01*
X102164Y184644D01*
X101902Y184845D01*
X101647Y184951D01*
Y185089D01*
X101902Y185195D01*
X102164Y185396D01*
X102365Y185658D01*
X102492Y185963D01*
X102535Y186290D01*
X102492Y186617D01*
X102365Y186922D01*
X102164Y187184D01*
X101902Y187385D01*
X101597Y187512D01*
X101510Y187523D01*
Y187651D01*
X101583Y187661D01*
X101875Y187782D01*
X102126Y187974D01*
X102318Y188225D01*
X102439Y188517D01*
X102480Y188830D01*
X102439Y189143D01*
X102318Y189435D01*
X102126Y189686D01*
X101875Y189878D01*
X101583Y189999D01*
X101270Y190040D01*
X99940D01*
Y192020D01*
X99899Y192333D01*
X99778Y192625D01*
X99586Y192876D01*
X97210Y195251D01*
Y195989D01*
X98800D01*
X98854Y196000D01*
X99500D01*
Y196193D01*
X99550D01*
X99687Y196220D01*
X99802Y196298D01*
X100002Y196498D01*
X100080Y196613D01*
X100107Y196750D01*
Y198250D01*
X100080Y198387D01*
X100002Y198502D01*
X99802Y198702D01*
X99687Y198780D01*
X99550Y198807D01*
X99500D01*
Y199000D01*
D02*
G37*
G36*
X95873Y199354D02*
X95096D01*
Y198727D01*
X95873D01*
Y199354D01*
D02*
G37*
G36*
X92750Y210412D02*
X92280Y210365D01*
X91827Y210228D01*
X91410Y210005D01*
X91045Y209705D01*
X90745Y209340D01*
X90522Y208923D01*
X90385Y208470D01*
X90338Y208000D01*
X90385Y207530D01*
X90522Y207077D01*
X90745Y206660D01*
X91045Y206295D01*
X91410Y205995D01*
X91827Y205772D01*
X92280Y205635D01*
X92750Y205588D01*
X93220Y205635D01*
X93673Y205772D01*
X94090Y205995D01*
X94455Y206295D01*
X94755Y206660D01*
X94978Y207077D01*
X95115Y207530D01*
X95162Y208000D01*
X95115Y208470D01*
X94978Y208923D01*
X94755Y209340D01*
X94455Y209705D01*
X94090Y210005D01*
X93673Y210228D01*
X93220Y210365D01*
X92750Y210412D01*
D02*
G37*
G36*
X83250D02*
X82780Y210365D01*
X82327Y210228D01*
X81910Y210005D01*
X81545Y209705D01*
X81245Y209340D01*
X81022Y208923D01*
X80885Y208470D01*
X80838Y208000D01*
X80885Y207530D01*
X81022Y207077D01*
X81245Y206660D01*
X81545Y206295D01*
X81910Y205995D01*
X82327Y205772D01*
X82780Y205635D01*
X83250Y205588D01*
X83720Y205635D01*
X84173Y205772D01*
X84590Y205995D01*
X84955Y206295D01*
X85255Y206660D01*
X85478Y207077D01*
X85615Y207530D01*
X85662Y208000D01*
X85615Y208470D01*
X85478Y208923D01*
X85255Y209340D01*
X84955Y209705D01*
X84590Y210005D01*
X84173Y210228D01*
X83720Y210365D01*
X83250Y210412D01*
D02*
G37*
G36*
X107250D02*
X106780Y210365D01*
X106327Y210228D01*
X105910Y210005D01*
X105545Y209705D01*
X105245Y209340D01*
X105022Y208923D01*
X104885Y208470D01*
X104838Y208000D01*
X104885Y207530D01*
X105022Y207077D01*
X105245Y206660D01*
X105545Y206295D01*
X105910Y205995D01*
X106327Y205772D01*
X106780Y205635D01*
X107250Y205588D01*
X107720Y205635D01*
X108173Y205772D01*
X108590Y205995D01*
X108955Y206295D01*
X109255Y206660D01*
X109478Y207077D01*
X109615Y207530D01*
X109662Y208000D01*
X109615Y208470D01*
X109478Y208923D01*
X109255Y209340D01*
X108955Y209705D01*
X108590Y210005D01*
X108173Y210228D01*
X107720Y210365D01*
X107250Y210412D01*
D02*
G37*
G36*
X118050Y217160D02*
X117711Y217115D01*
X117394Y216984D01*
X117123Y216776D01*
X116914Y216504D01*
X116783Y216188D01*
X116739Y215849D01*
X116783Y215509D01*
X116914Y215193D01*
X117123Y214921D01*
X117394Y214713D01*
X117711Y214582D01*
X118050Y214537D01*
X118389Y214582D01*
X118706Y214713D01*
X118977Y214921D01*
X119186Y215193D01*
X119317Y215509D01*
X119361Y215849D01*
X119317Y216188D01*
X119186Y216504D01*
X118977Y216776D01*
X118706Y216984D01*
X118389Y217115D01*
X118050Y217160D01*
D02*
G37*
G36*
X116750Y210412D02*
X116280Y210365D01*
X115827Y210228D01*
X115410Y210005D01*
X115045Y209705D01*
X114745Y209340D01*
X114522Y208923D01*
X114385Y208470D01*
X114338Y208000D01*
X114385Y207530D01*
X114522Y207077D01*
X114745Y206660D01*
X115045Y206295D01*
X115410Y205995D01*
X115827Y205772D01*
X116280Y205635D01*
X116750Y205588D01*
X117220Y205635D01*
X117673Y205772D01*
X118090Y205995D01*
X118455Y206295D01*
X118755Y206660D01*
X118978Y207077D01*
X119115Y207530D01*
X119162Y208000D01*
X119115Y208470D01*
X118978Y208923D01*
X118755Y209340D01*
X118455Y209705D01*
X118090Y210005D01*
X117673Y210228D01*
X117220Y210365D01*
X116750Y210412D01*
D02*
G37*
G36*
X103873Y199354D02*
X103096D01*
Y198727D01*
X103873D01*
Y199354D01*
D02*
G37*
G36*
X96904D02*
X96127D01*
Y198727D01*
X96904D01*
Y199354D01*
D02*
G37*
G36*
X104904D02*
X104127D01*
Y198727D01*
X104904D01*
Y199354D01*
D02*
G37*
G36*
X114500Y201710D02*
X114187Y201669D01*
X113895Y201548D01*
X113644Y201356D01*
X113452Y201105D01*
X113331Y200813D01*
X113314Y200685D01*
X113186D01*
X113169Y200813D01*
X113048Y201105D01*
X112856Y201356D01*
X112605Y201548D01*
X112313Y201669D01*
X112000Y201710D01*
X111687Y201669D01*
X111395Y201548D01*
X111144Y201356D01*
X110952Y201105D01*
X110831Y200813D01*
X110814Y200685D01*
X110686D01*
X110669Y200813D01*
X110548Y201105D01*
X110356Y201356D01*
X110105Y201548D01*
X109813Y201669D01*
X109500Y201710D01*
X109187Y201669D01*
X108895Y201548D01*
X108644Y201356D01*
X108452Y201105D01*
X108331Y200813D01*
X108290Y200500D01*
X108331Y200187D01*
X108452Y199895D01*
X108644Y199644D01*
X108895Y199452D01*
X109187Y199331D01*
X109500Y199290D01*
X109813Y199331D01*
X110105Y199452D01*
X110356Y199644D01*
X110548Y199895D01*
X110669Y200187D01*
X110790Y200161D01*
Y182750D01*
X110831Y182437D01*
X110952Y182145D01*
X111144Y181894D01*
X116040Y176999D01*
Y153155D01*
X115913Y153117D01*
X115894Y153144D01*
X115894Y153144D01*
X115394Y153644D01*
X115328Y153688D01*
X115250Y153704D01*
X112954D01*
Y156500D01*
X112938Y156578D01*
X112894Y156644D01*
X112828Y156688D01*
X112750Y156704D01*
X111250D01*
X111172Y156688D01*
X111106Y156644D01*
X111062Y156578D01*
X111046Y156500D01*
Y150500D01*
X111062Y150422D01*
X111106Y150356D01*
X111172Y150312D01*
X111250Y150296D01*
X115250D01*
X115250Y150296D01*
X115328Y150312D01*
X115394Y150356D01*
X115894Y150856D01*
X115913Y150883D01*
X116040Y150845D01*
Y150001D01*
X111999Y145960D01*
X110500D01*
X110187Y145919D01*
X109895Y145798D01*
X109644Y145606D01*
X108644Y144606D01*
X108452Y144355D01*
X108392Y144210D01*
X90500D01*
X90187Y144169D01*
X89895Y144048D01*
X89644Y143856D01*
X89486Y143650D01*
X89200D01*
Y142350D01*
X89486D01*
X89644Y142144D01*
X89792Y142031D01*
X89748Y141904D01*
X89346D01*
Y141127D01*
X90854D01*
Y141790D01*
X109146D01*
Y141127D01*
X109900D01*
X110654D01*
Y141904D01*
X110252D01*
X110208Y142031D01*
X110356Y142144D01*
X110514Y142350D01*
X110800D01*
Y143338D01*
X110919Y143457D01*
X111046Y143405D01*
Y140500D01*
Y137500D01*
X111062Y137422D01*
X111106Y137356D01*
X111172Y137312D01*
X111250Y137296D01*
X116000D01*
X116078Y137312D01*
X116144Y137356D01*
X116188Y137422D01*
X116204Y137500D01*
Y140500D01*
X116188Y140578D01*
X116144Y140644D01*
X116078Y140688D01*
X116000Y140704D01*
X112954D01*
Y143500D01*
X112938Y143578D01*
X112957Y143641D01*
X113105Y143702D01*
X113356Y143894D01*
X118106Y148644D01*
X118298Y148895D01*
X118419Y149187D01*
X118460Y149500D01*
Y177500D01*
X118419Y177813D01*
X118298Y178105D01*
X118106Y178356D01*
X113210Y183251D01*
Y200161D01*
X113331Y200187D01*
X113452Y199895D01*
X113644Y199644D01*
X113895Y199452D01*
X114187Y199331D01*
X114500Y199290D01*
X114813Y199331D01*
X115105Y199452D01*
X115356Y199644D01*
X115548Y199895D01*
X115669Y200187D01*
X115710Y200500D01*
X115669Y200813D01*
X115548Y201105D01*
X115356Y201356D01*
X115105Y201548D01*
X114813Y201669D01*
X114500Y201710D01*
D02*
G37*
G36*
X90500D02*
X90187Y201669D01*
X89895Y201548D01*
X89644Y201356D01*
X89452Y201105D01*
X89331Y200813D01*
X89314Y200685D01*
X89186D01*
X89169Y200813D01*
X89048Y201105D01*
X88856Y201356D01*
X88605Y201548D01*
X88313Y201669D01*
X88000Y201710D01*
X87687Y201669D01*
X87395Y201548D01*
X87144Y201356D01*
X86952Y201105D01*
X86831Y200813D01*
X86814Y200685D01*
X86686D01*
X86669Y200813D01*
X86548Y201105D01*
X86356Y201356D01*
X86105Y201548D01*
X85813Y201669D01*
X85500Y201710D01*
X85187Y201669D01*
X84895Y201548D01*
X84644Y201356D01*
X84452Y201105D01*
X84331Y200813D01*
X84290Y200500D01*
X84331Y200187D01*
X84452Y199895D01*
X84644Y199644D01*
X84895Y199452D01*
X85187Y199331D01*
X85500Y199290D01*
X85813Y199331D01*
X86105Y199452D01*
X86356Y199644D01*
X86548Y199895D01*
X86669Y200187D01*
X86790Y200161D01*
Y182750D01*
X86831Y182437D01*
X86952Y182145D01*
X87144Y181894D01*
X91540Y177499D01*
Y177314D01*
X91419Y177273D01*
X91356Y177356D01*
X91105Y177548D01*
X90813Y177669D01*
X90500Y177710D01*
X90187Y177669D01*
X89895Y177548D01*
X89644Y177356D01*
X89452Y177105D01*
X89331Y176813D01*
X89314Y176685D01*
X89186D01*
X89169Y176813D01*
X89048Y177105D01*
X88856Y177356D01*
X88605Y177548D01*
X88313Y177669D01*
X88000Y177710D01*
X87687Y177669D01*
X87395Y177548D01*
X87144Y177356D01*
X86952Y177105D01*
X86831Y176813D01*
X86814Y176685D01*
X86686D01*
X86669Y176813D01*
X86548Y177105D01*
X86356Y177356D01*
X86105Y177548D01*
X85813Y177669D01*
X85500Y177710D01*
X85187Y177669D01*
X84895Y177548D01*
X84644Y177356D01*
X84452Y177105D01*
X84331Y176813D01*
X84290Y176500D01*
X84331Y176187D01*
X84452Y175895D01*
X84644Y175644D01*
X84895Y175452D01*
X85187Y175331D01*
X85500Y175290D01*
X85813Y175331D01*
X86029Y175420D01*
X86101Y175313D01*
X81644Y170856D01*
X81452Y170605D01*
X81331Y170313D01*
X81290Y170000D01*
Y136000D01*
X81331Y135687D01*
X81452Y135395D01*
X81644Y135144D01*
X85644Y131144D01*
X85895Y130952D01*
X86187Y130831D01*
X86500Y130790D01*
X87095D01*
X87133Y130663D01*
X87106Y130644D01*
X87062Y130578D01*
X87046Y130500D01*
Y127704D01*
X84000D01*
X83922Y127688D01*
X83856Y127644D01*
X83812Y127578D01*
X83796Y127500D01*
Y124500D01*
X83812Y124422D01*
X83856Y124356D01*
X83922Y124312D01*
X84000Y124296D01*
X88750D01*
X88828Y124312D01*
X88894Y124356D01*
X88938Y124422D01*
X88954Y124500D01*
Y129275D01*
X89050Y129350D01*
X89236D01*
X89394Y129144D01*
X89542Y129031D01*
X89498Y128904D01*
X89346D01*
Y128127D01*
X90854D01*
Y128790D01*
X109146D01*
Y128127D01*
X109900D01*
Y128000D01*
D01*
Y128127D01*
X110654D01*
Y128904D01*
X110252D01*
X110208Y129031D01*
X110356Y129144D01*
X110514Y129350D01*
X110800D01*
Y130650D01*
X110514D01*
X110356Y130856D01*
X110105Y131048D01*
X109813Y131169D01*
X109500Y131210D01*
X91358D01*
X91298Y131355D01*
X91106Y131606D01*
X89856Y132856D01*
X89605Y133048D01*
X89313Y133169D01*
X89000Y133210D01*
X87001D01*
X83710Y136501D01*
Y137345D01*
X83837Y137383D01*
X83856Y137356D01*
X83922Y137312D01*
X84000Y137296D01*
X88750D01*
X88828Y137312D01*
X88894Y137356D01*
X88938Y137422D01*
X88954Y137500D01*
Y143500D01*
X88938Y143578D01*
X88894Y143644D01*
X88828Y143688D01*
X88750Y143704D01*
X87250D01*
X87172Y143688D01*
X87106Y143644D01*
X87062Y143578D01*
X87046Y143500D01*
Y140704D01*
X84000D01*
X83922Y140688D01*
X83856Y140644D01*
X83837Y140617D01*
X83710Y140655D01*
Y150345D01*
X83837Y150383D01*
X83856Y150356D01*
X83922Y150312D01*
X84000Y150296D01*
X88750D01*
X88828Y150312D01*
X88894Y150356D01*
X88938Y150422D01*
X88954Y150500D01*
Y156405D01*
X89081Y156457D01*
X89200Y156338D01*
Y155350D01*
X89486D01*
X89644Y155144D01*
X89792Y155031D01*
X89748Y154904D01*
X89346D01*
Y154127D01*
X90854D01*
Y154790D01*
X109146D01*
Y154127D01*
X109900D01*
X110654D01*
Y154904D01*
X110252D01*
X110208Y155031D01*
X110356Y155144D01*
X110514Y155350D01*
X110800D01*
Y156650D01*
X110514D01*
X110356Y156856D01*
X110105Y157048D01*
X109813Y157169D01*
X109500Y157210D01*
X91608D01*
X91548Y157355D01*
X91356Y157606D01*
X87760Y161201D01*
Y168549D01*
X93606Y174394D01*
X93798Y174645D01*
X93919Y174937D01*
X93960Y175250D01*
Y178000D01*
X93919Y178313D01*
X93798Y178605D01*
X93606Y178856D01*
X89210Y183251D01*
Y200161D01*
X89331Y200187D01*
X89452Y199895D01*
X89644Y199644D01*
X89895Y199452D01*
X90187Y199331D01*
X90500Y199290D01*
X90813Y199331D01*
X91105Y199452D01*
X91356Y199644D01*
X91548Y199895D01*
X91669Y200187D01*
X91710Y200500D01*
X91669Y200813D01*
X91548Y201105D01*
X91356Y201356D01*
X91105Y201548D01*
X90813Y201669D01*
X90500Y201710D01*
D02*
G37*
G36*
X114500Y177710D02*
X114187Y177669D01*
X113895Y177548D01*
X113644Y177356D01*
X113452Y177105D01*
X113331Y176813D01*
X113314Y176685D01*
X113186D01*
X113169Y176813D01*
X113048Y177105D01*
X112856Y177356D01*
X112605Y177548D01*
X112313Y177669D01*
X112000Y177710D01*
X111687Y177669D01*
X111395Y177548D01*
X111144Y177356D01*
X110952Y177105D01*
X110831Y176813D01*
X110814Y176685D01*
X110686D01*
X110669Y176813D01*
X110548Y177105D01*
X110356Y177356D01*
X110105Y177548D01*
X109813Y177669D01*
X109500Y177710D01*
X109187Y177669D01*
X108895Y177548D01*
X108644Y177356D01*
X108452Y177105D01*
X108331Y176813D01*
X108290Y176500D01*
X108331Y176187D01*
X108452Y175895D01*
X108644Y175644D01*
X108895Y175452D01*
X109187Y175331D01*
X109500Y175290D01*
X109813Y175331D01*
X110105Y175452D01*
X110356Y175644D01*
X110548Y175895D01*
X110669Y176187D01*
X110686Y176315D01*
X110814D01*
X110831Y176187D01*
X110952Y175895D01*
X111144Y175644D01*
X111395Y175452D01*
X111687Y175331D01*
X112000Y175290D01*
X112313Y175331D01*
X112605Y175452D01*
X112856Y175644D01*
X113048Y175895D01*
X113169Y176187D01*
X113290Y176161D01*
Y168501D01*
X107749Y162960D01*
X106664D01*
X106623Y163081D01*
X106706Y163144D01*
X106898Y163395D01*
X107019Y163687D01*
X107060Y164000D01*
X107019Y164313D01*
X106898Y164605D01*
X106706Y164856D01*
X106455Y165048D01*
X106163Y165169D01*
X105850Y165210D01*
X104150D01*
X103837Y165169D01*
X103545Y165048D01*
X103294Y164856D01*
X103102Y164605D01*
X102981Y164313D01*
X102940Y164000D01*
X102981Y163687D01*
X103102Y163395D01*
X103294Y163144D01*
X103377Y163081D01*
X103336Y162960D01*
X101001D01*
X99106Y164856D01*
X98855Y165048D01*
X98563Y165169D01*
X98250Y165210D01*
X94150D01*
X93837Y165169D01*
X93545Y165048D01*
X93294Y164856D01*
X93102Y164605D01*
X92981Y164313D01*
X92940Y164000D01*
X92981Y163687D01*
X93102Y163395D01*
X93294Y163144D01*
X93545Y162952D01*
X93837Y162831D01*
X94150Y162790D01*
X97749D01*
X99644Y160894D01*
X99895Y160702D01*
X100187Y160581D01*
X100500Y160540D01*
X102896D01*
Y158046D01*
X107104D01*
Y160540D01*
X108250D01*
X108563Y160581D01*
X108855Y160702D01*
X109106Y160894D01*
X115356Y167144D01*
X115548Y167395D01*
X115669Y167687D01*
X115710Y168000D01*
Y176500D01*
X115669Y176813D01*
X115548Y177105D01*
X115356Y177356D01*
X115105Y177548D01*
X114813Y177669D01*
X114500Y177710D01*
D02*
G37*
G36*
X90554Y151873D02*
X89977D01*
Y151296D01*
X90554D01*
Y151873D01*
D02*
G37*
G36*
X89723D02*
X89146D01*
Y151296D01*
X89723D01*
Y151873D01*
D02*
G37*
G36*
X110023D02*
X109446D01*
Y151296D01*
X110023D01*
Y151873D01*
D02*
G37*
G36*
Y152704D02*
X109446D01*
Y152127D01*
X110023D01*
Y152704D01*
D02*
G37*
G36*
X110854Y151873D02*
X110277D01*
Y151296D01*
X110854D01*
Y151873D01*
D02*
G37*
G36*
X90854Y140873D02*
X90227D01*
Y140096D01*
X90854D01*
Y140873D01*
D02*
G37*
G36*
X89973D02*
X89346D01*
Y140096D01*
X89973D01*
Y140873D01*
D02*
G37*
G36*
X109773Y140873D02*
X109146D01*
Y140096D01*
X109773D01*
Y140873D01*
D02*
G37*
G36*
X104400Y153664D02*
X104099Y153624D01*
X103818Y153508D01*
X103577Y153323D01*
X103392Y153082D01*
X103276Y152801D01*
X103236Y152500D01*
Y151500D01*
X103276Y151199D01*
X103392Y150918D01*
X103577Y150677D01*
X103818Y150492D01*
X104099Y150376D01*
X104400Y150336D01*
X104701Y150376D01*
X104982Y150492D01*
X105223Y150677D01*
X105408Y150918D01*
X105460Y151045D01*
X105598D01*
X105639Y150945D01*
X105815Y150715D01*
X106045Y150539D01*
X106313Y150428D01*
X106600Y150391D01*
X106887Y150428D01*
X107155Y150539D01*
X107385Y150715D01*
X107561Y150945D01*
X107672Y151213D01*
X107709Y151500D01*
Y152500D01*
X107672Y152787D01*
X107561Y153055D01*
X107385Y153285D01*
X107155Y153461D01*
X106887Y153572D01*
X106600Y153609D01*
X106313Y153572D01*
X106045Y153461D01*
X105815Y153285D01*
X105639Y153055D01*
X105598Y152955D01*
X105460D01*
X105408Y153082D01*
X105223Y153323D01*
X104982Y153508D01*
X104701Y153624D01*
X104400Y153664D01*
D02*
G37*
G36*
X110654Y140873D02*
X110027D01*
Y140096D01*
X110654D01*
Y140873D01*
D02*
G37*
G36*
Y153873D02*
X110027D01*
Y153096D01*
X110654D01*
Y153873D01*
D02*
G37*
G36*
X95850Y169910D02*
X94150D01*
X93837Y169869D01*
X93545Y169748D01*
X93294Y169556D01*
X93102Y169305D01*
X92981Y169013D01*
X92940Y168700D01*
X92981Y168387D01*
X93102Y168095D01*
X93294Y167844D01*
X93545Y167652D01*
X93837Y167531D01*
X94150Y167490D01*
X95850D01*
X96163Y167531D01*
X96455Y167652D01*
X96706Y167844D01*
X96898Y168095D01*
X97019Y168387D01*
X97060Y168700D01*
X97019Y169013D01*
X96898Y169305D01*
X96706Y169556D01*
X96455Y169748D01*
X96163Y169869D01*
X95850Y169910D01*
D02*
G37*
G36*
X90854Y153873D02*
X90227D01*
Y153096D01*
X90854D01*
Y153873D01*
D02*
G37*
G36*
X89973D02*
X89346D01*
Y153096D01*
X89973D01*
Y153873D01*
D02*
G37*
G36*
X109773Y153873D02*
X109146D01*
Y153096D01*
X109773D01*
Y153873D01*
D02*
G37*
G36*
X90554Y152704D02*
X89977D01*
Y152127D01*
X90554D01*
Y152704D01*
D02*
G37*
G36*
X89723D02*
X89146D01*
Y152127D01*
X89723D01*
Y152704D01*
D02*
G37*
G36*
X95600Y153664D02*
X95299Y153624D01*
X95018Y153508D01*
X94777Y153323D01*
X94592Y153082D01*
X94540Y152955D01*
X94402D01*
X94361Y153055D01*
X94185Y153285D01*
X93955Y153461D01*
X93687Y153572D01*
X93400Y153609D01*
X93113Y153572D01*
X92845Y153461D01*
X92615Y153285D01*
X92439Y153055D01*
X92328Y152787D01*
X92291Y152500D01*
Y151500D01*
X92328Y151213D01*
X92439Y150945D01*
X92615Y150715D01*
X92845Y150539D01*
X93113Y150428D01*
X93400Y150391D01*
X93687Y150428D01*
X93955Y150539D01*
X94185Y150715D01*
X94361Y150945D01*
X94402Y151045D01*
X94540D01*
X94592Y150918D01*
X94777Y150677D01*
X95018Y150492D01*
X95299Y150376D01*
X95600Y150336D01*
X95901Y150376D01*
X96182Y150492D01*
X96423Y150677D01*
X96608Y150918D01*
X96724Y151199D01*
X96764Y151500D01*
Y152500D01*
X96724Y152801D01*
X96608Y153082D01*
X96423Y153323D01*
X96182Y153508D01*
X95901Y153624D01*
X95600Y153664D01*
D02*
G37*
G36*
X110854Y152704D02*
X110277D01*
Y152127D01*
X110854D01*
Y152704D01*
D02*
G37*
%LPD*%
G36*
X112750Y153500D02*
X115250D01*
X115750Y153000D01*
Y151000D01*
X115250Y150500D01*
X111250D01*
Y156500D01*
X112750D01*
Y153500D01*
D02*
G37*
G36*
X89452Y175895D02*
X89644Y175644D01*
X89895Y175452D01*
X90187Y175331D01*
X90500Y175290D01*
X90813Y175331D01*
X91029Y175420D01*
X91101Y175313D01*
X85694Y169906D01*
X85502Y169655D01*
X85381Y169363D01*
X85340Y169050D01*
Y160700D01*
X85381Y160387D01*
X85502Y160095D01*
X85694Y159844D01*
X88707Y156831D01*
X88655Y156704D01*
X87250D01*
X87172Y156688D01*
X87106Y156644D01*
X87062Y156578D01*
X87046Y156500D01*
Y153704D01*
X84000D01*
X83922Y153688D01*
X83856Y153644D01*
X83837Y153617D01*
X83710Y153655D01*
Y169499D01*
X88856Y174644D01*
X89048Y174895D01*
X89169Y175187D01*
X89210Y175500D01*
Y176161D01*
X89331Y176187D01*
X89452Y175895D01*
D02*
G37*
D10*
X96000Y194750D02*
Y196250D01*
X109500Y119000D02*
Y119750D01*
Y117000D02*
Y119000D01*
Y143000D02*
Y143750D01*
X112500Y144750D02*
X117250Y149500D01*
X110500Y144750D02*
X112500D01*
X109500Y143750D02*
X110500Y144750D01*
X117250Y149500D02*
Y177500D01*
X98730Y188830D02*
X101270D01*
X98730D02*
Y192020D01*
X96000Y194750D02*
X98730Y192020D01*
Y178670D02*
X101270D01*
Y170230D02*
Y178670D01*
Y170230D02*
X102800Y168700D01*
X105000D01*
X92950Y159300D02*
X95000D01*
X91000Y161250D02*
X92950Y159300D01*
X96250Y187750D02*
X97330Y188830D01*
X98730D01*
X90500Y156000D02*
X109500D01*
X90250Y130000D02*
X109500D01*
X90500Y117000D02*
X109500D01*
X88000Y175500D02*
Y176500D01*
X82500Y170000D02*
X88000Y175500D01*
X82500Y136000D02*
Y170000D01*
Y136000D02*
X86500Y132000D01*
X89000D01*
X90250Y130750D01*
X90500Y143000D02*
X109500D01*
X88000Y182750D02*
X92750Y178000D01*
X88000Y182750D02*
Y200500D01*
X90250Y130000D02*
Y130750D01*
X95000Y164000D02*
X98250D01*
X100500Y161750D01*
X108250D01*
X114500Y168000D01*
Y176500D01*
X112000Y182750D02*
Y200500D01*
Y182750D02*
X117250Y177500D01*
X91000Y161250D02*
Y169250D01*
X96250Y174500D01*
Y187750D01*
X92750Y175250D02*
Y178000D01*
X86550Y160700D02*
X90500Y156750D01*
X86550Y160700D02*
Y169050D01*
X92750Y175250D01*
X90500Y156000D02*
Y156750D01*
D11*
X109500Y119750D02*
D03*
D12*
X106500Y196500D02*
D03*
D13*
X101270Y188830D02*
D03*
X98730D02*
D03*
X101270Y186290D02*
D03*
X98730D02*
D03*
Y183750D02*
D03*
X101270D02*
D03*
Y181210D02*
D03*
X98730D02*
D03*
Y178670D02*
D03*
X101270D02*
D03*
X90500Y200500D02*
D03*
X88000D02*
D03*
X85500D02*
D03*
X114500D02*
D03*
X112000D02*
D03*
X109500D02*
D03*
X90500Y176500D02*
D03*
X88000D02*
D03*
X85500D02*
D03*
X114500D02*
D03*
X112000D02*
D03*
X109500D02*
D03*
D14*
X114900Y152000D02*
D03*
X106600D02*
D03*
X104400D02*
D03*
X114900Y139000D02*
D03*
X106600D02*
D03*
X104400D02*
D03*
X114900Y126000D02*
D03*
X106600D02*
D03*
X104400D02*
D03*
Y113000D02*
D03*
X106600D02*
D03*
X114900D02*
D03*
X85100Y152000D02*
D03*
X93400D02*
D03*
X95600D02*
D03*
X85100Y139000D02*
D03*
X93400D02*
D03*
X95600D02*
D03*
X85100Y126000D02*
D03*
X93400D02*
D03*
X95600D02*
D03*
Y113000D02*
D03*
X93400D02*
D03*
X85100D02*
D03*
D15*
X83250Y208000D02*
D03*
X92750D02*
D03*
X107250D02*
D03*
X116750D02*
D03*
X83250Y184000D02*
D03*
X92750D02*
D03*
X107250D02*
D03*
X116750D02*
D03*
D16*
X105000Y168700D02*
D03*
Y164000D02*
D03*
X95000D02*
D03*
Y168700D02*
D03*
D17*
X105000Y159300D02*
D03*
X95000D02*
D03*
D18*
X97500Y197750D02*
D03*
X98000Y195250D02*
D03*
X98500Y199750D02*
D03*
X97500D02*
D03*
X102500Y194500D02*
D03*
X103500Y177500D02*
D03*
Y178500D02*
D03*
Y179500D02*
D03*
Y180500D02*
D03*
Y181500D02*
D03*
Y182500D02*
D03*
Y183500D02*
D03*
Y184500D02*
D03*
Y185500D02*
D03*
Y186500D02*
D03*
Y187500D02*
D03*
Y188500D02*
D03*
Y189500D02*
D03*
X99000Y173529D02*
D03*
X98750Y176750D02*
D03*
X97500Y171000D02*
D03*
X88000Y208000D02*
D03*
X92400Y203250D02*
D03*
X111750Y146750D02*
D03*
X109500Y119750D02*
D03*
Y120500D02*
D03*
X110250Y119750D02*
D03*
X109500Y119000D02*
D03*
X108750Y119750D02*
D03*
Y120500D02*
D03*
X110250D02*
D03*
Y119000D02*
D03*
X108750D02*
D03*
X105750Y195750D02*
D03*
X107250D02*
D03*
Y197250D02*
D03*
X105750D02*
D03*
Y196500D02*
D03*
X106500Y195750D02*
D03*
X107250Y196500D02*
D03*
X106500Y197250D02*
D03*
Y196500D02*
D03*
X89750Y160000D02*
D03*
X92000Y157750D02*
D03*
X97750D02*
D03*
X102250Y158250D02*
D03*
X107750D02*
D03*
Y159250D02*
D03*
X102250D02*
D03*
X102500Y152000D02*
D03*
X104400Y154250D02*
D03*
Y149750D02*
D03*
X97500Y152000D02*
D03*
X95600Y154250D02*
D03*
Y149750D02*
D03*
Y136750D02*
D03*
Y141250D02*
D03*
X97500Y139000D02*
D03*
X104400Y136750D02*
D03*
Y141250D02*
D03*
X102500Y139000D02*
D03*
X95600Y123750D02*
D03*
Y128250D02*
D03*
X97500Y126000D02*
D03*
X104400Y123750D02*
D03*
Y128250D02*
D03*
X102500Y126000D02*
D03*
X95600Y110750D02*
D03*
Y115250D02*
D03*
X97500Y113000D02*
D03*
X104400Y110750D02*
D03*
Y115250D02*
D03*
X102500Y113000D02*
D03*
X119250Y119750D02*
D03*
X119000Y109250D02*
D03*
X115200D02*
D03*
X111400D02*
D03*
X107600D02*
D03*
X103800D02*
D03*
X100000D02*
D03*
X96200D02*
D03*
X92400D02*
D03*
X88600D02*
D03*
X84800D02*
D03*
X81000D02*
D03*
X115200Y219250D02*
D03*
X107600D02*
D03*
X111400D02*
D03*
X100000D02*
D03*
X103800D02*
D03*
X92400D02*
D03*
X96200D02*
D03*
X88600D02*
D03*
X84800D02*
D03*
X81000D02*
D03*
X119000D02*
D03*
X119250Y114000D02*
D03*
X113750Y115500D02*
D03*
Y128500D02*
D03*
Y141500D02*
D03*
X86250D02*
D03*
Y128500D02*
D03*
Y115500D02*
D03*
X97750Y160000D02*
D03*
X100750Y164250D02*
D03*
X100500Y168500D02*
D03*
X92750Y167500D02*
D03*
X91000Y197250D02*
D03*
X84750D02*
D03*
X109000D02*
D03*
X115000Y197500D02*
D03*
X105500Y198750D02*
D03*
X104000Y200000D02*
D03*
X102500Y198750D02*
D03*
X94250D02*
D03*
X96000Y200000D02*
D03*
X97500Y198750D02*
D03*
X94500Y175250D02*
D03*
X88500Y173500D02*
D03*
X84250Y165000D02*
D03*
X86250Y154500D02*
D03*
X113750D02*
D03*
X114000Y149750D02*
D03*
X108000Y145000D02*
D03*
X108500Y141000D02*
D03*
X110250Y137500D02*
D03*
X108750Y139000D02*
D03*
X91500Y141000D02*
D03*
X91250Y139000D02*
D03*
X89750Y137500D02*
D03*
X91500Y128000D02*
D03*
X91250Y126000D02*
D03*
X89750Y124500D02*
D03*
X108750Y126000D02*
D03*
X108500Y128000D02*
D03*
X110250Y124750D02*
D03*
X108500Y115000D02*
D03*
X108750Y113000D02*
D03*
X110500Y111750D02*
D03*
X91250Y113000D02*
D03*
X91500Y115000D02*
D03*
X89750Y111750D02*
D03*
X100000Y115000D02*
D03*
Y119000D02*
D03*
X107250D02*
D03*
X113500Y118000D02*
D03*
X89000Y118500D02*
D03*
X110250Y150500D02*
D03*
X108750Y152000D02*
D03*
X108500Y154000D02*
D03*
X91500D02*
D03*
X91250Y152000D02*
D03*
X89750Y150500D02*
D03*
X108750Y159250D02*
D03*
X101250D02*
D03*
X108750Y158250D02*
D03*
X101250D02*
D03*
X107000Y167000D02*
D03*
X103500Y171000D02*
D03*
X105750Y174500D02*
D03*
X107500Y170250D02*
D03*
X105500Y181250D02*
D03*
X109000D02*
D03*
X105500Y186750D02*
D03*
X109000D02*
D03*
X105500Y192750D02*
D03*
X108500Y194250D02*
D03*
X100500Y190750D02*
D03*
X91000Y186750D02*
D03*
X94500Y186500D02*
D03*
Y181500D02*
D03*
X92500Y181000D02*
D03*
X94500Y178750D02*
D03*
X83750Y174000D02*
D03*
X84750Y181250D02*
D03*
X81250D02*
D03*
X81500Y177250D02*
D03*
X81000Y171500D02*
D03*
X87500Y157250D02*
D03*
X85250Y159500D02*
D03*
X84500Y149500D02*
D03*
X84750Y136500D02*
D03*
X81000Y134500D02*
D03*
X80750Y150250D02*
D03*
Y143250D02*
D03*
Y164750D02*
D03*
Y158000D02*
D03*
X107750Y178250D02*
D03*
X115500Y166250D02*
D03*
X111750Y162500D02*
D03*
X115250Y159250D02*
D03*
X111750Y158500D02*
D03*
X115500Y154500D02*
D03*
X108000Y148250D02*
D03*
X100000Y149750D02*
D03*
Y153750D02*
D03*
Y145000D02*
D03*
Y140500D02*
D03*
Y132000D02*
D03*
Y128000D02*
D03*
X95000Y145000D02*
D03*
X104250D02*
D03*
X89500D02*
D03*
X95000Y132000D02*
D03*
X104500D02*
D03*
X110250D02*
D03*
X91750D02*
D03*
X88250Y135250D02*
D03*
X92500Y136000D02*
D03*
X100000Y136250D02*
D03*
X115500Y144500D02*
D03*
X117000Y117000D02*
D03*
X117500Y111500D02*
D03*
X81000Y129750D02*
D03*
Y124500D02*
D03*
Y118250D02*
D03*
Y113500D02*
D03*
X83250Y123250D02*
D03*
X83500Y130750D02*
D03*
X84750Y118750D02*
D03*
X87750Y122000D02*
D03*
X92500Y121250D02*
D03*
X100000Y122500D02*
D03*
X104000Y120750D02*
D03*
X109000Y123000D02*
D03*
X112750D02*
D03*
X115250Y131750D02*
D03*
X113250Y136250D02*
D03*
X84250Y154500D02*
D03*
X96250Y166250D02*
D03*
X104000D02*
D03*
X93750Y194250D02*
D03*
X91000Y191500D02*
D03*
X85000Y186750D02*
D03*
X81000Y187000D02*
D03*
Y193500D02*
D03*
Y199000D02*
D03*
X82750Y215500D02*
D03*
X86550D02*
D03*
X90350D02*
D03*
X97950D02*
D03*
X94150D02*
D03*
X105550D02*
D03*
X101750D02*
D03*
X113150D02*
D03*
X109350D02*
D03*
X116000Y214250D02*
D03*
X119000Y211250D02*
D03*
X81000D02*
D03*
X84800D02*
D03*
X88600D02*
D03*
X96200D02*
D03*
X92400D02*
D03*
X103800D02*
D03*
X100000D02*
D03*
X111400D02*
D03*
X107600D02*
D03*
X115200D02*
D03*
X101750Y207500D02*
D03*
X97950D02*
D03*
X100000Y203250D02*
D03*
X103800D02*
D03*
X96200D02*
D03*
X88600D02*
D03*
X84800D02*
D03*
X115200D02*
D03*
X107600D02*
D03*
X111400D02*
D03*
X119000D02*
D03*
X81000D02*
D03*
X112000Y208000D02*
D03*
X119000Y199000D02*
D03*
Y193500D02*
D03*
Y187000D02*
D03*
X115250Y192750D02*
D03*
X114950Y186450D02*
D03*
X107250Y190250D02*
D03*
X94000D02*
D03*
X84750Y190750D02*
D03*
X100000Y199750D02*
D03*
X119275Y182100D02*
D03*
X116875Y180750D02*
D03*
X119075Y178200D02*
D03*
X119150Y171900D02*
D03*
X119175Y166775D02*
D03*
Y161325D02*
D03*
X119225Y156375D02*
D03*
X119175Y150400D02*
D03*
Y144700D02*
D03*
Y138350D02*
D03*
X119150Y132475D02*
D03*
Y126350D02*
D03*
X94500Y118775D02*
D03*
X88600Y168475D02*
D03*
X89000Y165200D02*
D03*
X111225Y173625D02*
D03*
X112750Y168800D02*
D03*
X111225Y167375D02*
D03*
D20*
X119050Y215849D02*
G03*
X119050Y215849I-1000J0D01*
G01*
Y215849D02*
G03*
X119050Y215849I-1000J0D01*
G01*
X117625Y215874D02*
Y216699D01*
X118475Y215849D02*
Y216699D01*
X118050Y214849D02*
Y215849D01*
X117050D02*
X119050D01*
X118475Y215874D02*
Y216699D01*
X117050Y215849D02*
X119050D01*
X118050Y214849D02*
Y215849D01*
X117625D02*
Y216699D01*
D21*
X101200Y196550D02*
D03*
Y198450D02*
D03*
X98800D02*
D03*
Y197500D02*
D03*
Y196550D02*
D03*
D22*
X104000Y196400D02*
D03*
Y198600D02*
D03*
X96000Y196400D02*
D03*
Y198600D02*
D03*
D23*
X112100Y128000D02*
D03*
X109900D02*
D03*
X87900D02*
D03*
X90100D02*
D03*
X87900Y141000D02*
D03*
X90100D02*
D03*
X87900Y154000D02*
D03*
X90100D02*
D03*
X112100Y141000D02*
D03*
X109900D02*
D03*
X112100Y154000D02*
D03*
X109900D02*
D03*
X87900Y115000D02*
D03*
X90100D02*
D03*
X112100D02*
D03*
X109900D02*
D03*
D24*
X88150Y126000D02*
D03*
X89850D02*
D03*
X88150Y139000D02*
D03*
X89850D02*
D03*
X88150Y152000D02*
D03*
X89850D02*
D03*
X89700Y130000D02*
D03*
X88000D02*
D03*
X89850Y143000D02*
D03*
X88150D02*
D03*
X89850Y156000D02*
D03*
X88150D02*
D03*
X111850Y126000D02*
D03*
X110150D02*
D03*
X111850Y139000D02*
D03*
X110150D02*
D03*
X111850Y152000D02*
D03*
X110150D02*
D03*
X110150Y130000D02*
D03*
X111850D02*
D03*
X110150Y143000D02*
D03*
X111850D02*
D03*
X110150Y156000D02*
D03*
X111850D02*
D03*
X88150Y113000D02*
D03*
X89850D02*
D03*
X89850Y117000D02*
D03*
X88150D02*
D03*
X110150D02*
D03*
X111850D02*
D03*
X111850Y113000D02*
D03*
X110150D02*
D03*
D25*
X105750Y196507D02*
X106493Y196500D01*
X103850Y196550D02*
X104000Y196400D01*
X101200Y196550D02*
X103850D01*
X96150D02*
X98800D01*
X106400Y196400D02*
X106500Y196500D01*
X105743Y196507D02*
X105750Y196507D01*
X106493Y196500D02*
X106493D01*
X106500Y196500D01*
D26*
X104000Y196400D02*
X106400D01*
D27*
X98800Y196550D02*
X99550D01*
X99750Y196750D01*
X98800Y198450D02*
X99550D01*
X99750Y198250D01*
Y196750D02*
Y198250D01*
D28*
X88000Y153500D02*
D03*
Y140500D02*
D03*
Y127500D02*
D03*
Y114500D02*
D03*
X112000D02*
D03*
Y127500D02*
D03*
Y140500D02*
D03*
D29*
X86375Y152000D02*
D03*
Y139000D02*
D03*
Y126000D02*
D03*
Y113000D02*
D03*
X113625D02*
D03*
Y126000D02*
D03*
Y139000D02*
D03*
D30*
X98258Y197478D02*
D03*
M02*
