M48
;Layer_Color=9474304
;FILE_FORMAT=4:3
METRIC,TZ
;TYPE=PLATED
T1F00S00C0.400
T3F00S00C1.000
T5F00S00C2.200
%
T01
X81000Y109250
X84800
X88600
X89750Y111750
X91250Y113000
X91500Y115000
X95600Y115250
X97500Y113000
X95600Y110750
X96200Y109250
X100000
X103800
X104400Y110750
X102500Y113000
X104400Y115250
X108500Y115000
X108750Y113000
X110500Y111750
X111400Y109250
X115200
X119000
X117500Y111500
X117000Y117000
X113500Y118000
X113750Y115500
X110250Y119000
X109500
X108750
X107250
X100000
Y115000
X94500Y118775
X89000Y118500
X84750Y118750
X81000Y118250
Y113500
X86250Y115500
X92400Y109250
X107600
X119250Y114000
Y119750
X119150Y126350
Y132475
X119175Y138350
Y144700
Y150400
X119225Y156375
X115500Y154500
X113750
X114000Y149750
X110250Y150500
X108750Y152000
X108500Y154000
X104400Y154250
X102500Y152000
X104400Y149750
X100000
Y153750
X97500Y152000
X95600Y154250
X91500Y154000
X91250Y152000
X89750Y150500
X89500Y145000
X95000
X95600Y141250
X97500Y139000
X100000Y140500
X102500Y139000
X104400Y136750
Y141250
X104250Y145000
X108000
Y148250
X111750Y146750
X115500Y144500
X113750Y141500
X108500Y141000
X108750Y139000
X110250Y137500
X113250Y136250
X115250Y131750
X113750Y128500
X108500Y128000
X108750Y126000
X110250Y124750
X109000Y123000
X108750Y120500
Y119750
X109500
Y120500
X110250
Y119750
X112750Y123000
X104400Y123750
X104000Y120750
X100000Y122500
Y128000
Y132000
Y136250
X95600Y136750
X92500Y136000
X91250Y139000
X91500Y141000
X89750Y137500
X88250Y135250
X84750Y136500
X81000Y134500
Y129750
X83500Y130750
X86250Y128500
X91500Y128000
X91250Y126000
X89750Y124500
X87750Y122000
X92500Y121250
X95600Y123750
X97500Y126000
X95600Y128250
X95000Y132000
X91750
X104500
X104400Y128250
X102500Y126000
X110250Y132000
X100000Y145000
X95600Y149750
X97750Y157750
X101250Y158250
X102250
X107750
X108750
X111750Y158500
X92000Y157750
X87500Y157250
X86250Y154500
X84250
X84500Y149500
X80750Y150250
Y143250
X86250Y141500
X83250Y123250
X81000Y124500
X80750Y158000
X85250Y159500
X89750Y160000
X89000Y165200
X88600Y168475
X92750Y167500
X96250Y166250
X97500Y171000
X99000Y173529
X98750Y176750
X103500Y177500
Y178500
Y179500
Y180500
Y181500
Y182500
Y183500
Y184500
Y185500
Y186500
Y187500
Y188500
Y189500
X100500Y190750
X102500Y194500
X105750Y195750
Y196500
Y197250
X106500
X107250
Y196500
X106500
Y195750
X107250
X108500Y194250
X109000Y197250
X115000Y197500
X115250Y192750
X119000Y193500
Y187000
X114950Y186450
X109000Y186750
X105500
X107250Y190250
X105500Y192750
X98000Y195250
X97500Y197750
X91000Y197250
X93750Y194250
X94000Y190250
X91000Y191500
Y186750
X94500Y186500
Y181500
X92500Y181000
X94500Y178750
Y175250
X88500Y173500
X83750Y174000
X81000Y171500
X81500Y177250
X81250Y181250
X84750
X85000Y186750
X84750Y190750
Y197250
X81000Y193500
Y187000
X80750Y164750
X84250Y165000
X100750Y164250
X100500Y168500
X103500Y171000
X107500Y170250
X107000Y167000
X104000Y166250
X111225Y167375
X112750Y168800
X115500Y166250
X115250Y159250
X108750
X107750
X102250
X101250
X97750Y160000
X111750Y162500
X111225Y173625
X105750Y174500
X107750Y178250
X109000Y181250
X105500
X116875Y180750
X119275Y182100
X119075Y178200
X119150Y171900
X119175Y166775
Y161325
X119000Y199000
Y203250
X115200
X111400
X107600
X103800
X104000Y200000
X105500Y198750
X102500
X100000Y199750
X98500
X97500
Y198750
X96000Y200000
X94250Y198750
X92400Y203250
X96200
X100000
X101750Y207500
X97950
X96200Y211250
X92400
X88600
X84800
X81000
X82750Y215500
X86550
X90350
X94150
X97950
X101750
X105550
X109350
X113150
X116000Y214250
X115200Y211250
X119000
X111400
X107600
X103800
X100000
Y219250
X103800
X107600
X111400
X115200
X119000
X112000Y208000
X88000
X88600Y203250
X84800
X81000
Y199000
Y219250
X84800
X88600
X92400
X96200
T03
X85500Y176500
X88000
X90500
X98730Y178670
Y181210
Y183750
Y186290
Y188830
X101270
Y186290
Y183750
Y181210
Y178670
X109500Y176500
X112000
X114500
Y200500
X112000
X109500
X90500
X88000
X85500
T05
X83250Y184000
X92750
X107250
X116750
Y208000
X107250
X92750
X83250
M30
