G04 Layer_Color=16711935*
%FSLAX43Y43*%
%MOMM*%
G71*
G01*
G75*
%ADD35C,2.100*%
%ADD36O,1.900X2.900*%
%ADD37C,4.500*%
G04:AMPARAMS|DCode=38|XSize=3.8mm|YSize=2.1mm|CornerRadius=1.05mm|HoleSize=0mm|Usage=FLASHONLY|Rotation=180.000|XOffset=0mm|YOffset=0mm|HoleType=Round|Shape=RoundedRectangle|*
%AMROUNDEDRECTD38*
21,1,3.800,0.000,0,0,180.0*
21,1,1.700,2.100,0,0,180.0*
1,1,2.100,-0.850,0.000*
1,1,2.100,0.850,0.000*
1,1,2.100,0.850,0.000*
1,1,2.100,-0.850,0.000*
%
%ADD38ROUNDEDRECTD38*%
%ADD39R,3.800X2.100*%
%ADD40R,1.100X0.800*%
%ADD41R,1.380X1.080*%
%ADD42R,1.080X1.380*%
%ADD43R,1.000X1.000*%
D35*
X101270Y188830D02*
D03*
X98730D02*
D03*
X101270Y186290D02*
D03*
X98730D02*
D03*
Y183750D02*
D03*
X101270D02*
D03*
Y181210D02*
D03*
X98730D02*
D03*
Y178670D02*
D03*
X101270D02*
D03*
X90500Y200500D02*
D03*
X88000D02*
D03*
X85500D02*
D03*
X114500D02*
D03*
X112000D02*
D03*
X109500D02*
D03*
X90500Y176500D02*
D03*
X88000D02*
D03*
X85500D02*
D03*
X114500D02*
D03*
X112000D02*
D03*
X109500D02*
D03*
D36*
X114900Y152000D02*
D03*
X106600D02*
D03*
X104400D02*
D03*
X114900Y139000D02*
D03*
X106600D02*
D03*
X104400D02*
D03*
X114900Y126000D02*
D03*
X106600D02*
D03*
X104400D02*
D03*
Y113000D02*
D03*
X106600D02*
D03*
X114900D02*
D03*
X85100Y152000D02*
D03*
X93400D02*
D03*
X95600D02*
D03*
X85100Y139000D02*
D03*
X93400D02*
D03*
X95600D02*
D03*
X85100Y126000D02*
D03*
X93400D02*
D03*
X95600D02*
D03*
Y113000D02*
D03*
X93400D02*
D03*
X85100D02*
D03*
D37*
X83250Y208000D02*
D03*
X92750D02*
D03*
X107250D02*
D03*
X116750D02*
D03*
X83250Y184000D02*
D03*
X92750D02*
D03*
X107250D02*
D03*
X116750D02*
D03*
D38*
X105000Y168700D02*
D03*
Y164000D02*
D03*
X95000D02*
D03*
Y168700D02*
D03*
D39*
X105000Y159300D02*
D03*
X95000D02*
D03*
D40*
X101200Y196550D02*
D03*
Y198450D02*
D03*
X98800D02*
D03*
Y197500D02*
D03*
Y196550D02*
D03*
D41*
X104000Y196400D02*
D03*
Y198600D02*
D03*
X96000Y196400D02*
D03*
Y198600D02*
D03*
D42*
X112100Y128000D02*
D03*
X109900D02*
D03*
X87900D02*
D03*
X90100D02*
D03*
X87900Y141000D02*
D03*
X90100D02*
D03*
X87900Y154000D02*
D03*
X90100D02*
D03*
X112100Y141000D02*
D03*
X109900D02*
D03*
X112100Y154000D02*
D03*
X109900D02*
D03*
X87900Y115000D02*
D03*
X90100D02*
D03*
X112100D02*
D03*
X109900D02*
D03*
D43*
X88150Y126000D02*
D03*
X89850D02*
D03*
X88150Y139000D02*
D03*
X89850D02*
D03*
X88150Y152000D02*
D03*
X89850D02*
D03*
X89700Y130000D02*
D03*
X88000D02*
D03*
X89850Y143000D02*
D03*
X88150D02*
D03*
X89850Y156000D02*
D03*
X88150D02*
D03*
X111850Y126000D02*
D03*
X110150D02*
D03*
X111850Y139000D02*
D03*
X110150D02*
D03*
X111850Y152000D02*
D03*
X110150D02*
D03*
X110150Y130000D02*
D03*
X111850D02*
D03*
X110150Y143000D02*
D03*
X111850D02*
D03*
X110150Y156000D02*
D03*
X111850D02*
D03*
X88150Y113000D02*
D03*
X89850D02*
D03*
X89850Y117000D02*
D03*
X88150D02*
D03*
X110150D02*
D03*
X111850D02*
D03*
X111850Y113000D02*
D03*
X110150D02*
D03*
M02*
