M48
;Layer_Color=9474304
;FILE_FORMAT=4:3
METRIC,TZ
;TYPE=PLATED
T2F00S00C0.800
T4F00S00C1.000
%
G90
G05
T02
G00X85100Y113350
M15
G01Y112650
M16
G00X93400Y113350
M15
G01Y112650
M16
G00X95600Y113350
M15
G01Y112650
M16
G00X104400Y112650
M15
G01Y113350
M16
G00X106600Y112650
M15
G01Y113350
M16
G00X114900Y112650
M15
G01Y113350
M16
G00X114900Y125650
M15
G01Y126350
M16
G00X106600Y125650
M15
G01Y126350
M16
G00X104400Y125650
M15
G01Y126350
M16
G00X95600Y126350
M15
G01Y125650
M16
G00X93400Y126350
M15
G01Y125650
M16
G00X85100Y126350
M15
G01Y125650
M16
G00X85100Y139350
M15
G01Y138650
M16
G00X93400Y139350
M15
G01Y138650
M16
G00X95600Y139350
M15
G01Y138650
M16
G00X104400Y138650
M15
G01Y139350
M16
G00X106600Y138650
M15
G01Y139350
M16
G00X114900Y138650
M15
G01Y139350
M16
G00X114900Y151650
M15
G01Y152350
M16
G00X106600Y151650
M15
G01Y152350
M16
G00X104400Y151650
M15
G01Y152350
M16
G00X95600Y152350
M15
G01Y151650
M16
G00X93400Y152350
M15
G01Y151650
M16
G00X85100Y152350
M15
G01Y151650
M16
T04
G00X95850Y159300
M15
G01X94150
M16
G00X95850Y164000
M15
G01X94150
M16
G00X95850Y168700
M15
G01X94150
M16
G00X105850Y168700
M15
G01X104150
M16
G00X105850Y164000
M15
G01X104150
M16
G00X105850Y159300
M15
G01X104150
M16
M17
M30
